<svg xmlns="http://www.w3.org/2000/svg" viewBox="0 0 1510.51 663.77"><defs><style>.cls-1{fill:#2861a4;}.cls-1,.cls-3{stroke:#231f20;stroke-miterlimit:10;}.cls-2{font-size:16px;font-family:Menlo-Regular, Menlo;}.cls-2,.cls-5,.cls-6,.cls-7{fill:#231f20;}.cls-2,.cls-6{stroke:#fff;}.cls-3{fill:none;}.cls-4{fill:#fff;}.cls-7{font-size:12px;font-family:MyriadPro-Regular, Myriad Pro;}.cls-8{letter-spacing:0em;}.cls-9{letter-spacing:0.01em;}.cls-10{letter-spacing:-0.04em;}.cls-11{letter-spacing:-0.01em;}.cls-12{letter-spacing:-0.01em;}.cls-13{letter-spacing:0em;}.cls-14{letter-spacing:-0.01em;}.cls-15{letter-spacing:0em;}.cls-16{letter-spacing:-0.01em;}.cls-17{letter-spacing:0em;}</style></defs><g id="Artboard_2" data-name="Artboard 2"><g id="Grid-2" data-name="Grid"><rect class="cls-1" x="10.18" y="610" width="290" height="40" rx="9.98"/><rect class="cls-1" x="309.03" y="609.95" width="50" height="40" rx="9.98"/><rect class="cls-1" x="370" y="609.95" width="290" height="40" rx="9.98"/><text class="cls-2" transform="translate(425.47 99.61)">1 unit</text><rect class="cls-1" x="10" y="79.61" width="830" height="40" rx="9.98"/><rect class="cls-1" x="850" y="80" width="590" height="40" rx="9.98"/><rect class="cls-1" x="10.08" y="129.61" width="1430" height="40" rx="9.98"/><rect class="cls-1" x="10.08" y="179.61" width="1430" height="40" rx="9.98"/><rect class="cls-1" x="10.08" y="229.61" width="1430" height="40" rx="9.98"/><line class="cls-3" x1="10.08" y1="440" x2="1450.23" y2="440"/><line class="cls-3" x1="5" y1="579.92" x2="1445.15" y2="579.92"/><rect class="cls-1" x="10" y="470" width="350" height="40" rx="9.98"/><rect class="cls-1" x="370" y="470" width="110" height="40" rx="9.98"/><line class="cls-3" x1="10" y1="49.61" x2="1450.15" y2="49.61"/><rect class="cls-1" x="10" y="280" width="1430" height="40" rx="9.98"/><rect class="cls-1" x="10" y="330" width="1430" height="40" rx="9.98"/><rect class="cls-1" x="670" y="610" width="230" height="40" rx="9.98"/><rect class="cls-1" x="1090.08" y="610" width="170" height="40" rx="9.98"/><rect class="cls-1" x="1270" y="610" width="170" height="40" rx="9.98"/><rect class="cls-1" x="910.04" y="610" width="170" height="40" rx="9.98"/></g><g id="Text-2" data-name="Text"><path class="cls-4" d="M366.1,96.55h2.24l.19.74h.07a3.44,3.44,0,0,1,2.24-.93c1.94,0,3.17,1.6,3.17,4.06,0,2.76-1.67,4.33-3.41,4.33a2.49,2.49,0,0,1-1.81-.81h-.06l.12,1.22v2.21H366.1Zm5.09,3.91c0-1.32-.4-1.86-1.18-1.86a1.49,1.49,0,0,0-1.16.57v3a1.62,1.62,0,0,0,1.09.38C370.61,102.5,371.19,102,371.19,100.46Z"/><path class="cls-4" d="M375.7,98.31h7.56v1.92H375.7Z"/><path class="cls-4" d="M385.27,100.55c0-2.66,2.21-4.19,4.69-4.19a4.41,4.41,0,0,1,3,1l-1.24,1.7a2.81,2.81,0,0,0-1.62-.54,1.89,1.89,0,0,0-2,2,1.86,1.86,0,0,0,1.93,2,3.66,3.66,0,0,0,2-.68l1.09,1.73a5.34,5.34,0,0,1-3.33,1.16C387.22,104.75,385.27,103.21,385.27,100.55Z"/><path class="cls-4" d="M394.55,100.55a4.13,4.13,0,1,1,4.13,4.2A4,4,0,0,1,394.55,100.55Zm5.44,0c0-1.22-.38-2-1.31-2s-1.31.76-1.31,2,.38,2,1.31,2S400,101.77,400,100.55Z"/><path class="cls-4" d="M406.52,101.26v-5.7h-2.4V93.41h5.15v7.94a1.09,1.09,0,0,0,1.2,1.19,3.43,3.43,0,0,0,1.15-.23l.6,2a7.78,7.78,0,0,1-2.49.42C407.61,104.75,406.52,103.34,406.52,101.26Z"/><path class="cls-4" d="M414.1,98.31h7.56v1.92H414.1Z"/><path class="cls-4" d="M428.42,96.71h-4.8V94.4h7.73v1.7c-2.53,2.74-2.83,4.5-3,8.45h-2.75A12.39,12.39,0,0,1,428.42,96.71Z"/><path class="cls-4" d="M1112.43,95h2.24l.19.73h.06a3.52,3.52,0,0,1,2.24-.93c1.94,0,3.17,1.6,3.17,4.07,0,2.75-1.66,4.32-3.41,4.32a2.54,2.54,0,0,1-1.81-.8h-.06l.13,1.22v2.21h-2.75Zm5.09,3.9c0-1.31-.41-1.86-1.19-1.86a1.46,1.46,0,0,0-1.15.58v3a1.65,1.65,0,0,0,1.09.38C1116.94,101,1117.52,100.45,1117.52,98.91Z"/><path class="cls-4" d="M1122,96.77h7.56v1.92H1122Z"/><path class="cls-4" d="M1131.59,99c0-2.66,2.21-4.2,4.69-4.2a4.44,4.44,0,0,1,3,1.06l-1.25,1.7a2.81,2.81,0,0,0-1.62-.55,1.89,1.89,0,0,0-2,2,1.86,1.86,0,0,0,1.94,2,3.71,3.71,0,0,0,2-.67l1.08,1.73a5.39,5.39,0,0,1-3.33,1.15C1133.55,103.2,1131.59,101.66,1131.59,99Z"/><path class="cls-4" d="M1140.87,99a4.13,4.13,0,1,1,4.13,4.19A4.06,4.06,0,0,1,1140.87,99Zm5.45,0c0-1.22-.39-2-1.32-2s-1.31.77-1.31,2,.38,2,1.31,2S1146.32,100.22,1146.32,99Z"/><path class="cls-4" d="M1152.84,99.71V94h-2.4V91.87h5.15v7.94a1.09,1.09,0,0,0,1.2,1.18,3.48,3.48,0,0,0,1.16-.22l.59,2a7.41,7.41,0,0,1-2.48.42C1153.93,103.2,1152.84,101.79,1152.84,99.71Z"/><path class="cls-4" d="M1160.42,96.77H1168v1.92h-7.56Z"/><path class="cls-4" d="M1169.67,101.76l1.22-1.73a3.53,3.53,0,0,0,2.21,1c1.05,0,1.73-.41,1.73-1.31s-.71-1.31-1.6-1.31a2.58,2.58,0,0,0-1.57.48l-1.19-.77.26-5.22h6.4v2.31h-4l-.13,1.47a3.41,3.41,0,0,1,1.12-.16c1.84,0,3.49,1,3.49,3.13s-1.92,3.59-4.07,3.59A5.34,5.34,0,0,1,1169.67,101.76Z"/><path class="cls-4" d="M704.37,146.55h2.24l.2.74h.06a3.44,3.44,0,0,1,2.24-.93c1.94,0,3.17,1.6,3.17,4.06,0,2.76-1.67,4.33-3.41,4.33a2.49,2.49,0,0,1-1.81-.81H707l.12,1.22v2.21h-2.75Zm5.09,3.91c0-1.32-.4-1.86-1.18-1.86a1.49,1.49,0,0,0-1.16.58v2.94a1.63,1.63,0,0,0,1.09.38C708.89,152.5,709.46,152,709.46,150.46Z"/><path class="cls-4" d="M714,148.31h7.56v1.92H714Z"/><path class="cls-4" d="M723.54,150.55c0-2.66,2.21-4.19,4.69-4.19a4.41,4.41,0,0,1,3,1l-1.24,1.7a2.81,2.81,0,0,0-1.62-.54,1.89,1.89,0,0,0-2,2,1.86,1.86,0,0,0,1.93,2,3.66,3.66,0,0,0,2-.68l1.09,1.73a5.34,5.34,0,0,1-3.33,1.16C725.49,154.75,723.54,153.21,723.54,150.55Z"/><path class="cls-4" d="M732.82,150.55a4.13,4.13,0,1,1,4.13,4.2A4,4,0,0,1,732.82,150.55Zm5.44,0c0-1.21-.38-2-1.31-2s-1.31.77-1.31,2,.38,2,1.31,2S738.26,151.77,738.26,150.55Z"/><path class="cls-4" d="M744.79,151.26v-5.7h-2.4v-2.15h5.15v7.94a1.09,1.09,0,0,0,1.2,1.19,3.43,3.43,0,0,0,1.15-.23l.6,2a7.45,7.45,0,0,1-2.48.42C745.88,154.75,744.79,153.34,744.79,151.26Z"/><path class="cls-4" d="M752.37,148.31h7.56v1.92h-7.56Z"/><path class="cls-4" d="M762.1,152.34h2.66v-5.25h-2.24V145.4a7,7,0,0,0,3-1h2v7.94h2.18v2.21H762.1Z"/><path class="cls-4" d="M771.38,153c2.7-2.2,4.69-3.9,4.69-5.28,0-.91-.58-1.34-1.47-1.34a2.94,2.94,0,0,0-1.89,1l-1.46-1.47a4.76,4.76,0,0,1,3.73-1.64c2.18,0,3.7,1.32,3.7,3.33,0,1.64-1.7,3.43-3.36,4.84a17.11,17.11,0,0,1,1.82-.13h2.05v2.3h-7.81Z"/><path class="cls-4" d="M704.37,241.61h2.24l.2.74h.06a3.44,3.44,0,0,1,2.24-.93c1.94,0,3.17,1.6,3.17,4.06,0,2.76-1.67,4.33-3.41,4.33a2.49,2.49,0,0,1-1.81-.81H707l.12,1.22v2.21h-2.75Zm5.09,3.91c0-1.32-.4-1.86-1.18-1.86a1.51,1.51,0,0,0-1.16.57v3a1.63,1.63,0,0,0,1.09.38C708.89,247.56,709.46,247.05,709.46,245.52Z"/><path class="cls-4" d="M714,243.37h7.56v1.92H714Z"/><path class="cls-4" d="M723.54,245.61c0-2.66,2.21-4.19,4.69-4.19a4.41,4.41,0,0,1,3,1.05l-1.24,1.7a2.81,2.81,0,0,0-1.62-.54,1.89,1.89,0,0,0-2,2,1.86,1.86,0,0,0,1.93,2,3.66,3.66,0,0,0,2-.68l1.09,1.73a5.34,5.34,0,0,1-3.33,1.16C725.49,249.81,723.54,248.27,723.54,245.61Z"/><path class="cls-4" d="M732.82,245.61a4.13,4.13,0,1,1,4.13,4.2A4,4,0,0,1,732.82,245.61Zm5.44,0c0-1.21-.38-2-1.31-2s-1.31.77-1.31,2,.38,2,1.31,2S738.26,246.83,738.26,245.61Z"/><path class="cls-4" d="M744.79,246.32v-5.7h-2.4v-2.15h5.15v7.94a1.09,1.09,0,0,0,1.2,1.19,3.43,3.43,0,0,0,1.15-.23l.6,2a7.45,7.45,0,0,1-2.48.42C745.88,249.81,744.79,248.4,744.79,246.32Z"/><path class="cls-4" d="M752.37,243.37h7.56v1.92h-7.56Z"/><path class="cls-4" d="M762.1,247.4h2.66v-5.25h-2.24v-1.69a7,7,0,0,0,3-1h2v7.94h2.18v2.21H762.1Z"/><path class="cls-4" d="M771.38,248c2.7-2.2,4.69-3.9,4.69-5.28,0-.91-.58-1.34-1.47-1.34a2.94,2.94,0,0,0-1.89,1l-1.46-1.48a4.75,4.75,0,0,1,3.73-1.63c2.18,0,3.7,1.32,3.7,3.33,0,1.63-1.7,3.43-3.36,4.84a17.11,17.11,0,0,1,1.82-.13h2.05v2.3h-7.81Z"/><path class="cls-4" d="M704.77,198H707l.19.74h.07a3.44,3.44,0,0,1,2.24-.93c1.94,0,3.17,1.6,3.17,4.07,0,2.75-1.67,4.32-3.41,4.32a2.52,2.52,0,0,1-1.81-.8h-.06l.12,1.21v2.21h-2.75Zm5.09,3.91c0-1.32-.4-1.86-1.18-1.86a1.49,1.49,0,0,0-1.16.58v2.94a1.65,1.65,0,0,0,1.09.39C709.29,204,709.86,203.48,709.86,202Z"/><path class="cls-4" d="M714.37,199.8h7.56v1.92h-7.56Z"/><path class="cls-4" d="M723.94,202c0-2.65,2.21-4.19,4.69-4.19a4.41,4.41,0,0,1,3,1.06l-1.24,1.69a2.81,2.81,0,0,0-1.62-.54,1.89,1.89,0,0,0-2,2,1.86,1.86,0,0,0,1.93,2,3.74,3.74,0,0,0,2-.67l1.09,1.72a5.34,5.34,0,0,1-3.33,1.16C725.89,206.24,723.94,204.7,723.94,202Z"/><path class="cls-4" d="M733.22,202a4.13,4.13,0,1,1,4.13,4.2A4.06,4.06,0,0,1,733.22,202Zm5.44,0c0-1.21-.38-2-1.31-2s-1.31.77-1.31,2,.38,2,1.31,2S738.66,203.26,738.66,202Z"/><path class="cls-4" d="M745.19,202.75v-5.7h-2.4V194.9h5.15v7.94a1.09,1.09,0,0,0,1.2,1.19,3.43,3.43,0,0,0,1.15-.23l.6,2a7.47,7.47,0,0,1-2.49.42C746.28,206.24,745.19,204.83,745.19,202.75Z"/><path class="cls-4" d="M752.77,199.8h7.56v1.92h-7.56Z"/><path class="cls-4" d="M762.5,203.84h2.66v-5.25h-2.24v-1.7a7,7,0,0,0,3-1h2v7.94h2.18V206H762.5Z"/><path class="cls-4" d="M771.78,204.48c2.7-2.21,4.69-3.91,4.69-5.29,0-.91-.58-1.34-1.47-1.34a2.94,2.94,0,0,0-1.89,1l-1.46-1.47a4.75,4.75,0,0,1,3.73-1.63c2.18,0,3.7,1.31,3.7,3.32,0,1.64-1.7,3.43-3.36,4.84a17.11,17.11,0,0,1,1.82-.13h2.05V206h-7.81Z"/><path class="cls-4" d="M97.41,625.92h2.66l.32,3.36c.08.8.13,1.6.22,2.43h0a22.94,22.94,0,0,1,.34-2.43l.32-2.08h1.86l.35,2.08c.14.8.25,1.6.37,2.43H104c.1-.83.11-1.63.18-2.43l.25-3.36H107l-1,8h-3.17l-.26-2.14c-.1-.74-.18-1.49-.26-2.37h-.06c-.05.54-.1,1.2-.22,2.37l-.26,2.14h-3.1Z"/><path class="cls-4" d="M108,629.92c0-2.66,2.21-4.2,4.69-4.2a4.44,4.44,0,0,1,3,1.06l-1.25,1.7a2.81,2.81,0,0,0-1.62-.55,1.89,1.89,0,0,0-2,2,1.86,1.86,0,0,0,1.94,2,3.65,3.65,0,0,0,2-.67l1.09,1.73a5.33,5.33,0,0,1-3.33,1.15C109.93,634.11,108,632.58,108,629.92Z"/><path class="cls-4" d="M117.61,627.68h7.55v1.92h-7.55Z"/><path class="cls-4" d="M129.22,630.62v-5.7h-2.4v-2.14H132v7.94a1.09,1.09,0,0,0,1.21,1.18,3.48,3.48,0,0,0,1.15-.22l.59,2a7.67,7.67,0,0,1-2.48.41C130.31,634.11,129.22,632.7,129.22,630.62Z"/><path class="cls-4" d="M136.48,635.23c0-.65.42-1.15,1.22-1.53v-.07a1.56,1.56,0,0,1-.8-1.38,2,2,0,0,1,1-1.5v-.06a2.41,2.41,0,0,1-1.09-2.05c0-2,1.68-2.92,3.54-2.92a4.51,4.51,0,0,1,1.36.2h3.23v2h-1.44a1.77,1.77,0,0,1,.23.83c0,1.89-1.48,2.66-3.38,2.66a5,5,0,0,1-1-.11.49.49,0,0,0-.26.46c0,.35.36.48,1.25.48h1.36c2.12,0,3.33.61,3.33,2.08,0,1.73-1.9,2.92-4.89,2.92C138.1,637.22,136.48,636.67,136.48,635.23Zm5.89-.45c0-.41-.44-.48-1.24-.48h-.8a5.52,5.52,0,0,1-1.22-.09c-.27.19-.4.35-.4.57,0,.52.73.74,1.81.74S142.37,635.23,142.37,634.78Zm-1.08-6.14a1,1,0,0,0-1-1.09,1,1,0,0,0-1,1.09c0,.77.43,1.12,1,1.12S141.29,629.41,141.29,628.64Z"/><path class="cls-4" d="M146.4,627.68H154v1.92H146.4Z"/><path class="cls-4" d="M155.81,632.35c2.71-2.21,4.69-3.9,4.69-5.28,0-.91-.57-1.35-1.47-1.35a3,3,0,0,0-1.89,1l-1.46-1.47a4.75,4.75,0,0,1,3.73-1.63c2.18,0,3.7,1.31,3.7,3.33,0,1.63-1.7,3.42-3.36,4.83.56-.06,1.33-.12,1.82-.12h2.05v2.3h-7.81Z"/><path class="cls-4" d="M165.6,627.68h7.56v1.92H165.6Z"/><path class="cls-4" d="M175.2,622.78H178v2.59l-.16,1.41h.06a3.51,3.51,0,0,1,2.53-1.06c1.76,0,2.53,1.28,2.53,3.27v4.93h-2.75v-4.58c0-.89-.23-1.28-.93-1.28a1.81,1.81,0,0,0-1.28.61v5.25H175.2Z"/><path class="cls-4" d="M184.64,631.65c0-1.8,1.41-2.72,5.06-2.92-.09-.57-.64-.83-1.54-.83a5.58,5.58,0,0,0-2.3.67l-1-1.79a7.79,7.79,0,0,1,3.81-1.06c2.27,0,3.74,1.12,3.74,3.75v4.45h-2.24l-.19-.83H190a4.77,4.77,0,0,1-2.72,1A2.42,2.42,0,0,1,184.64,631.65Zm5.06-.26v-1c-1.95.06-2.43.51-2.43,1,0,.37.29.58.86.58A2.59,2.59,0,0,0,189.7,631.39Z"/><path class="cls-4" d="M196.42,630.62v-5.7H194v-2.14h5.15v7.94a1.09,1.09,0,0,0,1.2,1.18,3.48,3.48,0,0,0,1.16-.22l.59,2a7.72,7.72,0,0,1-2.48.41C197.51,634.11,196.42,632.7,196.42,630.62Z"/><path class="cls-4" d="M204.16,626l2.15-.09h5.18v2.14h-7.33Zm2.05-.13c0-1.79,1.09-3.29,3.72-3.29a8.62,8.62,0,0,1,2.46.41l-.51,2a5,5,0,0,0-1.6-.29c-.87,0-1.31.31-1.31,1.15v8h-2.76Z"/><path class="cls-5" d="M285.9,594.87h2.65l.32,3.36c.08.8.13,1.6.23,2.43h0a23,23,0,0,1,.33-2.43l.32-2.08h1.86l.35,2.08c.15.8.26,1.6.37,2.43h.06c.1-.83.12-1.63.18-2.43l.26-3.36h2.56l-1.06,8h-3.17l-.25-2.14c-.1-.74-.18-1.49-.26-2.37h-.06c-.05.54-.1,1.2-.23,2.37l-.26,2.14h-3.1Z"/><path class="cls-5" d="M296.46,598.87c0-2.66,2.21-4.2,4.69-4.2a4.41,4.41,0,0,1,3,1.06l-1.25,1.7a2.78,2.78,0,0,0-1.61-.55,1.9,1.9,0,0,0-2,2,1.86,1.86,0,0,0,1.94,2,3.65,3.65,0,0,0,2-.67l1.09,1.73a5.33,5.33,0,0,1-3.33,1.15C298.41,603.06,296.46,601.53,296.46,598.87Z"/><path class="cls-5" d="M306.09,596.63h7.56v1.92h-7.56Z"/><path class="cls-5" d="M317.71,599.57v-5.7h-2.4v-2.14h5.15v7.94a1.09,1.09,0,0,0,1.2,1.18,3.39,3.39,0,0,0,1.15-.22l.59,2a7.67,7.67,0,0,1-2.48.41C318.8,603.06,317.71,601.65,317.71,599.57Z"/><path class="cls-5" d="M325,604.18c0-.65.42-1.15,1.22-1.53v-.07a1.55,1.55,0,0,1-.8-1.37,2,2,0,0,1,1-1.51v-.06a2.41,2.41,0,0,1-1.09-2c0-2,1.68-2.92,3.53-2.92a4.58,4.58,0,0,1,1.37.2h3.23v2H332a1.77,1.77,0,0,1,.22.83c0,1.89-1.47,2.66-3.38,2.66a4.9,4.9,0,0,1-1-.11.48.48,0,0,0-.26.46c0,.35.35.48,1.25.48h1.36c2.11,0,3.33.61,3.33,2.08,0,1.73-1.91,2.92-4.9,2.92C326.59,606.17,325,605.62,325,604.18Zm5.89-.45c0-.41-.45-.48-1.25-.48h-.8a5.65,5.65,0,0,1-1.22-.09c-.27.19-.4.35-.4.57,0,.52.74.74,1.81.74S330.86,604.18,330.86,603.73Zm-1.09-6.14a1,1,0,1,0-1.94,0c0,.77.44,1.12,1,1.12S329.77,598.36,329.77,597.59Z"/><path class="cls-5" d="M334.89,596.63h7.55v1.92h-7.55Z"/><path class="cls-5" d="M344.49,591.73h2.75v2.59l-.16,1.41h.07a3.51,3.51,0,0,1,2.53-1.06c1.76,0,2.52,1.29,2.52,3.27v4.93h-2.75v-4.58c0-.89-.22-1.28-.93-1.28a1.82,1.82,0,0,0-1.28.61v5.25h-2.75Z"/><path class="cls-5" d="M353.93,600.6c0-1.8,1.41-2.72,5.06-2.92-.1-.57-.64-.83-1.54-.83a5.58,5.58,0,0,0-2.3.67l-1-1.79a7.75,7.75,0,0,1,3.8-1.06c2.28,0,3.75,1.12,3.75,3.75v4.45H359.5l-.19-.83h-.07a4.74,4.74,0,0,1-2.72,1A2.42,2.42,0,0,1,353.93,600.6Zm5.06-.26v-1c-2,.06-2.44.51-2.44,1,0,.37.29.58.87.58A2.59,2.59,0,0,0,359,600.34Z"/><path class="cls-5" d="M365.71,599.57v-5.7H363.3v-2.14h5.16v7.94a1.09,1.09,0,0,0,1.2,1.18,3.39,3.39,0,0,0,1.15-.22l.59,2a7.67,7.67,0,0,1-2.48.41C366.79,603.06,365.71,601.65,365.71,599.57Z"/><path class="cls-5" d="M373.45,595l2.14-.09h5.19V597h-7.33Zm2.05-.13c0-1.79,1.09-3.29,3.71-3.29a8.7,8.7,0,0,1,2.47.41l-.52,2a4.85,4.85,0,0,0-1.6-.29c-.86,0-1.31.31-1.31,1.15v8H375.5Z"/><path class="cls-4" d="M457.23,625.87h2.66l.32,3.36c.08.8.13,1.6.23,2.43h0a22.94,22.94,0,0,1,.34-2.43l.32-2.08H463l.35,2.08c.14.8.26,1.6.37,2.43h.06c.1-.83.11-1.63.18-2.43l.25-3.36h2.56l-1,8h-3.17l-.26-2.14c-.09-.74-.17-1.49-.25-2.37H462c-.05.54-.09,1.2-.22,2.37l-.26,2.14h-3.1Z"/><path class="cls-4" d="M467.79,629.87c0-2.66,2.21-4.2,4.69-4.2a4.44,4.44,0,0,1,3,1.06l-1.25,1.7a2.78,2.78,0,0,0-1.61-.55,1.9,1.9,0,0,0-2,2,1.86,1.86,0,0,0,1.94,2,3.71,3.71,0,0,0,2-.67l1.09,1.73a5.37,5.37,0,0,1-3.33,1.15C469.75,634.06,467.79,632.53,467.79,629.87Z"/><path class="cls-4" d="M477.43,627.63H485v1.92h-7.55Z"/><path class="cls-4" d="M489,630.57v-5.7h-2.4v-2.14h5.16v7.94a1.09,1.09,0,0,0,1.2,1.18,3.43,3.43,0,0,0,1.15-.22l.59,2a7.67,7.67,0,0,1-2.48.41C490.13,634.06,489,632.65,489,630.57Z"/><path class="cls-4" d="M496.31,635.18c0-.65.41-1.15,1.21-1.53v-.07a1.55,1.55,0,0,1-.8-1.37,2,2,0,0,1,1-1.51v-.06a2.41,2.41,0,0,1-1.09-2c0-2,1.68-2.92,3.54-2.92a4.51,4.51,0,0,1,1.36.2h3.24v2h-1.44a1.77,1.77,0,0,1,.22.83c0,1.89-1.47,2.66-3.38,2.66a5,5,0,0,1-1-.11.48.48,0,0,0-.25.46c0,.35.35.48,1.25.48h1.36c2.11,0,3.33.61,3.33,2.08,0,1.73-1.91,2.92-4.9,2.92C497.92,637.17,496.31,636.62,496.31,635.18Zm5.89-.45c0-.41-.45-.48-1.25-.48h-.8a5.52,5.52,0,0,1-1.22-.09c-.27.19-.4.35-.4.57,0,.52.74.74,1.81.74S502.2,635.18,502.2,634.73Zm-1.09-6.14a1,1,0,0,0-1-1.09,1,1,0,0,0-1,1.09c0,.77.43,1.12,1,1.12S501.11,629.36,501.11,628.59Z"/><path class="cls-4" d="M506.23,627.63h7.55v1.92h-7.55Z"/><path class="cls-4" d="M515.63,632.3c2.71-2.21,4.69-3.9,4.69-5.28,0-.91-.57-1.35-1.47-1.35a3,3,0,0,0-1.89,1l-1.45-1.47a4.73,4.73,0,0,1,3.73-1.63c2.17,0,3.69,1.31,3.69,3.33,0,1.63-1.69,3.43-3.36,4.83.56-.06,1.33-.12,1.83-.12h2.05v2.3h-7.82Z"/><path class="cls-4" d="M525.43,627.63H533v1.92h-7.55Z"/><path class="cls-4" d="M535,622.73h2.75v2.59l-.16,1.41h.06a3.55,3.55,0,0,1,2.53-1.06c1.76,0,2.53,1.29,2.53,3.27v4.93H540v-4.58c0-.89-.23-1.28-.93-1.28a1.82,1.82,0,0,0-1.28.61v5.25H535Z"/><path class="cls-4" d="M544.47,631.6c0-1.8,1.4-2.72,5-2.92-.09-.57-.64-.83-1.53-.83a5.62,5.62,0,0,0-2.31.67l-1-1.79a7.82,7.82,0,0,1,3.81-1.06c2.27,0,3.75,1.12,3.75,3.75v4.45H550l-.2-.83h-.06a4.74,4.74,0,0,1-2.72,1A2.41,2.41,0,0,1,544.47,631.6Zm5-.26v-1c-1.95.06-2.43.51-2.43,1,0,.37.29.58.86.58A2.57,2.57,0,0,0,549.52,631.34Z"/><path class="cls-4" d="M556.24,630.57v-5.7h-2.4v-2.14H559v7.94a1.09,1.09,0,0,0,1.2,1.18,3.48,3.48,0,0,0,1.15-.22l.59,2a7.67,7.67,0,0,1-2.48.41C557.33,634.06,556.24,632.65,556.24,630.57Z"/><path class="cls-4" d="M564,626l2.14-.09h5.19V628H564Zm2-.13c0-1.79,1.09-3.29,3.72-3.29a8.62,8.62,0,0,1,2.46.41l-.51,2a4.9,4.9,0,0,0-1.6-.29c-.86,0-1.31.31-1.31,1.15v8H566Z"/><rect class="cls-1" x="490.15" y="470" width="170" height="40" rx="9.98"/><path class="cls-6" d="M517.49,486.14h1.31l.93,4.51c.14.74.25,1.41.35,2.15h.06c.1-.74.28-1.42.45-2.15l1-4h1.31l.93,4a18.43,18.43,0,0,1,.48,2.15h.07c.13-.74.21-1.41.35-2.15l.93-4.51h1.21l-1.66,7.78h-1.7l-.89-3.71q-.2-.82-.39-2.31h-.06q-.2,1.49-.39,2.31l-.86,3.71h-1.7Z"/><path class="cls-6" d="M528.24,490.05a4,4,0,0,1,4.34-4.1,4,4,0,0,1,2.83,1.13l-.66.85a3.22,3.22,0,0,0-2.13-.88,2.86,2.86,0,0,0-3,3,2.83,2.83,0,0,0,3,3,3.67,3.67,0,0,0,2.4-1l.6.87a4.68,4.68,0,0,1-3.09,1.21A3.92,3.92,0,0,1,528.24,490.05Z"/><path class="cls-6" d="M537.92,488.14h6.88v1h-6.88Z"/><path class="cls-6" d="M547.09,486.14h1l.11,1h0a1.93,1.93,0,0,1,1.77-1.22c.77,0,1.25.45,1.48,1.34.44-.83.92-1.34,1.82-1.34,1.09,0,1.73.85,1.73,2.4v5.57h-1.31v-5.47c0-.9-.26-1.37-.84-1.37s-.83.41-1.24,1.21v5.63h-1.22v-5.47c0-.9-.22-1.37-.8-1.37s-.9.41-1.28,1.21v5.63h-1.31Z"/><path class="cls-6" d="M556.72,490.05c0-2.53,1.68-4.1,3.52-4.1a3.36,3.36,0,0,1,2.34,1h0l-.07-1.42v-3h1.33v11.4h-1.09l-.11-1h0a3.74,3.74,0,0,1-2.54,1.21C558.06,494.11,556.72,492.64,556.72,490.05Zm5.82,1.79V488a2.87,2.87,0,0,0-2-.9c-1.34,0-2.43,1.18-2.43,3s.86,3,2.29,3A2.9,2.9,0,0,0,562.54,491.84Z"/><path class="cls-6" d="M566.72,488.14h6.88v1h-6.88Z"/><path class="cls-6" d="M576.51,492.82h3v-7.5h-2.29v-.86a7.35,7.35,0,0,0,2.62-.75h1v9.11h2.66v1.1h-6.93Z"/><path class="cls-6" d="M585.92,488.14h6.88v1h-6.88Z"/><path class="cls-6" d="M595.65,482.52H597v3.11l-.08,1.84h.05a3.9,3.9,0,0,1,2.9-1.52c1.84,0,2.69,1.09,2.69,3.14v4.83H601.2v-4.66c0-1.47-.51-2.16-1.78-2.16-.93,0-1.55.47-2.45,1.39v5.43h-1.32Z"/><path class="cls-6" d="M605,491.9c0-1.74,1.63-2.59,5.65-2.91a1.85,1.85,0,0,0-2.07-1.95,5.39,5.39,0,0,0-2.72.93l-.53-.9a6.86,6.86,0,0,1,3.48-1.12,2.89,2.89,0,0,1,3.17,3.2v4.77h-1.11l-.11-1.06h0a5.19,5.19,0,0,1-3.06,1.25C606.24,494.11,605,493.3,605,491.9Zm5.65,0v-2c-3.33.26-4.34.91-4.34,1.94,0,.88.8,1.23,1.7,1.23A4.28,4.28,0,0,0,610.69,491.89Z"/><path class="cls-6" d="M617.29,491.31V483.6h-2.75v-1.08h4.08v8.89a1.41,1.41,0,0,0,1.54,1.6,3.52,3.52,0,0,0,1.46-.35l.33,1a4.77,4.77,0,0,1-2.08.46C618.21,494.11,617.29,493.15,617.29,491.31Z"/><path class="cls-6" d="M624.61,486.22l2.25-.08h4.53v1.07h-6.78Zm2.22-.74a2.85,2.85,0,0,1,3.14-3.15,5.86,5.86,0,0,1,2.24.45l-.31,1a4.21,4.21,0,0,0-1.8-.37c-1.4,0-2,.79-2,2v8.48h-1.31Z"/><rect class="cls-1" x="670.08" y="470" width="230" height="40" rx="9.98"/><path class="cls-6" d="M752.85,486.14h1.09l.11,1h.05a4.16,4.16,0,0,1,2.69-1.18c2.1,0,3.22,1.55,3.22,4,0,2.64-1.67,4.19-3.54,4.19a3.68,3.68,0,0,1-2.32-1h0l.07,1.48v2.62h-1.33Zm5.8,3.78c0-1.71-.65-2.85-2.2-2.85a3.28,3.28,0,0,0-2.27,1.15v3.87a3.24,3.24,0,0,0,2.06.9C757.62,493,758.65,491.84,758.65,489.92Z"/><path class="cls-6" d="M762.32,488.14h6.88v1h-6.88Z"/><path class="cls-6" d="M771.49,486.14h1.06l.11,1h0a1.94,1.94,0,0,1,1.78-1.22c.77,0,1.25.45,1.47,1.34.45-.83.93-1.34,1.83-1.34,1.08,0,1.72.85,1.72,2.4v5.57h-1.31v-5.47c0-.9-.26-1.37-.83-1.37s-.83.41-1.25,1.21v5.63h-1.22v-5.47c0-.9-.22-1.37-.8-1.37s-.89.41-1.28,1.21v5.63h-1.31Z"/><path class="cls-6" d="M781.12,490.05c0-2.53,1.68-4.1,3.52-4.1a3.36,3.36,0,0,1,2.34,1h0l-.06-1.42v-3h1.33v11.4h-1.09l-.11-1H787a3.76,3.76,0,0,1-2.55,1.21C782.47,494.11,781.12,492.64,781.12,490.05Zm5.83,1.79V488a2.88,2.88,0,0,0-2-.9c-1.35,0-2.44,1.18-2.44,3s.87,3,2.29,3A2.93,2.93,0,0,0,787,491.84Z"/><path class="cls-6" d="M791.12,488.14H798v1h-6.88Z"/><path class="cls-6" d="M800.53,493.14c3.46-3.06,5.35-4.85,5.35-6.55,0-1.17-.71-2-2.21-2a3.52,3.52,0,0,0-2.45,1.22l-.77-.75a4.55,4.55,0,0,1,3.38-1.55c2,0,3.33,1.2,3.33,3s-1.92,3.82-4.69,6.33c.64,0,1.29-.08,1.9-.08h3.35v1.14h-7.19Z"/><rect class="cls-1" x="1090.15" y="470" width="170" height="40" rx="9.98"/><path class="cls-6" d="M1117.49,486.14h1.31l.93,4.51c.14.74.25,1.41.35,2.15h.06c.1-.74.28-1.42.45-2.15l1-4h1.31l.93,4a18.43,18.43,0,0,1,.48,2.15h.07c.12-.74.2-1.41.35-2.15l.93-4.51h1.21l-1.66,7.78h-1.7l-.89-3.71q-.19-.82-.39-2.31h-.06q-.2,1.49-.39,2.31l-.86,3.71h-1.7Z"/><path class="cls-6" d="M1128.24,490.05a4,4,0,0,1,4.34-4.1,4,4,0,0,1,2.83,1.13l-.66.85a3.22,3.22,0,0,0-2.13-.88,2.86,2.86,0,0,0-3,3,2.83,2.83,0,0,0,3,3,3.67,3.67,0,0,0,2.4-1l.6.87a4.68,4.68,0,0,1-3.09,1.21A3.92,3.92,0,0,1,1128.24,490.05Z"/><path class="cls-6" d="M1137.92,488.14h6.88v1h-6.88Z"/><path class="cls-6" d="M1147.09,486.14h1.05l.11,1h0a1.93,1.93,0,0,1,1.77-1.22c.77,0,1.25.45,1.48,1.34.44-.83.92-1.34,1.82-1.34,1.09,0,1.73.85,1.73,2.4v5.57h-1.31v-5.47c0-.9-.26-1.37-.84-1.37s-.83.41-1.24,1.21v5.63h-1.22v-5.47c0-.9-.22-1.37-.8-1.37s-.9.41-1.28,1.21v5.63h-1.31Z"/><path class="cls-6" d="M1156.72,490.05c0-2.53,1.68-4.1,3.52-4.1a3.36,3.36,0,0,1,2.34,1h0l-.07-1.42v-3h1.33v11.4h-1.09l-.11-1h-.05a3.74,3.74,0,0,1-2.54,1.21C1158.06,494.11,1156.72,492.64,1156.72,490.05Zm5.82,1.79V488a2.87,2.87,0,0,0-2-.9c-1.34,0-2.43,1.18-2.43,3s.86,3,2.29,3A2.9,2.9,0,0,0,1162.54,491.84Z"/><path class="cls-6" d="M1166.72,488.14h6.88v1h-6.88Z"/><path class="cls-6" d="M1176.51,492.82h2.94v-7.5h-2.28v-.86a7.41,7.41,0,0,0,2.62-.75h1v9.11h2.66v1.1h-6.93Z"/><path class="cls-6" d="M1185.92,488.14h6.88v1h-6.88Z"/><path class="cls-6" d="M1195.65,482.52H1197v3.11l-.08,1.84h0a3.9,3.9,0,0,1,2.9-1.52c1.84,0,2.69,1.09,2.69,3.14v4.83h-1.33v-4.66c0-1.47-.51-2.16-1.78-2.16-.93,0-1.55.47-2.45,1.39v5.43h-1.32Z"/><path class="cls-6" d="M1205,491.9c0-1.74,1.63-2.59,5.65-2.91a1.85,1.85,0,0,0-2.07-1.95,5.39,5.39,0,0,0-2.72.93l-.53-.9a6.86,6.86,0,0,1,3.48-1.12,2.89,2.89,0,0,1,3.17,3.2v4.77h-1.11l-.11-1.06h0a5.19,5.19,0,0,1-3.06,1.25C1206.24,494.11,1205,493.3,1205,491.9Zm5.65,0v-2c-3.33.26-4.34.91-4.34,1.94,0,.88.8,1.23,1.7,1.23A4.28,4.28,0,0,0,1210.69,491.89Z"/><path class="cls-6" d="M1217.29,491.31V483.6h-2.75v-1.08h4.08v8.89a1.41,1.41,0,0,0,1.54,1.6,3.52,3.52,0,0,0,1.46-.35l.33,1a4.77,4.77,0,0,1-2.08.46C1218.21,494.11,1217.29,493.15,1217.29,491.31Z"/><path class="cls-6" d="M1224.61,486.22l2.25-.08h4.53v1.07h-6.78Zm2.22-.74a2.85,2.85,0,0,1,3.14-3.15,5.86,5.86,0,0,1,2.24.45l-.31,1a4.21,4.21,0,0,0-1.8-.37c-1.4,0-2,.79-2,2v8.48h-1.31Z"/><rect class="cls-1" x="1270.08" y="470" width="170" height="40" rx="9.98"/><path class="cls-6" d="M1297.41,486.14h1.31l.93,4.51c.14.74.26,1.41.35,2.15h.07a20,20,0,0,1,.44-2.15l1-4h1.32l.93,4c.17.74.38,1.41.48,2.15h.06c.13-.74.21-1.41.35-2.15l.93-4.51h1.22l-1.67,7.78h-1.69l-.9-3.71q-.2-.82-.39-2.31h-.06c-.13,1-.26,1.76-.38,2.31l-.87,3.71h-1.69Z"/><path class="cls-6" d="M1308.16,490.05a4,4,0,0,1,4.34-4.1,4,4,0,0,1,2.83,1.13l-.65.85a3.26,3.26,0,0,0-2.13-.88,2.86,2.86,0,0,0-3,3,2.83,2.83,0,0,0,3,3,3.7,3.7,0,0,0,2.41-1l.59.87a4.68,4.68,0,0,1-3.09,1.21A3.93,3.93,0,0,1,1308.16,490.05Z"/><path class="cls-6" d="M1317.84,488.14h6.88v1h-6.88Z"/><path class="cls-6" d="M1327,486.14h1.06l.11,1h0A1.94,1.94,0,0,1,1330,486c.76,0,1.24.45,1.47,1.34.45-.83.93-1.34,1.82-1.34,1.09,0,1.73.85,1.73,2.4v5.57h-1.31v-5.47c0-.9-.26-1.37-.83-1.37s-.84.41-1.25,1.21v5.63h-1.22v-5.47c0-.9-.22-1.37-.8-1.37s-.89.41-1.28,1.21v5.63H1327Z"/><path class="cls-6" d="M1336.64,490.05c0-2.53,1.68-4.1,3.52-4.1a3.36,3.36,0,0,1,2.34,1h0l-.06-1.42v-3h1.33v11.4h-1.09l-.11-1h0a3.76,3.76,0,0,1-2.55,1.21C1338,494.11,1336.64,492.64,1336.64,490.05Zm5.83,1.79V488a2.89,2.89,0,0,0-2-.9c-1.34,0-2.43,1.18-2.43,3s.86,3,2.29,3A2.93,2.93,0,0,0,1342.47,491.84Z"/><path class="cls-6" d="M1346.64,488.14h6.88v1h-6.88Z"/><path class="cls-6" d="M1356.43,492.82h3v-7.5h-2.29v-.86a7.35,7.35,0,0,0,2.62-.75h1v9.11h2.65v1.1h-6.93Z"/><path class="cls-6" d="M1365.84,488.14h6.88v1h-6.88Z"/><path class="cls-6" d="M1375.57,482.52h1.33v3.11l-.08,1.84h0a3.9,3.9,0,0,1,2.9-1.52c1.84,0,2.69,1.09,2.69,3.14v4.83h-1.33v-4.66c0-1.47-.51-2.16-1.77-2.16a3.34,3.34,0,0,0-2.45,1.39v5.43h-1.33Z"/><path class="cls-6" d="M1385,491.9c0-1.74,1.63-2.59,5.65-2.91a1.84,1.84,0,0,0-2.06-1.95,5.43,5.43,0,0,0-2.73.93l-.52-.9a6.83,6.83,0,0,1,3.47-1.12,2.89,2.89,0,0,1,3.17,3.2v4.77h-1.11l-.11-1.06h0a5.16,5.16,0,0,1-3.05,1.25C1386.16,494.11,1385,493.3,1385,491.9Zm5.65,0v-2c-3.33.26-4.34.91-4.34,1.94,0,.88.8,1.23,1.7,1.23A4.28,4.28,0,0,0,1390.61,491.89Z"/><path class="cls-6" d="M1397.22,491.31V483.6h-2.76v-1.08h4.09v8.89a1.4,1.4,0,0,0,1.53,1.6,3.52,3.52,0,0,0,1.46-.35l.33,1a4.77,4.77,0,0,1-2.08.46C1398.13,494.11,1397.22,493.15,1397.22,491.31Z"/><path class="cls-6" d="M1404.53,486.22l2.25-.08h4.54v1.07h-6.79Zm2.22-.74a2.85,2.85,0,0,1,3.14-3.15,5.82,5.82,0,0,1,2.24.45l-.3,1a4.26,4.26,0,0,0-1.81-.37c-1.39,0-2,.79-2,2v8.48h-1.32Z"/><rect class="cls-1" x="910.12" y="470" width="170" height="40" rx="9.98"/><path class="cls-6" d="M937.45,486.14h1.31l.93,4.51c.14.74.25,1.41.35,2.15h.06c.1-.74.28-1.42.45-2.15l1-4h1.32l.92,4a18.43,18.43,0,0,1,.48,2.15h.07c.13-.74.21-1.41.35-2.15l.93-4.51h1.21l-1.66,7.78h-1.7l-.89-3.71q-.19-.82-.39-2.31h-.06q-.2,1.49-.39,2.31l-.86,3.71h-1.7Z"/><path class="cls-6" d="M948.2,490.05a4,4,0,0,1,4.34-4.1,4,4,0,0,1,2.83,1.13l-.66.85a3.22,3.22,0,0,0-2.12-.88,2.86,2.86,0,0,0-3,3,2.83,2.83,0,0,0,3,3,3.67,3.67,0,0,0,2.4-1l.6.87a4.68,4.68,0,0,1-3.09,1.21A3.92,3.92,0,0,1,948.2,490.05Z"/><path class="cls-6" d="M957.88,488.14h6.88v1h-6.88Z"/><path class="cls-6" d="M967.05,486.14h1.05l.12,1h0A1.93,1.93,0,0,1,970,486c.77,0,1.25.45,1.48,1.34.44-.83.93-1.34,1.82-1.34,1.09,0,1.73.85,1.73,2.4v5.57h-1.31v-5.47c0-.9-.26-1.37-.83-1.37s-.84.41-1.25,1.21v5.63h-1.22v-5.47c0-.9-.22-1.37-.8-1.37s-.9.41-1.28,1.21v5.63h-1.31Z"/><path class="cls-6" d="M976.68,490.05c0-2.53,1.68-4.1,3.52-4.1a3.36,3.36,0,0,1,2.34,1h0l-.06-1.42v-3h1.32v11.4h-1.08l-.12-1h0a3.78,3.78,0,0,1-2.55,1.21C978,494.11,976.68,492.64,976.68,490.05Zm5.83,1.79V488a2.89,2.89,0,0,0-2-.9c-1.34,0-2.43,1.18-2.43,3s.86,3,2.29,3A2.93,2.93,0,0,0,982.51,491.84Z"/><path class="cls-6" d="M986.68,488.14h6.88v1h-6.88Z"/><path class="cls-6" d="M996.47,492.82h2.95v-7.5h-2.29v-.86a7.35,7.35,0,0,0,2.62-.75h1v9.11h2.66v1.1h-6.93Z"/><path class="cls-6" d="M1005.88,488.14h6.88v1h-6.88Z"/><path class="cls-6" d="M1015.61,482.52h1.33v3.11l-.08,1.84h0a3.9,3.9,0,0,1,2.9-1.52c1.84,0,2.69,1.09,2.69,3.14v4.83h-1.33v-4.66c0-1.47-.51-2.16-1.78-2.16a3.34,3.34,0,0,0-2.44,1.39v5.43h-1.33Z"/><path class="cls-6" d="M1025,491.9c0-1.74,1.63-2.59,5.65-2.91a1.85,1.85,0,0,0-2.07-1.95,5.39,5.39,0,0,0-2.72.93l-.53-.9a6.86,6.86,0,0,1,3.48-1.12,2.89,2.89,0,0,1,3.17,3.2v4.77h-1.11l-.11-1.06h0a5.19,5.19,0,0,1-3.06,1.25C1026.2,494.11,1025,493.3,1025,491.9Zm5.65,0v-2c-3.33.26-4.34.91-4.34,1.94,0,.88.8,1.23,1.7,1.23A4.28,4.28,0,0,0,1030.65,491.89Z"/><path class="cls-6" d="M1037.26,491.31V483.6h-2.76v-1.08h4.08v8.89a1.41,1.41,0,0,0,1.54,1.6,3.52,3.52,0,0,0,1.46-.35l.33,1a4.77,4.77,0,0,1-2.08.46C1038.17,494.11,1037.26,493.15,1037.26,491.31Z"/><path class="cls-6" d="M1044.57,486.22l2.25-.08h4.53v1.07h-6.78Zm2.22-.74a2.85,2.85,0,0,1,3.14-3.15,5.86,5.86,0,0,1,2.24.45l-.3,1a4.26,4.26,0,0,0-1.81-.37c-1.4,0-2,.79-2,2v8.48h-1.31Z"/><path class="cls-6" d="M152.77,486.14h1.09l.11,1H154a4.18,4.18,0,0,1,2.69-1.18c2.1,0,3.22,1.55,3.22,4,0,2.64-1.67,4.19-3.54,4.19a3.68,3.68,0,0,1-2.32-1h0l.06,1.48v2.62h-1.33Zm5.8,3.78c0-1.71-.64-2.85-2.2-2.85a3.32,3.32,0,0,0-2.27,1.15v3.87a3.24,3.24,0,0,0,2.07.9C157.54,493,158.57,491.84,158.57,489.92Z"/><path class="cls-6" d="M162.24,488.14h6.89v1h-6.89Z"/><path class="cls-6" d="M171.41,486.14h1.06l.11,1h0a1.94,1.94,0,0,1,1.78-1.22c.77,0,1.25.45,1.47,1.34.45-.83.93-1.34,1.83-1.34,1.09,0,1.73.85,1.73,2.4v5.57H178.1v-5.47c0-.9-.25-1.37-.83-1.37s-.83.41-1.25,1.21v5.63h-1.21v-5.47c0-.9-.23-1.37-.8-1.37s-.9.41-1.28,1.21v5.63h-1.32Z"/><path class="cls-6" d="M181.05,490.05c0-2.53,1.68-4.1,3.52-4.1a3.34,3.34,0,0,1,2.33,1h0l-.07-1.42v-3h1.33v11.4h-1.09l-.11-1H187a3.76,3.76,0,0,1-2.54,1.21C182.39,494.11,181.05,492.64,181.05,490.05Zm5.82,1.79V488a2.87,2.87,0,0,0-2-.9c-1.35,0-2.43,1.18-2.43,3s.86,3,2.28,3A2.93,2.93,0,0,0,186.87,491.84Z"/><path class="cls-6" d="M191,488.14h6.89v1H191Z"/><path class="cls-6" d="M200.2,492.67l.67-.86a4.12,4.12,0,0,0,2.93,1.2c1.39,0,2.43-.72,2.43-1.86s-1-2-3.7-2v-1c2.42,0,3.35-.83,3.35-1.9s-.85-1.61-2.08-1.61a3.91,3.91,0,0,0-2.52,1l-.7-.83a4.93,4.93,0,0,1,3.27-1.28c1.92,0,3.37.94,3.37,2.59,0,1.23-.91,2-2.17,2.43v.07a2.81,2.81,0,0,1,2.53,2.59c0,1.81-1.67,2.91-3.7,2.91A5,5,0,0,1,200.2,492.67Z"/><path class="cls-6" d="M392.77,486.14h1.09l.11,1h0a4.18,4.18,0,0,1,2.69-1.18c2.1,0,3.22,1.55,3.22,4,0,2.64-1.67,4.19-3.54,4.19a3.68,3.68,0,0,1-2.32-1h0l.06,1.48v2.62h-1.33Zm5.8,3.78c0-1.71-.64-2.85-2.19-2.85a3.32,3.32,0,0,0-2.28,1.15v3.87a3.24,3.24,0,0,0,2.07.9C397.54,493,398.57,491.84,398.57,489.92Z"/><path class="cls-6" d="M402.25,488.14h6.88v1h-6.88Z"/><path class="cls-6" d="M411.41,486.14h1.06l.11,1h0a1.94,1.94,0,0,1,1.78-1.22c.77,0,1.25.45,1.47,1.34.45-.83.93-1.34,1.83-1.34,1.09,0,1.73.85,1.73,2.4v5.57H418.1v-5.47c0-.9-.25-1.37-.83-1.37s-.83.41-1.25,1.21v5.63h-1.21v-5.47c0-.9-.23-1.37-.8-1.37s-.9.41-1.28,1.21v5.63h-1.32Z"/><path class="cls-6" d="M421.05,490.05c0-2.53,1.68-4.1,3.52-4.1a3.32,3.32,0,0,1,2.33,1h0l-.07-1.42v-3h1.33v11.4h-1.09l-.11-1H427a3.76,3.76,0,0,1-2.54,1.21C422.39,494.11,421.05,492.64,421.05,490.05Zm5.82,1.79V488a2.87,2.87,0,0,0-2-.9c-1.35,0-2.43,1.18-2.43,3s.86,3,2.28,3A2.93,2.93,0,0,0,426.87,491.84Z"/><path class="cls-6" d="M431.05,488.14h6.88v1h-6.88Z"/><path class="cls-6" d="M440.84,492.82h2.94v-7.5h-2.29v-.86a7.48,7.48,0,0,0,2.63-.75h1v9.11h2.66v1.1h-6.93Z"/><path class="cls-4" d="M755.09,625.77h2.24l.19.73h.07a3.49,3.49,0,0,1,2.24-.93c1.94,0,3.17,1.6,3.17,4.07,0,2.75-1.67,4.32-3.41,4.32a2.52,2.52,0,0,1-1.81-.8h-.06l.12,1.22v2.21h-2.75Zm5.09,3.9c0-1.31-.4-1.85-1.18-1.85a1.51,1.51,0,0,0-1.16.57v3a1.69,1.69,0,0,0,1.09.38C759.61,631.72,760.18,631.21,760.18,629.67Z"/><path class="cls-4" d="M764.69,627.53h7.56v1.92h-7.56Z"/><path class="cls-4" d="M773.68,625.77h2.05l.19,1H776a1.75,1.75,0,0,1,1.7-1.16,1.4,1.4,0,0,1,1.34,1.28,1.8,1.8,0,0,1,1.73-1.28c1.15,0,1.79,1,1.79,2.63v5.57H780v-5.38c0-.33-.07-.48-.27-.48s-.39.19-.53.61v5.25h-2.08v-5.38c0-.33-.12-.48-.32-.48s-.34.19-.48.61v5.25h-2.6Z"/><path class="cls-4" d="M783.54,629.77c0-2.63,1.66-4.2,3.34-4.2a2.35,2.35,0,0,1,1.88.81h.06l-.13-1.16v-2.59h2.76v11.14H789.2L789,633H789a3.11,3.11,0,0,1-2.07.93C784.85,634,783.54,632.36,783.54,629.77Zm5.15,1.37V628.2a1.47,1.47,0,0,0-1.05-.38c-.68,0-1.28.51-1.28,1.92s.46,2,1.25,2A1.17,1.17,0,0,0,788.69,631.14Z"/><path class="cls-4" d="M793.49,627.53h7.56v1.92h-7.56Z"/><path class="cls-4" d="M802.9,632.2c2.7-2.21,4.69-3.91,4.69-5.28,0-.91-.58-1.35-1.47-1.35a2.94,2.94,0,0,0-1.89,1l-1.46-1.47a4.73,4.73,0,0,1,3.73-1.63c2.18,0,3.7,1.31,3.7,3.33,0,1.63-1.7,3.42-3.36,4.83.56-.06,1.32-.13,1.82-.13h2.05v2.31H802.9Z"/><path class="cls-4" d="M1120.1,625.77h2.65l.32,3.36c.08.8.13,1.6.23,2.43h0a22.94,22.94,0,0,1,.34-2.43l.32-2.08h1.86l.35,2.08c.14.8.26,1.6.37,2.43h.06c.1-.83.11-1.63.18-2.43l.25-3.36h2.56l-1.05,8h-3.17l-.26-2.15c-.09-.73-.17-1.48-.25-2.36h-.07c0,.54-.09,1.2-.22,2.36l-.26,2.15h-3.1Z"/><path class="cls-4" d="M1130.65,629.77c0-2.66,2.21-4.2,4.69-4.2a4.44,4.44,0,0,1,3,1.06l-1.25,1.7a2.79,2.79,0,0,0-1.62-.55,1.89,1.89,0,0,0-2,2,1.86,1.86,0,0,0,1.94,2,3.71,3.71,0,0,0,2-.67l1.09,1.73a5.43,5.43,0,0,1-3.33,1.15C1132.61,634,1130.65,632.42,1130.65,629.77Z"/><path class="cls-4" d="M1140.29,627.53h7.55v1.92h-7.55Z"/><path class="cls-4" d="M1149.28,625.77h2l.19,1h.06a1.76,1.76,0,0,1,1.7-1.16,1.39,1.39,0,0,1,1.34,1.28,1.81,1.81,0,0,1,1.73-1.28c1.16,0,1.8,1,1.8,2.63v5.57h-2.6v-5.38c0-.33-.06-.48-.27-.48s-.38.19-.53.61v5.25h-2.08v-5.38c0-.33-.11-.48-.32-.48s-.33.19-.48.61v5.25h-2.59Z"/><path class="cls-4" d="M1159.13,629.77c0-2.63,1.67-4.2,3.35-4.2a2.33,2.33,0,0,1,1.87.81h.07l-.13-1.16v-2.59H1167v11.14h-2.24l-.19-.74h-.07a3.11,3.11,0,0,1-2.06.93C1160.45,634,1159.13,632.36,1159.13,629.77Zm5.16,1.37V628.2a1.48,1.48,0,0,0-1.06-.38c-.67,0-1.28.51-1.28,1.92s.47,2,1.25,2A1.18,1.18,0,0,0,1164.29,631.14Z"/><path class="cls-4" d="M1169.09,627.53h7.55v1.92h-7.55Z"/><path class="cls-4" d="M1178.81,631.56h2.66v-5.25h-2.24v-1.7a7,7,0,0,0,3-1h2v7.94h2.18v2.21h-7.59Z"/><path class="cls-4" d="M1188.29,627.53h7.55v1.92h-7.55Z"/><path class="cls-4" d="M1197.89,622.63h2.75v2.59l-.16,1.41h.06a3.55,3.55,0,0,1,2.53-1.06c1.76,0,2.53,1.28,2.53,3.27v4.93h-2.75v-4.58c0-.9-.23-1.28-.93-1.28a1.82,1.82,0,0,0-1.28.61v5.25h-2.75Z"/><path class="cls-4" d="M1207.33,631.5c0-1.8,1.4-2.72,5.05-2.92-.09-.57-.64-.83-1.53-.83a5.58,5.58,0,0,0-2.31.67l-1-1.79a7.82,7.82,0,0,1,3.81-1.06c2.27,0,3.75,1.12,3.75,3.75v4.45h-2.24l-.2-.83h-.06a4.74,4.74,0,0,1-2.72,1A2.41,2.41,0,0,1,1207.33,631.5Zm5.05-.26v-1c-2,.06-2.43.51-2.43,1,0,.37.29.58.87.58A2.56,2.56,0,0,0,1212.38,631.24Z"/><path class="cls-4" d="M1219.1,630.47v-5.7h-2.4v-2.14h5.16v7.94a1.09,1.09,0,0,0,1.2,1.18,3.48,3.48,0,0,0,1.15-.22l.59,2a7.67,7.67,0,0,1-2.48.41C1220.19,634,1219.1,632.55,1219.1,630.47Z"/><path class="cls-4" d="M1226.85,625.86l2.14-.09h5.19v2.14h-7.33Zm2.05-.13c0-1.79,1.08-3.29,3.71-3.29a8.62,8.62,0,0,1,2.46.41l-.51,2a4.9,4.9,0,0,0-1.6-.29c-.86,0-1.31.31-1.31,1.15v8h-2.75Z"/><path class="cls-4" d="M1300,625.77h2.65l.32,3.36c.08.8.13,1.6.23,2.43h0a23,23,0,0,1,.33-2.43l.32-2.08h1.86l.35,2.08c.15.8.26,1.6.37,2.43h.06c.1-.83.12-1.63.18-2.43l.26-3.36h2.56l-1.06,8h-3.17l-.25-2.15c-.1-.73-.18-1.48-.26-2.36h-.06c0,.54-.1,1.2-.23,2.36l-.26,2.15h-3.1Z"/><path class="cls-4" d="M1310.58,629.77c0-2.66,2.21-4.2,4.69-4.2a4.41,4.41,0,0,1,3,1.06l-1.25,1.7a2.78,2.78,0,0,0-1.61-.55,1.9,1.9,0,0,0-2,2,1.86,1.86,0,0,0,1.94,2,3.65,3.65,0,0,0,2-.67l1.09,1.73a5.39,5.39,0,0,1-3.33,1.15C1312.53,634,1310.58,632.42,1310.58,629.77Z"/><path class="cls-4" d="M1320.21,627.53h7.56v1.92h-7.56Z"/><path class="cls-4" d="M1329.2,625.77h2l.19,1h.07a1.74,1.74,0,0,1,1.69-1.16,1.4,1.4,0,0,1,1.35,1.28,1.79,1.79,0,0,1,1.73-1.28c1.15,0,1.79,1,1.79,2.63v5.57h-2.59v-5.38c0-.33-.07-.48-.28-.48s-.38.19-.52.61v5.25h-2.08v-5.38c0-.33-.12-.48-.33-.48s-.33.19-.48.61v5.25h-2.59Z"/><path class="cls-4" d="M1339.06,629.77c0-2.63,1.66-4.2,3.34-4.2a2.33,2.33,0,0,1,1.87.81h.07l-.13-1.16v-2.59H1347v11.14h-2.24l-.19-.74h-.06a3.13,3.13,0,0,1-2.07.93C1340.37,634,1339.06,632.36,1339.06,629.77Zm5.15,1.37V628.2a1.48,1.48,0,0,0-1.06-.38c-.67,0-1.28.51-1.28,1.92s.47,2,1.25,2A1.17,1.17,0,0,0,1344.21,631.14Z"/><path class="cls-4" d="M1349,627.53h7.55v1.92H1349Z"/><path class="cls-4" d="M1358.74,631.56h2.65v-5.25h-2.24v-1.7a7,7,0,0,0,3-1h2v7.94h2.17v2.21h-7.58Z"/><path class="cls-4" d="M1368.21,627.53h7.55v1.92h-7.55Z"/><path class="cls-4" d="M1377.81,622.63h2.75v2.59l-.16,1.41h.07a3.51,3.51,0,0,1,2.52-1.06c1.77,0,2.53,1.28,2.53,3.27v4.93h-2.75v-4.58c0-.9-.22-1.28-.93-1.28a1.82,1.82,0,0,0-1.28.61v5.25h-2.75Z"/><path class="cls-4" d="M1387.25,631.5c0-1.8,1.41-2.72,5.06-2.92-.1-.57-.64-.83-1.54-.83a5.66,5.66,0,0,0-2.31.67l-1-1.79a7.82,7.82,0,0,1,3.81-1.06c2.28,0,3.75,1.12,3.75,3.75v4.45h-2.24l-.19-.83h-.07a4.74,4.74,0,0,1-2.72,1A2.42,2.42,0,0,1,1387.25,631.5Zm5.06-.26v-1c-2,.06-2.44.51-2.44,1,0,.37.29.58.87.58A2.62,2.62,0,0,0,1392.31,631.24Z"/><path class="cls-4" d="M1399,630.47v-5.7h-2.4v-2.14h5.16v7.94a1.09,1.09,0,0,0,1.2,1.18,3.39,3.39,0,0,0,1.15-.22l.59,2a7.67,7.67,0,0,1-2.48.41C1400.11,634,1399,632.55,1399,630.47Z"/><path class="cls-4" d="M1406.77,625.86l2.14-.09h5.19v2.14h-7.33Zm2-.13c0-1.79,1.09-3.29,3.71-3.29a8.7,8.7,0,0,1,2.47.41l-.52,2a4.9,4.9,0,0,0-1.6-.29c-.86,0-1.31.31-1.31,1.15v8h-2.75Z"/><path class="cls-4" d="M940.06,625.77h2.65l.32,3.36c.08.8.13,1.6.23,2.43h0a23,23,0,0,1,.33-2.43l.32-2.08h1.86l.35,2.08c.14.8.26,1.6.37,2.43h.06c.1-.83.11-1.63.18-2.43l.25-3.36h2.57l-1.06,8h-3.17l-.26-2.15c-.09-.73-.17-1.48-.25-2.36h-.07c0,.54-.09,1.2-.22,2.36l-.26,2.15h-3.1Z"/><path class="cls-4" d="M950.62,629.77c0-2.66,2.2-4.2,4.69-4.2a4.43,4.43,0,0,1,3,1.06l-1.25,1.7a2.78,2.78,0,0,0-1.61-.55,1.9,1.9,0,0,0-2,2,1.86,1.86,0,0,0,1.94,2,3.71,3.71,0,0,0,2-.67l1.09,1.73A5.41,5.41,0,0,1,955.1,634C952.57,634,950.62,632.42,950.62,629.77Z"/><path class="cls-4" d="M960.25,627.53h7.55v1.92h-7.55Z"/><path class="cls-4" d="M969.24,625.77h2l.19,1h.06a1.76,1.76,0,0,1,1.7-1.16,1.4,1.4,0,0,1,1.35,1.28,1.79,1.79,0,0,1,1.73-1.28c1.15,0,1.79,1,1.79,2.63v5.57h-2.59v-5.38c0-.33-.07-.48-.28-.48s-.38.19-.53.61v5.25h-2.08v-5.38c0-.33-.11-.48-.32-.48s-.33.19-.48.61v5.25h-2.59Z"/><path class="cls-4" d="M979.1,629.77c0-2.63,1.66-4.2,3.34-4.2a2.33,2.33,0,0,1,1.87.81h.07l-.13-1.16v-2.59H987v11.14h-2.24l-.19-.74h-.06a3.13,3.13,0,0,1-2.07.93C980.41,634,979.1,632.36,979.1,629.77Zm5.15,1.37V628.2a1.48,1.48,0,0,0-1.06-.38c-.67,0-1.28.51-1.28,1.92s.47,2,1.25,2A1.17,1.17,0,0,0,984.25,631.14Z"/><path class="cls-4" d="M989.05,627.53h7.55v1.92h-7.55Z"/><path class="cls-4" d="M998.77,631.56h2.66v-5.25h-2.24v-1.7a7,7,0,0,0,3-1h2v7.94h2.17v2.21h-7.59Z"/><path class="cls-4" d="M1008.25,627.53h7.55v1.92h-7.55Z"/><path class="cls-4" d="M1017.85,622.63h2.75v2.59l-.16,1.41h.06a3.55,3.55,0,0,1,2.53-1.06c1.76,0,2.53,1.28,2.53,3.27v4.93h-2.75v-4.58c0-.9-.22-1.28-.93-1.28a1.82,1.82,0,0,0-1.28.61v5.25h-2.75Z"/><path class="cls-4" d="M1027.29,631.5c0-1.8,1.4-2.72,5.06-2.92-.1-.57-.65-.83-1.54-.83a5.62,5.62,0,0,0-2.31.67l-1-1.79a7.82,7.82,0,0,1,3.81-1.06c2.28,0,3.75,1.12,3.75,3.75v4.45h-2.24l-.19-.83h-.07a4.74,4.74,0,0,1-2.72,1A2.42,2.42,0,0,1,1027.29,631.5Zm5.06-.26v-1c-2,.06-2.44.51-2.44,1,0,.37.29.58.87.58A2.62,2.62,0,0,0,1032.35,631.24Z"/><path class="cls-4" d="M1039.06,630.47v-5.7h-2.4v-2.14h5.16v7.94a1.09,1.09,0,0,0,1.2,1.18,3.43,3.43,0,0,0,1.15-.22l.59,2a7.67,7.67,0,0,1-2.48.41C1040.15,634,1039.06,632.55,1039.06,630.47Z"/><path class="cls-4" d="M1046.81,625.86l2.14-.09h5.19v2.14h-7.33Zm2-.13c0-1.79,1.08-3.29,3.71-3.29a8.62,8.62,0,0,1,2.46.41l-.51,2a4.9,4.9,0,0,0-1.6-.29c-.86,0-1.31.31-1.31,1.15v8h-2.75Z"/><text class="cls-7" transform="translate(306 396)"><tspan class="cls-8">h</tspan><tspan x="6.61" y="0">ttps://</tspan><tspan class="cls-9" x="36.85" y="0">ww</tspan><tspan class="cls-10" x="54.8" y="0">w</tspan><tspan x="63.17" y="0">.</tspan><tspan class="cls-11" x="65.65" y="0">y</tspan><tspan x="71.18" y="0">outub</tspan><tspan class="cls-12" x="101.79" y="0">e</tspan><tspan class="cls-13" x="107.66" y="0">.</tspan><tspan class="cls-14" x="110.15" y="0">c</tspan><tspan x="115.45" y="0">om/</tspan><tspan class="cls-15" x="136.16" y="0">wa</tspan><tspan class="cls-16" x="150.68" y="0">t</tspan><tspan x="154.58" y="0">ch?v=n</tspan><tspan class="cls-17" x="191.07" y="0">D</tspan><tspan x="199.11" y="0">oshflh25Q</tspan></text><path class="cls-5" d="M1451,95.65h7.56v1.92H1451Zm0,3.84h7.56v1.92H1451Z"/><path class="cls-5" d="M1470.35,101.6H1473V96.35h-2.24V94.66a7.07,7.07,0,0,0,3-1h2v7.94h2.18v2.21h-7.59Z"/><path class="cls-5" d="M1479.63,102.24c2.71-2.21,4.69-3.9,4.69-5.28,0-.91-.57-1.34-1.47-1.34a3,3,0,0,0-1.89,1l-1.46-1.48a4.75,4.75,0,0,1,3.73-1.63c2.18,0,3.7,1.31,3.7,3.33,0,1.63-1.7,3.43-3.36,4.83.56-.06,1.33-.12,1.83-.12h2v2.3h-7.81Z"/><path class="cls-5" d="M1451,145.65h7.56v1.92H1451Zm0,3.84h7.56v1.92H1451Z"/><path class="cls-5" d="M1470.35,151.6H1473v-5.25h-2.24v-1.69a7.07,7.07,0,0,0,3-1h2v7.94h2.18v2.21h-7.59Z"/><path class="cls-5" d="M1479.63,152.24c2.71-2.21,4.69-3.9,4.69-5.28,0-.91-.57-1.34-1.47-1.34a3,3,0,0,0-1.89,1l-1.46-1.48a4.75,4.75,0,0,1,3.73-1.63c2.18,0,3.7,1.31,3.7,3.33,0,1.63-1.7,3.43-3.36,4.83.56-.06,1.33-.12,1.83-.12h2v2.3h-7.81Z"/><path class="cls-5" d="M1451,195.65h7.56v1.92H1451Zm0,3.84h7.56v1.92H1451Z"/><path class="cls-5" d="M1470.35,201.6H1473v-5.25h-2.24v-1.69a7.07,7.07,0,0,0,3-1h2v7.94h2.18v2.21h-7.59Z"/><path class="cls-5" d="M1479.63,202.24c2.71-2.21,4.69-3.9,4.69-5.28,0-.91-.57-1.34-1.47-1.34a3,3,0,0,0-1.89,1l-1.46-1.48a4.75,4.75,0,0,1,3.73-1.63c2.18,0,3.7,1.31,3.7,3.33,0,1.63-1.7,3.43-3.36,4.83.56-.06,1.33-.12,1.83-.12h2v2.3h-7.81Z"/><path class="cls-5" d="M1451,245.65h7.56v1.92H1451Zm0,3.84h7.56v1.92H1451Z"/><path class="cls-5" d="M1470.35,251.6H1473v-5.25h-2.24v-1.69a7.07,7.07,0,0,0,3-1h2v7.94h2.18v2.21h-7.59Z"/><path class="cls-5" d="M1479.63,252.24c2.71-2.21,4.69-3.9,4.69-5.28,0-.91-.57-1.34-1.47-1.34a3,3,0,0,0-1.89,1l-1.46-1.48a4.75,4.75,0,0,1,3.73-1.63c2.18,0,3.7,1.31,3.7,3.33,0,1.63-1.7,3.43-3.36,4.83.56-.06,1.33-.12,1.83-.12h2v2.3h-7.81Z"/><path class="cls-5" d="M17.77,559.43a40,40,0,0,1,5.58-1.51v1.3a32.48,32.48,0,0,0-4.83,1.44c-3.24,1.26-3.6,2.63-3.6,3.67,0,1.91,1.26,2.66,2.92,2.66,1.26,0,2-.46,4.25-2.08l.72-.54.5.75-1,1c-2.16,2.16-3.39,3.16-5.58,3.16-2.63,0-4.83-1.51-4.83-4.5C11.86,562.82,12.94,561.2,17.77,559.43Zm4.14,6.12v-8.2c0-3.53-1-4.39-3.39-4.39a8.39,8.39,0,0,0-3.24.64l1.44-1.11-.93,3.09c-.33,1-.87,1.62-1.84,1.62a1.47,1.47,0,0,1-1.62-1.44c.69-2.73,3.35-4.43,7-4.43s5.51,1.7,5.51,6.23v7.63c0,1.62.5,2.2,1.33,2.2a1.76,1.76,0,0,0,1.4-.79l.72.79a3.35,3.35,0,0,1-3.06,1.84C23.2,569.23,21.91,567.79,21.91,565.55Z"/><path class="cls-5" d="M36.74,567.53a4.13,4.13,0,0,0,2.45-1l.83,1a5.16,5.16,0,0,1-4.18,1.83c-2.48,0-4-1.29-4-4.06,0-.87,0-1.62,0-3v-8.57h-3v-1.54l4.46-.58-1.44,1.19,1.08-5.83H35l-.29,6.3v11.66C34.72,566.74,35.52,567.53,36.74,567.53Zm2.95-15.73v1.87H33.28V551.8Z"/><path class="cls-5" d="M52.69,568.87c.07-1.62.11-5.33.11-7.56v-1.7c0-2,0-3.09-.11-4.53l-2.88-.33V553.5l4.89-2.17.54.37.44,4.17v5.44c0,2.23,0,5.94.1,7.56Zm5.61-1.26v1.26H50v-1.26l4-.72h.72ZM66.47,558v3.32c0,2.3,0,5.94.11,7.56H63.49c.07-1.62.1-5.26.1-7.56v-3c0-3.35-.86-4.42-3-4.42-1.76,0-3.17.72-5.18,2.48h-.76v-1.62h1.84l-1.55.65c1.69-2.27,4.46-4,7-4C65,551.33,66.47,553.24,66.47,558Zm-1,8.9,3.6.72v1.26H60.82v-1.26l4-.72Zm11.77-9.29v3.71c0,2.3,0,5.94.11,7.56h-3.1c.08-1.62.11-5.26.11-7.56v-3.1c0-3.38-.93-4.35-3.06-4.35-1.62,0-3.13.64-5.14,2.48h-.87v-1.26h2l-1.66.29a8.82,8.82,0,0,1,7.09-4C75.58,551.33,77.27,553.13,77.27,557.6Zm-1,9.29,3.6.72v1.26H71.62v-1.26l4-.72Z"/><path class="cls-5" d="M85,568.87c.07-1.62.11-5.33.11-7.56v-1.7c0-2,0-3.09-.11-4.53l-3-.33V553.5l5.43-2.17.54.37-.1,4.85v4.76c0,2.23,0,5.94.1,7.56Zm5.54-1.26v1.26H82.24v-1.26l4-.72h.72ZM84.08,545a2.38,2.38,0,1,1,2.38,2.27A2.26,2.26,0,0,1,84.08,545Z"/><path class="cls-5" d="M95.82,568.87c.07-1.62.1-5.33.1-7.56v-1.7c0-2,0-3.09-.1-4.53l-2.88-.33V553.5l4.89-2.17.54.37.43,4.17v5.44c0,2.23,0,5.94.11,7.56Zm5.61-1.26v1.26H93.15v-1.26l4-.72h.72Zm8.31-9.62v3.32c0,2.3,0,5.94.11,7.56h-3.09c.07-1.62.11-5.26.11-7.56v-3c0-3.35-.87-4.42-3-4.42-1.8,0-3.27.72-5.33,2.48h-.75v-1.62h1.83l-1.54.65c1.69-2.27,4.57-4,7.12-4C108.27,551.33,109.74,553.24,109.74,558Zm-1,8.9,3.6.72v1.26h-8.28v-1.26l4-.72Z"/><path class="cls-5" d="M114.9,558.68h8.27V561H114.9Z"/><path class="cls-5" d="M127.78,553.78l-3.52-.61V551.8h8.13v1.37l-3.89.61Zm11.38-2,5.32,14.08h-.79L148,551.8h2l-5.87,17.28H142.9c-3.49-8.93-4.43-11.84-5.33-14.68h1.3l-5.47,14.68h-1.26l-6.45-17.28h3.25l4.78,14.08h-.79l5.15-14.08Zm-4.47,1.37V551.8h7.92v1.37l-3.42.61h-.72Zm13.39.61-3.34-.61V551.8h6.58v1.37l-2.52.61Z"/><path class="cls-5" d="M155.68,568.87c.07-1.62.11-5.33.11-7.56v-1.7c0-2,0-3.09-.11-4.53l-3-.33V553.5l5.44-2.17.54.37-.11,4.85v4.76c0,2.23,0,5.94.11,7.56Zm5.55-1.26v1.26H153v-1.26l4-.72h.72ZM154.78,545a2.38,2.38,0,1,1,2.38,2.27A2.27,2.27,0,0,1,154.78,545Z"/><path class="cls-5" d="M172.17,567.35c1.84,0,3.1-.79,4.75-2.91l.33,1c-1.37,2.45-3.06,3.92-5.87,3.92-4.39,0-7.34-3.63-7.34-8.85,0-5.47,3.23-9.15,7.66-9.15,2.05,0,3.82.83,5.69,3.64l-.36.94c-2.09-2-3.53-2.59-4.9-2.59-2.7,0-5,2.15-5,7.09C167.1,565.19,169.25,567.35,172.17,567.35Zm10,.26v1.26l-5.51.36-.36-3.68V555l.11-.47v-9.07l-3.1-.36v-1.26l5.51-1.62.5.29-.14,5.11v21.24l-.58-1.84Z"/><path class="cls-5" d="M191,567.53a4.13,4.13,0,0,0,2.45-1l.83,1a5.16,5.16,0,0,1-4.18,1.83c-2.48,0-4-1.29-4-4.06,0-.87,0-1.62,0-3v-8.57h-3v-1.54l4.47-.58-1.44,1.19,1.08-5.83h2.08l-.28,6.3v11.66C189,566.74,189.74,567.53,191,567.53Zm2.95-15.73v1.87h-6.4V551.8Z"/><path class="cls-5" d="M198.23,545.47l-3-.36v-1.26l5.4-1.62.5.29-.14,5.11v7.63l.1.47v5.58c0,2.23,0,5.94.11,7.56h-3.09c.07-1.62.1-5.33.1-7.56Zm5.47,22.14v1.26h-8.27v-1.26l4-.72h.72Zm8.5-9.62v3.32c0,2.3,0,5.94.11,7.56h-3.1c.07-1.62.11-5.26.11-7.56v-3c0-3.35-.86-4.42-3-4.42-1.8,0-3.28.64-5.33,2.48h-.76v-1.62h1.84l-1.62.65c1.69-2.27,4.64-4,7.2-4C210.72,551.33,212.2,553.24,212.2,558Zm-1,8.9,3.6.72v1.26h-8.28v-1.26l4-.72Z"/><path class="cls-5" d="M233.3,557.46a6.08,6.08,0,0,0,5.07-2.56l.61.25a7,7,0,0,1-13.57-2.59c0-4.46,3.1-7.45,7.63-7.45s7.42,3.63,7.42,9.36c0,6.84-3.64,12.92-13,15.11l-.36-1.33c7.66-2.52,10.25-6.58,10.25-13.13,0-5.84-1.8-8.39-4.5-8.39-2.37,0-4.39,1.87-4.39,5.51S230.6,557.46,233.3,557.46Z"/><path class="cls-5" d="M251.19,557.46a6.08,6.08,0,0,0,5.07-2.56l.62.25a6.83,6.83,0,0,1-6.59,4.46,6.74,6.74,0,0,1-7-7.05c0-4.46,3.09-7.45,7.63-7.45s7.41,3.63,7.41,9.36c0,6.84-3.63,12.92-13,15.11l-.36-1.33c7.66-2.52,10.26-6.58,10.26-13.13,0-5.84-1.8-8.39-4.5-8.39-2.38,0-4.4,1.87-4.4,5.51S248.49,557.46,251.19,557.46Z"/><path class="cls-5" d="M261.92,566.56c1.91-1.87,3.78-3.81,5.32-5.43,3.6-3.78,5.22-6.77,5.22-9.58s-1.72-4.82-4.35-4.82a9.37,9.37,0,0,0-3.67.79l2-1.3-.86,3.17c-.47,1.73-1,2.41-2,2.41a2,2,0,0,1-1.8-1.15c.39-3.78,3.6-5.54,7.2-5.54,4.6,0,6.62,2.52,6.62,6.12,0,3.13-1.55,5.58-7.06,11-1.15,1.15-2.87,2.8-4.67,4.5l-.44-.72H276.6v2.88H261.92Z"/><path class="cls-5" d="M288.52,576.24v1.26h-9.21v-1.26l4.06-.72h.72Zm-6.19-16.63c0-2,0-3.09-.11-4.53l-2.88-.33V553.5l4.9-2.17.54.37.29,3,.14.08v11.23l-.11.21v3.6c0,2.52,0,5.11.11,7.63h-3q.11-3.78.11-7.55Zm7.34-6.29c-1.33,0-3.13.64-5.76,3.2l-.32-.65c2.09-3.17,4.43-4.54,6.87-4.54,3.82,0,6.84,3.39,6.84,8.93s-3.16,9.07-7.38,9.07c-2.19,0-4.42-1-6.33-4.75l.32-.57c1.87,2.37,3.6,3.34,5.37,3.34,2.73,0,5-2.12,5-6.76S292.34,553.32,289.67,553.32Z"/><path class="cls-5" d="M302.45,567l3.39.62v1.26H298.6v-1.26l3.1-.62Zm.15-13.21-3.75-.61V551.8h7.92v1.37l-3.42.61Zm-3.1,15.09,7.56-9.29,1.22.83-6.58,8.46Zm3.82-17.07,5.07,7.31,6.84,9.76h-3.31l-5.33-7.67-6.44-9.4Zm12.34,0-7.48,9.11L307,560l6.41-8.17Zm-2.88,15.09,4,.72v1.26h-8.67v-1.26l4-.72Zm-.25-13.14-3-.58V551.8h6.77v1.37l-3,.58Z"/><path class="cls-5" d="M333.09,559.43a40,40,0,0,1,5.58-1.51v1.3a32.48,32.48,0,0,0-4.83,1.44c-3.24,1.26-3.6,2.63-3.6,3.67,0,1.91,1.26,2.66,2.92,2.66,1.26,0,2-.46,4.25-2.08l.72-.54.5.75-1,1c-2.16,2.16-3.39,3.16-5.58,3.16-2.63,0-4.82-1.51-4.82-4.5C327.19,562.82,328.26,561.2,333.09,559.43Zm4.14,6.12v-8.2c0-3.53-1-4.39-3.39-4.39a8.39,8.39,0,0,0-3.24.64l1.44-1.11-.93,3.09c-.33,1-.87,1.62-1.84,1.62a1.47,1.47,0,0,1-1.62-1.44c.69-2.73,3.35-4.43,7-4.43s5.51,1.7,5.51,6.23v7.63c0,1.62.5,2.2,1.33,2.2a1.76,1.76,0,0,0,1.4-.79l.72.79a3.35,3.35,0,0,1-3.06,1.84C338.52,569.23,337.23,567.79,337.23,565.55Z"/><path class="cls-5" d="M347.78,568.87c.07-1.62.1-5.33.1-7.56v-1.7c0-2,0-3.09-.1-4.53l-2.88-.33V553.5l4.89-2.17.54.37.43,4.17v5.44c0,2.23,0,5.94.11,7.56Zm5.61-1.26v1.26h-8.28v-1.26l4-.72h.72Zm8.32-9.62v3.32c0,2.3,0,5.94.11,7.56h-3.1c.07-1.62.11-5.26.11-7.56v-3c0-3.35-.87-4.42-3-4.42-1.8,0-3.27.72-5.32,2.48h-.76v-1.62h1.84l-1.55.65c1.69-2.27,4.57-4,7.13-4C360.23,551.33,361.71,553.24,361.71,558Zm-1,8.9,3.6.72v1.26h-8.27v-1.26l4-.72Z"/><path class="cls-5" d="M375.21,567.35c1.83,0,3.09-.79,4.75-2.91l.32,1c-1.37,2.45-3.06,3.92-5.86,3.92-4.4,0-7.35-3.63-7.35-8.85,0-5.47,3.24-9.15,7.67-9.15,2.05,0,3.82.83,5.69,3.64l-.36.94c-2.09-2-3.53-2.59-4.9-2.59-2.7,0-5,2.15-5,7.09C370.13,565.19,372.29,567.35,375.21,567.35Zm10,.26v1.26l-5.5.36-.36-3.68V555l.1-.47v-9.07l-3.09-.36v-1.26l5.51-1.62.5.29-.14,5.11v21.24l-.58-1.84Z"/><path class="cls-5" d="M400.44,562.49c0,3.21.94,4.32,2.92,4.32a7.94,7.94,0,0,0,5.51-2.7h.75V566h-1.83l1.26-.54c-2.06,2.77-4.5,3.92-6.84,3.92-2.88,0-4.68-1.72-4.65-6.48l.11-9.5.76.69-3.35-.72v-1.26l5.18-.47.36.36-.18,5Zm8.57,6.66-.5-4.21.1-11.59.76.69-3.35-.72v-1.26l5.11-.47.36.36-.1,5v10.76l-.87-.86,3.35.72v1.26Z"/><path class="cls-5" d="M425.25,576.24v1.26H416v-1.26l4.07-.72h.72Zm-6.19-16.63c0-2,0-3.09-.11-4.53l-2.88-.33V553.5l4.89-2.17.54.37.29,3,.15.08v11.23l-.11.21v3.6c0,2.52,0,5.11.11,7.63h-3q.1-3.78.11-7.55Zm7.34-6.29c-1.33,0-3.13.64-5.76,3.2l-.32-.65c2.08-3.17,4.42-4.54,6.87-4.54,3.82,0,6.84,3.39,6.84,8.93s-3.17,9.07-7.38,9.07c-2.2,0-4.43-1-6.33-4.75l.32-.57c1.87,2.37,3.6,3.34,5.36,3.34,2.74,0,5-2.12,5-6.76S429.06,553.32,426.4,553.32Z"/><path class="cls-5" d="M480.61,575.06l-.9.75a23,23,0,0,1,0-33.91l.9.76c-4.24,6.19-5.54,10.44-5.54,16.2S476.37,568.87,480.61,575.06Z"/><path class="cls-5" d="M487.92,542.23l.51.29-.15,5.11v13.68q0,3.78.11,7.56h-3.1c.08-2.52.11-5,.11-7.56V545.47l-3-.36v-1.26Zm3.35,25.38v1.26h-8.86v-1.26l4.07-.72h.72Z"/><path class="cls-5" d="M506.78,572.18c0-1.62-1-2.85-3.63-2.85H498.9a14.69,14.69,0,0,1-1.8-.1v-.11c-1.83-.4-2.77-1.33-2.77-2.85,0-1.26.83-2.62,3.28-4.75l.79.54c-1.08,1.15-1.55,2-1.55,3s.4,1.62,2.09,1.62h4.75c3.85,0,5.69,1.69,5.69,4.6,0,3.1-3,6.19-8.79,6.19-5.18,0-7.45-1.8-7.45-4.39,0-1.76,1.12-3.09,4.75-4.64l.18.22c-1.44,1.4-2,2.48-2,3.88,0,2.38,1.83,3.31,4.64,3.31C504.66,575.88,506.78,574.23,506.78,572.18Zm-6.33-20.85c3.67,0,6.41,1.95,6.41,5.91,0,3.81-2.81,5.9-6.45,5.9s-6.44-1.94-6.44-5.9S496.78,551.33,500.45,551.33Zm-3.67,5.94c0,2.63,1.29,4.43,3.53,4.43s3.74-1.91,3.74-4.57-1.3-4.35-3.57-4.35S496.78,554.65,496.78,557.27ZM509,551.33l.54.37v2.23h-5.3v-1Z"/><path class="cls-5" d="M511.29,542.66l.9-.76a23,23,0,0,1,0,33.91l-.9-.75c4.24-6.19,5.54-10.44,5.54-16.2S515.53,548.85,511.29,542.66Z"/><path class="cls-5" d="M18.47,421.57a38.68,38.68,0,0,1,5.58-1.51v1.29a33.56,33.56,0,0,0-4.82,1.44c-3.24,1.26-3.6,2.63-3.6,3.67,0,1.91,1.26,2.67,2.91,2.67,1.26,0,2-.47,4.25-2.09l.72-.54.5.76-1,1c-2.16,2.16-3.38,3.17-5.58,3.17-2.63,0-4.82-1.51-4.82-4.5C12.57,425,13.65,423.33,18.47,421.57Zm4.14,6.12v-8.21c0-3.53-1-4.39-3.38-4.39a8.37,8.37,0,0,0-3.24.65l1.44-1.12-.94,3.1c-.32,1-.86,1.62-1.84,1.62A1.48,1.48,0,0,1,13,417.9c.69-2.74,3.35-4.43,7-4.43s5.51,1.69,5.51,6.23v7.63c0,1.62.5,2.19,1.33,2.19a1.76,1.76,0,0,0,1.4-.79l.72.79a3.35,3.35,0,0,1-3.05,1.84C23.9,431.36,22.61,429.92,22.61,427.69Z"/><path class="cls-5" d="M37.44,429.67a4.15,4.15,0,0,0,2.45-1l.83,1a5.16,5.16,0,0,1-4.18,1.84c-2.48,0-4-1.3-4-4.07,0-.86,0-1.62,0-3v-8.57h-3v-1.55l4.47-.57-1.44,1.18L33.63,409h2.08l-.28,6.3V427C35.43,428.88,36.22,429.67,37.44,429.67Zm3-15.73v1.87H34v-1.87Z"/><path class="cls-5" d="M53.39,431c.07-1.62.11-5.33.11-7.56v-1.69c0-2,0-3.1-.11-4.54l-2.88-.32v-1.26l4.9-2.16.54.36.43,4.18v5.43c0,2.23,0,5.94.11,7.56ZM59,429.74V431H50.73v-1.26l4-.72h.72Zm8.17-9.61v3.31c0,2.31,0,5.94.1,7.56H64.19c.07-1.62.11-5.25.11-7.56v-3c0-3.35-.87-4.43-3-4.43-1.76,0-3.16.72-5.18,2.48h-.76v-1.62h1.84l-1.55.65c1.69-2.27,4.47-4,7-4C65.7,413.47,67.18,415.38,67.18,420.13Zm-1,8.89,3.6.72V431H61.52v-1.26l4-.72ZM78,419.73v3.71c0,2.31,0,5.94.1,7.56H75c.07-1.62.11-5.25.11-7.56v-3.09C75.1,417,74.16,416,72,416c-1.62,0-3.14.65-5.15,2.48H66v-1.26h2l-1.66.29a8.83,8.83,0,0,1,7.09-4C76.28,413.47,78,415.27,78,419.73ZM77,429l3.6.72V431H72.32v-1.26l4-.72Z"/><path class="cls-5" d="M85.68,431c.07-1.62.11-5.33.11-7.56v-1.69c0-2,0-3.1-.11-4.54l-3-.32v-1.26l5.44-2.16.54.36-.11,4.86v4.75c0,2.23,0,5.94.11,7.56Zm5.55-1.26V431H83v-1.26l4-.72h.72Zm-6.45-22.61a2.38,2.38,0,1,1,2.38,2.27A2.24,2.24,0,0,1,84.78,407.13Z"/><path class="cls-5" d="M96.52,431c.07-1.62.1-5.33.1-7.56v-1.69c0-2,0-3.1-.1-4.54l-2.88-.32v-1.26l4.89-2.16.54.36L99.5,418v5.43c0,2.23,0,5.94.11,7.56Zm5.61-1.26V431H93.85v-1.26l4-.72h.72Zm8.32-9.61v3.31c0,2.31,0,5.94.11,7.56h-3.1c.07-1.62.11-5.25.11-7.56v-3c0-3.35-.87-4.43-3-4.43-1.8,0-3.27.72-5.32,2.48h-.76v-1.62h1.84l-1.55.65c1.69-2.27,4.57-4,7.13-4C109,413.47,110.45,415.38,110.45,420.13Zm-1,8.89,3.59.72V431H104.8v-1.26l4-.72Z"/><path class="cls-5" d="M115.6,420.81h8.28v2.31H115.6Z"/><path class="cls-5" d="M128.48,415.92l-3.52-.61v-1.37h8.13v1.37l-3.89.61Zm11.38-2L145.19,428h-.79l4.31-14.07h2l-5.87,17.28H143.6c-3.49-8.93-4.42-11.85-5.32-14.69h1.29l-5.47,14.69h-1.26l-6.44-17.28h3.24L134.42,428h-.79l5.15-14.07Zm-4.46,1.37v-1.37h7.92v1.37l-3.42.61h-.72Zm13.39.61-3.35-.61v-1.37H152v1.37l-2.52.61Z"/><path class="cls-5" d="M156.38,431c.08-1.62.11-5.33.11-7.56v-1.69c0-2,0-3.1-.11-4.54l-2.95-.32v-1.26l5.44-2.16.54.36-.11,4.86v4.75c0,2.23,0,5.94.11,7.56Zm5.55-1.26V431h-8.28v-1.26l4-.72h.72Zm-6.45-22.61a2.38,2.38,0,1,1,2.38,2.27A2.24,2.24,0,0,1,155.48,407.13Z"/><path class="cls-5" d="M172.87,429.49c1.84,0,3.1-.79,4.75-2.92l.33,1c-1.37,2.45-3.06,3.93-5.87,3.93-4.39,0-7.34-3.64-7.34-8.86,0-5.47,3.24-9.14,7.66-9.14,2.06,0,3.82.83,5.69,3.64l-.36.93c-2.09-2-3.53-2.59-4.89-2.59-2.7,0-5,2.16-5,7.09S170,429.49,172.87,429.49Zm10,.25V431l-5.51.36-.36-3.67V417.14l.11-.47V407.6l-3.1-.36V406l5.51-1.62.51.29-.15,5.11V431l-.57-1.84Z"/><path class="cls-5" d="M191.66,429.67a4.11,4.11,0,0,0,2.45-1l.83,1a5.16,5.16,0,0,1-4.18,1.84c-2.48,0-4-1.3-4-4.07,0-.86,0-1.62,0-3v-8.57h-3v-1.55l4.47-.57-1.44,1.18,1.08-5.83h2.09l-.29,6.3V427C189.65,428.88,190.44,429.67,191.66,429.67Zm3-15.73v1.87h-6.4v-1.87Z"/><path class="cls-5" d="M198.94,407.6l-3-.36V406l5.4-1.62.5.29-.14,5.11v7.63l.11.47v5.58c0,2.23,0,5.94.1,7.56h-3.09c.07-1.62.11-5.33.11-7.56Zm5.47,22.14V431h-8.28v-1.26l4-.72h.72Zm8.49-9.61v3.31c0,2.31,0,5.94.11,7.56h-3.1c.08-1.62.11-5.25.11-7.56v-3c0-3.35-.86-4.43-3-4.43-1.8,0-3.28.65-5.33,2.48h-.75v-1.62h1.83l-1.62.65c1.69-2.27,4.64-4,7.2-4C211.43,413.47,212.9,415.38,212.9,420.13Zm-1,8.89,3.6.72V431h-8.28v-1.26l4-.72Z"/><path class="cls-5" d="M239.83,409.51l.61,1.08H226.87v-2.88h14.8v1.8L233.1,431h-2.84l-.36-.36Z"/><path class="cls-5" d="M256.39,424.27c0-3.82-1.73-5.4-4.25-5.4a6.75,6.75,0,0,0-5.07,2.12l-.62-.5a7.8,7.8,0,0,1,6.41-3.78c3.89,0,6.59,2.7,6.59,7,0,5.15-3.13,7.74-7.31,7.74-4.78,0-7.74-3.75-7.74-10.26,0-7,4.75-12.92,13.68-14l.22,1.12c-7.67,1.87-10.8,5.76-10.8,12.38,0,6.19,1.8,9.11,4.71,9.11C254.77,429.85,256.39,428,256.39,424.27Z"/><path class="cls-5" d="M268.13,419.23l1.55.5c-2.88,1.62-4.36,2.95-4.36,5.65a4.39,4.39,0,0,0,4.61,4.5,4.17,4.17,0,0,0,4.28-4.35c0-2.12-1.33-3.42-5.58-5.44-3.81-1.8-5.4-4.1-5.4-6.87,0-3.75,3-6,6.66-6s6.12,2.31,6.12,5.58c0,1.8-1.12,4.18-5.15,6.27l-1.37-.51c3-2,3.93-3.42,3.93-5.69s-1.3-4-3.6-4A3.66,3.66,0,0,0,266,412.5c0,2,1,3.81,5.14,5.72s6,3.71,6,7.13c0,3.6-3.21,6.12-7.27,6.12-4.29,0-7.42-2-7.42-5.87C262.44,422.83,264.42,421,268.13,419.23Z"/><path class="cls-5" d="M289.22,438.38v1.26H280v-1.26l4.06-.72h.72ZM283,421.75c0-2,0-3.1-.11-4.54l-2.88-.32v-1.26l4.9-2.16.54.36.29,3.06.14.07v11.23l-.11.22V432c0,2.52,0,5.11.11,7.63h-3q.1-3.78.11-7.56Zm7.34-6.3c-1.33,0-3.13.65-5.76,3.2l-.32-.64c2.09-3.17,4.43-4.54,6.88-4.54,3.81,0,6.84,3.38,6.84,8.93s-3.17,9.07-7.38,9.07c-2.2,0-4.43-1-6.34-4.75l.32-.58c1.88,2.38,3.6,3.35,5.37,3.35,2.73,0,5-2.13,5-6.77S293,415.45,290.37,415.45Z"/><path class="cls-5" d="M303.16,429.13l3.38.61V431H299.3v-1.26l3.1-.61Zm.14-13.21-3.74-.61v-1.37h7.92v1.37l-3.42.61ZM300.2,431l7.56-9.29,1.23.83L302.4,431ZM304,413.94l5.07,7.31,6.84,9.75h-3.31l-5.33-7.67-6.44-9.39Zm12.35,0-7.49,9.1-1.19-.93,6.41-8.17ZM313.49,429l4,.72V431h-8.68v-1.26l4-.72Zm-.26-13.14-3-.57v-1.37H317v1.37l-3,.57Z"/><path class="cls-5" d="M333.79,421.57a38.68,38.68,0,0,1,5.58-1.51v1.29a33.56,33.56,0,0,0-4.82,1.44c-3.24,1.26-3.6,2.63-3.6,3.67,0,1.91,1.26,2.67,2.91,2.67,1.26,0,2-.47,4.25-2.09l.72-.54.5.76-1,1c-2.16,2.16-3.38,3.17-5.58,3.17-2.63,0-4.82-1.51-4.82-4.5C327.89,425,329,423.33,333.79,421.57Zm4.14,6.12v-8.21c0-3.53-1-4.39-3.38-4.39a8.37,8.37,0,0,0-3.24.65l1.44-1.12-.94,3.1c-.32,1-.86,1.62-1.84,1.62a1.46,1.46,0,0,1-1.61-1.44c.68-2.74,3.34-4.43,6.94-4.43s5.51,1.69,5.51,6.23v7.63c0,1.62.5,2.19,1.33,2.19a1.76,1.76,0,0,0,1.4-.79l.73.79a3.37,3.37,0,0,1-3.06,1.84C339.23,431.36,337.93,429.92,337.93,427.69Z"/><path class="cls-5" d="M348.48,431c.07-1.62.11-5.33.11-7.56v-1.69c0-2,0-3.1-.11-4.54l-2.88-.32v-1.26l4.89-2.16.54.36.44,4.18v5.43c0,2.23,0,5.94.1,7.56Zm5.61-1.26V431h-8.27v-1.26l3.95-.72h.72Zm8.32-9.61v3.31c0,2.31,0,5.94.11,7.56h-3.1c.07-1.62.11-5.25.11-7.56v-3c0-3.35-.86-4.43-3-4.43-1.8,0-3.28.72-5.33,2.48h-.76v-1.62h1.84l-1.55.65c1.69-2.27,4.57-4,7.13-4C360.93,413.47,362.41,415.38,362.41,420.13Zm-1,8.89,3.6.72V431h-8.28v-1.26l4-.72Z"/><path class="cls-5" d="M375.91,429.49c1.84,0,3.1-.79,4.75-2.92l.32,1c-1.36,2.45-3.05,3.93-5.86,3.93-4.39,0-7.35-3.64-7.35-8.86,0-5.47,3.24-9.14,7.67-9.14,2.05,0,3.82.83,5.69,3.64l-.36.93c-2.09-2-3.53-2.59-4.9-2.59-2.7,0-5,2.16-5,7.09S373,429.49,375.91,429.49Zm10,.25V431l-5.51.36-.36-3.67V417.14l.11-.47V407.6l-3.1-.36V406l5.51-1.62.5.29-.14,5.11V431l-.58-1.84Z"/><path class="cls-5" d="M401.15,424.63c0,3.2.93,4.32,2.91,4.32a7.93,7.93,0,0,0,5.51-2.7h.75v1.83h-1.83l1.26-.54c-2.05,2.78-4.5,3.93-6.84,3.93-2.88,0-4.68-1.73-4.64-6.48l.1-9.5.76.68-3.35-.72v-1.26l5.19-.47.36.36-.18,5Zm8.56,6.66-.5-4.21.11-11.59.75.68-3.34-.72v-1.26l5.11-.47.36.36-.11,5v10.76l-.87-.86,3.35.72V431Z"/><path class="cls-5" d="M426,438.38v1.26h-9.22v-1.26l4.07-.72h.72Zm-6.19-16.63c0-2,0-3.1-.11-4.54l-2.88-.32v-1.26l4.9-2.16.54.36.28,3.06.15.07v11.23l-.11.22V432c0,2.52,0,5.11.11,7.63h-3q.11-3.78.11-7.56Zm7.34-6.3c-1.33,0-3.13.65-5.76,3.2L421,418c2.09-3.17,4.42-4.54,6.87-4.54,3.82,0,6.84,3.38,6.84,8.93s-3.17,9.07-7.38,9.07c-2.19,0-4.42-1-6.33-4.75l.32-.58c1.87,2.38,3.6,3.35,5.36,3.35,2.74,0,5-2.13,5-6.77S429.76,415.45,427.1,415.45Z"/><path class="cls-5" d="M481.32,437.19l-.9.76a23,23,0,0,1,0-33.91l.9.75c-4.25,6.2-5.55,10.44-5.55,16.2S477.07,431,481.32,437.19Z"/><path class="cls-5" d="M485.64,431c.07-1.62.1-5.33.1-7.56v-1.69c0-2,0-3.1-.1-4.54l-2.88-.32v-1.26l4.89-2.16.54.36.43,4.18v5.43c0,2.23,0,5.94.11,7.56Zm5.61-1.26V431H483v-1.26l4-.72h.72Zm8.17-9.61v3.31c0,2.31,0,5.94.11,7.56h-3.09c.07-1.62.1-5.25.1-7.56v-3c0-3.35-.86-4.43-3-4.43-1.76,0-3.17.72-5.18,2.48h-.76v-1.62h1.84l-1.55.65c1.69-2.27,4.46-4,7-4C498,413.47,499.42,415.38,499.42,420.13Zm-1,8.89,3.6.72V431h-8.28v-1.26l4-.72Zm11.77-9.29v3.71c0,2.31,0,5.94.11,7.56h-3.1c.08-1.62.11-5.25.11-7.56v-3.09c0-3.39-.93-4.36-3.06-4.36-1.62,0-3.13.65-5.15,2.48h-.86v-1.26h1.94l-1.65.29a8.82,8.82,0,0,1,7.09-4C508.53,413.47,510.22,415.27,510.22,419.73Zm-1,9.29,3.6.72V431h-8.28v-1.26l4-.72Z"/><path class="cls-5" d="M523.72,429.49c1.84,0,3.1-.79,4.75-2.92l.33,1c-1.37,2.45-3.06,3.93-5.87,3.93-4.39,0-7.34-3.64-7.34-8.86,0-5.47,3.24-9.14,7.67-9.14,2,0,3.81.83,5.68,3.64l-.36.93c-2.09-2-3.52-2.59-4.89-2.59-2.7,0-5,2.16-5,7.09S520.81,429.49,523.72,429.49Zm10,.25V431l-5.51.36-.36-3.67V417.14l.11-.47V407.6l-3.1-.36V406l5.51-1.62.51.29-.15,5.11V431l-.57-1.84Z"/><path class="cls-5" d="M535.17,404.79l.9-.75a23,23,0,0,1,0,33.91l-.9-.76c4.25-6.19,5.55-10.44,5.55-16.2S539.42,411,535.17,404.79Z"/><path class="cls-5" d="M18.47,30.7a38.68,38.68,0,0,1,5.58-1.51v1.3a32.4,32.4,0,0,0-4.82,1.43c-3.24,1.26-3.6,2.63-3.6,3.68,0,1.9,1.26,2.66,2.91,2.66,1.26,0,2-.47,4.25-2.09l.72-.54.5.76-1,1c-2.16,2.16-3.38,3.17-5.58,3.17-2.63,0-4.82-1.51-4.82-4.5C12.57,34.08,13.65,32.46,18.47,30.7Zm4.14,6.12V28.61c0-3.52-1-4.39-3.38-4.39a8.37,8.37,0,0,0-3.24.65l1.44-1.12-.94,3.1c-.32,1-.86,1.62-1.84,1.62A1.48,1.48,0,0,1,13,27c.69-2.74,3.35-4.43,7-4.43s5.51,1.69,5.51,6.23v7.63c0,1.62.5,2.2,1.33,2.2a1.77,1.77,0,0,0,1.4-.8l.72.8a3.36,3.36,0,0,1-3.05,1.83C23.9,40.49,22.61,39.05,22.61,36.82Z"/><path class="cls-5" d="M37.44,38.8a4.09,4.09,0,0,0,2.45-1l.83,1a5.13,5.13,0,0,1-4.18,1.84c-2.48,0-4-1.3-4-4.07,0-.86,0-1.62,0-3V24.94h-3V23.39L34,22.82,32.55,24l1.08-5.84h2.08l-.28,6.3V36.14C35.43,38,36.22,38.8,37.44,38.8Zm3-15.73v1.87H34V23.07Z"/><path class="cls-5" d="M53.39,40.13c.07-1.62.11-5.33.11-7.56V30.88c0-2,0-3.09-.11-4.53L50.51,26V24.76l4.9-2.16L56,23l.43,4.18v5.43c0,2.23,0,5.94.11,7.56ZM59,38.87v1.26H50.73V38.87l4-.72h.72Zm8.17-9.61v3.31c0,2.31,0,5.94.1,7.56H64.19c.07-1.62.11-5.25.11-7.56v-3c0-3.35-.87-4.43-3-4.43-1.76,0-3.16.72-5.18,2.49h-.76V26h1.84l-1.55.64c1.69-2.26,4.47-4,7-4C65.7,22.6,67.18,24.51,67.18,29.26Zm-1,8.89,3.6.72v1.26H61.52V38.87l4-.72ZM78,28.87v3.7c0,2.31,0,5.94.1,7.56H75c.07-1.62.11-5.25.11-7.56V29.48c0-3.39-.94-4.36-3.06-4.36-1.62,0-3.14.65-5.15,2.49H66V26.35h2l-1.66.28a8.83,8.83,0,0,1,7.09-4C76.28,22.6,78,24.4,78,28.87Zm-1,9.28,3.6.72v1.26H72.32V38.87l4-.72Z"/><path class="cls-5" d="M85.68,40.13c.07-1.62.11-5.33.11-7.56V30.88c0-2,0-3.09-.11-4.53l-3-.33V24.76l5.44-2.16.54.36-.11,4.86v4.75c0,2.23,0,5.94.11,7.56Zm5.55-1.26v1.26H83V38.87l4-.72h.72Zm-6.45-22.6a2.38,2.38,0,1,1,2.38,2.26A2.25,2.25,0,0,1,84.78,16.27Z"/><path class="cls-5" d="M96.52,40.13c.07-1.62.1-5.33.1-7.56V30.88c0-2,0-3.09-.1-4.53L93.64,26V24.76l4.89-2.16.54.36.43,4.18v5.43c0,2.23,0,5.94.11,7.56Zm5.61-1.26v1.26H93.85V38.87l4-.72h.72Zm8.32-9.61v3.31c0,2.31,0,5.94.11,7.56h-3.1c.07-1.62.11-5.25.11-7.56v-3c0-3.35-.87-4.43-3-4.43-1.8,0-3.27.72-5.32,2.49h-.76V26h1.84l-1.55.64c1.69-2.26,4.57-4,7.13-4C109,22.6,110.45,24.51,110.45,29.26Zm-1,8.89,3.59.72v1.26H104.8V38.87l4-.72Z"/><path class="cls-5" d="M115.6,30h8.28v2.3H115.6Z"/><path class="cls-5" d="M128.48,25.05,125,24.44V23.07h8.13v1.37l-3.89.61Zm11.38-2,5.33,14.07h-.79l4.31-14.07h2l-5.87,17.28H143.6c-3.49-8.93-4.42-11.85-5.32-14.69h1.29L134.1,40.35h-1.26L126.4,23.07h3.24l4.78,14.07h-.79l5.15-14.07Zm-4.46,1.37V23.07h7.92v1.37l-3.42.61h-.72Zm13.39.61-3.35-.61V23.07H152v1.37l-2.52.61Z"/><path class="cls-5" d="M156.38,40.13c.08-1.62.11-5.33.11-7.56V30.88c0-2,0-3.09-.11-4.53L153.43,26V24.76l5.44-2.16.54.36-.11,4.86v4.75c0,2.23,0,5.94.11,7.56Zm5.55-1.26v1.26h-8.28V38.87l4-.72h.72Zm-6.45-22.6a2.38,2.38,0,1,1,2.38,2.26A2.25,2.25,0,0,1,155.48,16.27Z"/><path class="cls-5" d="M172.87,38.62c1.84,0,3.1-.79,4.75-2.92l.33,1c-1.37,2.44-3.06,3.92-5.87,3.92-4.39,0-7.34-3.64-7.34-8.85,0-5.48,3.24-9.15,7.66-9.15,2.06,0,3.82.83,5.69,3.64l-.36.93c-2.09-2-3.53-2.59-4.89-2.59-2.7,0-5,2.16-5,7.09S170,38.62,172.87,38.62Zm10,.25v1.26l-5.51.36L177,36.82V26.27l.11-.46V16.73l-3.1-.35V15.12l5.51-1.62.51.28-.15,5.11V40.13l-.57-1.83Z"/><path class="cls-5" d="M191.66,38.8a4,4,0,0,0,2.45-1l.83,1a5.13,5.13,0,0,1-4.18,1.84c-2.48,0-4-1.3-4-4.07,0-.86,0-1.62,0-3V24.94h-3V23.39l4.47-.57L186.77,24l1.08-5.84h2.09l-.29,6.3V36.14C189.65,38,190.44,38.8,191.66,38.8Zm3-15.73v1.87h-6.4V23.07Z"/><path class="cls-5" d="M198.94,16.73l-3-.35V15.12l5.4-1.62.5.28-.14,5.11v7.64l.11.46v5.58c0,2.23,0,5.94.1,7.56h-3.09c.07-1.62.11-5.33.11-7.56Zm5.47,22.14v1.26h-8.28V38.87l4-.72h.72Zm8.49-9.61v3.31c0,2.31,0,5.94.11,7.56h-3.1c.08-1.62.11-5.25.11-7.56v-3c0-3.35-.86-4.43-3-4.43-1.8,0-3.28.65-5.33,2.49h-.75V26h1.83l-1.62.64c1.69-2.26,4.64-4,7.2-4C211.43,22.6,212.9,24.51,212.9,29.26Zm-1,8.89,3.6.72v1.26h-8.28V38.87l4-.72Z"/><path class="cls-5" d="M241.52,28.54c0,8.93-3.71,12.06-7.45,12.06s-7.52-3.13-7.52-12.06,3.71-12.16,7.52-12.16S241.52,19.58,241.52,28.54ZM234.07,39c2.2,0,4.25-2.12,4.25-10.44S236.27,18,234.07,18s-4.32,2.09-4.32,10.55S231.8,39,234.07,39Z"/><path class="cls-5" d="M253.44,47.51v1.26h-9.22V47.51l4.07-.72H249Zm-6.19-16.63c0-2,0-3.09-.11-4.53L244.26,26V24.76l4.89-2.16.54.36L250,26l.15.07V37.32l-.11.22v3.6c0,2.52,0,5.11.11,7.63h-3q.11-3.78.11-7.56Zm7.34-6.3c-1.33,0-3.13.65-5.76,3.21l-.32-.65c2.08-3.17,4.42-4.54,6.87-4.54,3.82,0,6.84,3.39,6.84,8.93s-3.17,9.07-7.38,9.07c-2.19,0-4.43-1-6.33-4.75l.32-.58c1.87,2.38,3.6,3.35,5.36,3.35,2.74,0,5-2.12,5-6.77S257.25,24.58,254.59,24.58Z"/><path class="cls-5" d="M267.37,38.26l3.38.61v1.26h-7.23V38.87l3.1-.61Zm.15-13.21-3.75-.61V23.07h7.92v1.37l-3.42.61Zm-3.1,15.08L272,30.84l1.22.83-6.58,8.46Zm3.81-17.06,5.08,7.31,6.84,9.75h-3.31l-5.33-7.67-6.44-9.39Zm12.35,0-7.49,9.11-1.18-.94,6.4-8.17ZM277.7,38.15l4,.72v1.26H273V38.87l4-.72ZM277.45,25l-3-.57V23.07h6.77v1.37l-3,.57Z"/><path class="cls-5" d="M298,30.7a38.68,38.68,0,0,1,5.58-1.51v1.3a32.56,32.56,0,0,0-4.83,1.43c-3.24,1.26-3.6,2.63-3.6,3.68,0,1.9,1.26,2.66,2.92,2.66,1.26,0,2-.47,4.25-2.09l.72-.54.5.76-1,1c-2.16,2.16-3.39,3.17-5.58,3.17-2.63,0-4.83-1.51-4.83-4.5C292.1,34.08,293.18,32.46,298,30.7Zm4.14,6.12V28.61c0-3.52-1-4.39-3.39-4.39a8.44,8.44,0,0,0-3.24.65L297,23.75l-.93,3.1c-.33,1-.87,1.62-1.84,1.62A1.47,1.47,0,0,1,292.57,27c.69-2.74,3.35-4.43,6.95-4.43S305,24.29,305,28.83v7.63c0,1.62.5,2.2,1.33,2.2a1.77,1.77,0,0,0,1.4-.8l.72.8a3.36,3.36,0,0,1-3.06,1.83C303.44,40.49,302.15,39.05,302.15,36.82Z"/><path class="cls-5" d="M312.69,40.13c.08-1.62.11-5.33.11-7.56V30.88c0-2,0-3.09-.11-4.53L309.82,26V24.76l4.89-2.16.54.36.43,4.18v5.43c0,2.23,0,5.94.11,7.56Zm5.62-1.26v1.26H310V38.87l4-.72h.72Zm8.31-9.61v3.31c0,2.31,0,5.94.11,7.56h-3.09c.07-1.62.11-5.25.11-7.56v-3c0-3.35-.87-4.43-3-4.43-1.8,0-3.27.72-5.33,2.49h-.75V26h1.83l-1.54.64c1.69-2.26,4.57-4,7.12-4C325.15,22.6,326.62,24.51,326.62,29.26Zm-1,8.89,3.6.72v1.26H321V38.87l4-.72Z"/><path class="cls-5" d="M340.13,38.62c1.83,0,3.09-.79,4.75-2.92l.32,1c-1.37,2.44-3.06,3.92-5.87,3.92-4.39,0-7.34-3.64-7.34-8.85,0-5.48,3.24-9.15,7.67-9.15,2,0,3.81.83,5.69,3.64l-.36.93c-2.09-2-3.53-2.59-4.9-2.59-2.7,0-5,2.16-5,7.09S337.21,38.62,340.13,38.62Zm10,.25v1.26l-5.5.36-.36-3.67V26.27l.1-.46V16.73l-3.09-.35V15.12l5.51-1.62.5.28-.14,5.11V40.13l-.58-1.83Z"/><path class="cls-5" d="M365.36,33.76c0,3.2.94,4.32,2.92,4.32a7.94,7.94,0,0,0,5.51-2.7h.75v1.84h-1.83l1.26-.54c-2.06,2.77-4.5,3.92-6.84,3.92-2.88,0-4.68-1.73-4.65-6.48l.11-9.5.76.68L360,24.58V23.32l5.18-.47.36.36-.18,5Zm8.57,6.66-.5-4.21.1-11.59.76.68-3.35-.72V23.32l5.11-.47.36.36-.1,5V39l-.87-.87,3.35.72v1.26Z"/><path class="cls-5" d="M390.16,47.51v1.26H381V47.51l4.07-.72h.72ZM384,30.88c0-2,0-3.09-.1-4.53L381,26V24.76l4.89-2.16.54.36.29,3.06.14.07V37.32l-.11.22v3.6c0,2.52,0,5.11.11,7.63h-3q.11-3.78.1-7.56Zm7.35-6.3c-1.34,0-3.13.65-5.76,3.21l-.33-.65c2.09-3.17,4.43-4.54,6.88-4.54,3.81,0,6.84,3.39,6.84,8.93s-3.17,9.07-7.38,9.07c-2.2,0-4.43-1-6.34-4.75l.33-.58c1.87,2.38,3.6,3.35,5.36,3.35,2.74,0,5-2.12,5-6.77S394,24.58,391.32,24.58Z"/><path class="cls-5" d="M445.53,46.32l-.9.76a22.36,22.36,0,0,1-7.45-17,22.36,22.36,0,0,1,7.45-17l.9.76C441.28,20.12,440,24.37,440,30.12S441.28,40.13,445.53,46.32Z"/><path class="cls-5" d="M455.14,38.62c1.84,0,3.1-.79,4.76-2.92l.32,1c-1.37,2.44-3.06,3.92-5.87,3.92C450,40.6,447,37,447,31.75c0-5.48,3.24-9.15,7.67-9.15,2.05,0,3.81.83,5.68,3.64l-.36.93c-2.08-2-3.52-2.59-4.89-2.59-2.7,0-5,2.16-5,7.09S452.23,38.62,455.14,38.62Zm10,.25v1.26l-5.51.36-.36-3.67V26.27l.11-.46V16.73l-3.09-.35V15.12l5.5-1.62.51.28-.15,5.11V40.13l-.57-1.83Z"/><path class="cls-5" d="M482.21,29.48a7,7,0,0,1-.25,2H468.68V30h8.57c1.73,0,2.12-.83,2.12-1.83a4,4,0,0,0-4-3.93c-2.31,0-5,2-5,7.09,0,4.57,2.3,7,5.9,7a6.22,6.22,0,0,0,5-2.55l.83.64a7.31,7.31,0,0,1-6.88,4.18c-4.82,0-7.95-3.35-7.95-8.82s3.74-9.18,8.21-9.18C479.26,22.6,482.21,25.12,482.21,29.48Z"/><path class="cls-5" d="M487.94,24.94h-3V23.39l4.06-.54-1,.54c.36-4.14.94-6.33,2.55-8.06a6.59,6.59,0,0,1,5-2.2c1.69,0,3.06.54,3.42,1.91-.07.9-.87,1.59-2.16,1.59a4.2,4.2,0,0,1-2.56-1l-1.76-1.33,3-.72.83,1.08a3.32,3.32,0,0,0-1.4-.44,3.73,3.73,0,0,0-3,2c-.83,1.44-1.37,3.85-1.08,8.24v8.1q0,3.78.11,7.56h-3.1q.1-3.78.11-7.56Zm6.23,13.93v1.26H485V38.87l4.07-.72h.72Zm1.62-15.8v1.87h-6.41V23.07Z"/><path class="cls-5" d="M504,30.7a38.68,38.68,0,0,1,5.58-1.51v1.3a32,32,0,0,0-4.82,1.43c-3.24,1.26-3.6,2.63-3.6,3.68,0,1.9,1.26,2.66,2.91,2.66,1.26,0,2-.47,4.25-2.09l.72-.54.5.76-1,1c-2.16,2.16-3.39,3.17-5.58,3.17-2.63,0-4.82-1.51-4.82-4.5C498.06,34.08,499.14,32.46,504,30.7Zm4.14,6.12V28.61c0-3.52-1-4.39-3.38-4.39a8.37,8.37,0,0,0-3.24.65l1.44-1.12-.94,3.1c-.33,1-.86,1.62-1.84,1.62A1.48,1.48,0,0,1,498.52,27c.69-2.74,3.35-4.43,7-4.43S511,24.29,511,28.83v7.63c0,1.62.5,2.2,1.33,2.2a1.77,1.77,0,0,0,1.4-.8l.72.8a3.36,3.36,0,0,1-3.06,1.83C509.39,40.49,508.1,39.05,508.1,36.82Z"/><path class="cls-5" d="M521,33.76c0,3.2.94,4.32,2.92,4.32a7.92,7.92,0,0,0,5.5-2.7h.76v1.84h-1.84l1.26-.54c-2,2.77-4.49,3.92-6.83,3.92-2.88,0-4.68-1.73-4.65-6.48l.11-9.5.76.68-3.35-.72V23.32l5.18-.47.36.36-.18,5Zm8.57,6.66L529,36.21l.11-11.59.76.68-3.35-.72V23.32l5.11-.47.36.36-.11,5V39l-.86-.87,3.35.72v1.26Z"/><path class="cls-5" d="M542.05,13.5l.5.28-.14,5.11V32.57q0,3.78.1,7.56h-3.09q.11-3.78.11-7.56V16.73l-3-.35V15.12Zm3.34,25.37v1.26h-8.85V38.87l4.07-.72h.72Z"/><path class="cls-5" d="M554.54,38.8a4,4,0,0,0,2.44-1l.83,1a5.11,5.11,0,0,1-4.17,1.84c-2.49,0-4-1.3-4-4.07,0-.86,0-1.62,0-3V24.94h-3V23.39l4.46-.57L549.64,24l1.08-5.84h2.09l-.29,6.3V36.14C552.52,38,553.31,38.8,554.54,38.8Zm3-15.73v1.87h-6.41V23.07Z"/><path class="cls-5" d="M558.82,13.93l.9-.76a22.36,22.36,0,0,1,7.45,17,22.36,22.36,0,0,1-7.45,17l-.9-.76c4.25-6.19,5.55-10.44,5.55-16.2S563.07,20.12,558.82,13.93Z"/><path class="cls-5" d="M1452,486h7.55V488H1452Zm0,3.84h7.55v1.92H1452Z"/><path class="cls-5" d="M1471.35,492H1474v-5.25h-2.24V485a7.08,7.08,0,0,0,3-1h2V492h2.18v2.21h-7.59Z"/><path class="cls-5" d="M1480.63,492.63c2.71-2.21,4.69-3.91,4.69-5.28,0-.92-.57-1.35-1.47-1.35a3,3,0,0,0-1.89,1l-1.45-1.47a4.71,4.71,0,0,1,3.72-1.63c2.18,0,3.7,1.31,3.7,3.33,0,1.63-1.69,3.42-3.36,4.83.56-.06,1.33-.13,1.83-.13h2v2.31h-7.81Z"/><path class="cls-5" d="M1451.25,625.76h7.56v1.92h-7.56Zm0,3.84h7.56v1.92h-7.56Z"/><path class="cls-5" d="M1470.58,631.71h2.66v-5.25H1471v-1.7a6.84,6.84,0,0,0,3-1h2v7.94h2.18v2.21h-7.59Z"/><path class="cls-5" d="M1479.86,632.35c2.7-2.21,4.69-3.9,4.69-5.28,0-.91-.58-1.34-1.47-1.34a2.94,2.94,0,0,0-1.89,1l-1.46-1.48a4.75,4.75,0,0,1,3.73-1.63c2.18,0,3.7,1.31,3.7,3.33,0,1.63-1.7,3.42-3.36,4.83.56-.06,1.32-.12,1.82-.12h2.05v2.3h-7.81Z"/><path class="cls-4" d="M705.12,345h2.24l.19.73h.06a3.52,3.52,0,0,1,2.24-.93c1.94,0,3.17,1.6,3.17,4.07,0,2.75-1.66,4.32-3.41,4.32a2.56,2.56,0,0,1-1.81-.8h-.06l.13,1.22v2.21h-2.75Zm5.09,3.9c0-1.31-.4-1.86-1.19-1.86a1.46,1.46,0,0,0-1.15.58v2.95A1.65,1.65,0,0,0,709,351C709.63,351,710.21,350.45,710.21,348.91Z"/><path class="cls-4" d="M714.72,346.77h7.55v1.92h-7.55Z"/><path class="cls-4" d="M724.28,349c0-2.66,2.21-4.2,4.69-4.2a4.44,4.44,0,0,1,3,1.06l-1.25,1.7a2.79,2.79,0,0,0-1.62-.55,1.89,1.89,0,0,0-2,2,1.86,1.86,0,0,0,1.94,2,3.71,3.71,0,0,0,2-.67l1.08,1.73a5.38,5.38,0,0,1-3.32,1.15C726.24,353.2,724.28,351.66,724.28,349Z"/><path class="cls-4" d="M733.56,349a4.13,4.13,0,1,1,4.13,4.19A4.06,4.06,0,0,1,733.56,349Zm5.45,0c0-1.22-.39-2-1.32-2s-1.31.77-1.31,2,.38,2,1.31,2S739,350.22,739,349Z"/><path class="cls-4" d="M745.53,349.71V344h-2.4v-2.14h5.15v7.94a1.09,1.09,0,0,0,1.2,1.18,3.48,3.48,0,0,0,1.16-.22l.59,2a7.67,7.67,0,0,1-2.48.41C746.62,353.2,745.53,351.79,745.53,349.71Z"/><path class="cls-4" d="M753.11,346.77h7.56v1.92h-7.56Z"/><path class="cls-4" d="M762.84,350.8h2.66v-5.25h-2.24v-1.7a7.08,7.08,0,0,0,3-1h2v7.94h2.18V353h-7.59Z"/><path class="cls-4" d="M772.12,351.44c2.71-2.21,4.69-3.91,4.69-5.28,0-.91-.57-1.35-1.47-1.35a3,3,0,0,0-1.89,1L772,344.3a4.75,4.75,0,0,1,3.73-1.63c2.18,0,3.7,1.31,3.7,3.33,0,1.63-1.69,3.42-3.36,4.83.56-.06,1.33-.13,1.83-.13h2V353h-7.81Z"/><path class="cls-4" d="M705.52,295h2.24l.19.73H708a3.52,3.52,0,0,1,2.24-.93c1.94,0,3.17,1.6,3.17,4.07,0,2.75-1.66,4.32-3.41,4.32a2.54,2.54,0,0,1-1.81-.8h-.06l.13,1.22v2.21h-2.75Zm5.09,3.9c0-1.31-.4-1.86-1.19-1.86a1.46,1.46,0,0,0-1.15.58v2.95a1.67,1.67,0,0,0,1.09.38C710,301,710.61,300.45,710.61,298.91Z"/><path class="cls-4" d="M715.11,296.77h7.56v1.92h-7.56Z"/><path class="cls-4" d="M724.68,299c0-2.66,2.21-4.2,4.69-4.2a4.44,4.44,0,0,1,3,1.06l-1.25,1.7a2.79,2.79,0,0,0-1.62-.55,1.89,1.89,0,0,0-2,2,1.86,1.86,0,0,0,1.94,2,3.71,3.71,0,0,0,2-.67l1.08,1.73a5.39,5.39,0,0,1-3.33,1.15C726.64,303.2,724.68,301.66,724.68,299Z"/><path class="cls-4" d="M734,299a4.13,4.13,0,1,1,4.13,4.19A4.06,4.06,0,0,1,734,299Zm5.44,0c0-1.22-.38-2-1.31-2s-1.31.77-1.31,2,.38,2,1.31,2S739.4,300.22,739.4,299Z"/><path class="cls-4" d="M745.93,299.71V294h-2.4v-2.14h5.16v7.94a1.08,1.08,0,0,0,1.2,1.18,3.48,3.48,0,0,0,1.15-.22l.59,2a7.67,7.67,0,0,1-2.48.41C747,303.2,745.93,301.79,745.93,299.71Z"/><path class="cls-4" d="M753.51,296.77h7.56v1.92h-7.56Z"/><path class="cls-4" d="M763.24,300.8h2.66v-5.25h-2.24v-1.7a7.08,7.08,0,0,0,3-1h2v7.94h2.18V303h-7.59Z"/><path class="cls-4" d="M772.52,301.44c2.71-2.21,4.69-3.91,4.69-5.28,0-.91-.57-1.35-1.47-1.35a3,3,0,0,0-1.89,1l-1.46-1.47a4.75,4.75,0,0,1,3.73-1.63c2.18,0,3.7,1.31,3.7,3.33,0,1.63-1.7,3.42-3.36,4.83.56-.06,1.33-.13,1.82-.13h2.05V303h-7.81Z"/><path class="cls-5" d="M1451.77,296.31h7.55v1.92h-7.55Zm0,3.84h7.55v1.93h-7.55Z"/><path class="cls-5" d="M1471.1,302.27h2.65V297h-2.24v-1.7a7,7,0,0,0,3-1h2v7.94h2.17v2.21h-7.58Z"/><path class="cls-5" d="M1480.38,302.91c2.7-2.21,4.69-3.91,4.69-5.29,0-.91-.58-1.34-1.48-1.34a3,3,0,0,0-1.89,1l-1.45-1.47a4.73,4.73,0,0,1,3.73-1.63c2.17,0,3.69,1.31,3.69,3.32,0,1.64-1.69,3.43-3.36,4.84.56-.06,1.33-.13,1.83-.13h2v2.31h-7.81Z"/><path class="cls-5" d="M1451.77,346.31h7.55v1.92h-7.55Zm0,3.84h7.55v1.93h-7.55Z"/><path class="cls-5" d="M1471.1,352.27h2.65V347h-2.24v-1.7a7,7,0,0,0,3-1h2v7.94h2.17v2.21h-7.58Z"/><path class="cls-5" d="M1480.38,352.91c2.7-2.21,4.69-3.91,4.69-5.29,0-.91-.58-1.34-1.48-1.34a3,3,0,0,0-1.89,1l-1.45-1.47a4.73,4.73,0,0,1,3.73-1.63c2.17,0,3.69,1.31,3.69,3.32,0,1.64-1.69,3.43-3.36,4.84.56-.06,1.33-.13,1.83-.13h2v2.31h-7.81Z"/></g></g></svg>