<svg id="Artboard_1" data-name="Artboard 1" xmlns="http://www.w3.org/2000/svg" viewBox="0 0 1510.51 663.77"><defs><style>.cls-1{fill:#2861a4;stroke:#231f20;stroke-miterlimit:10;}.cls-2{fill:#fff;}.cls-3{fill:#231f20;}</style></defs><g id="Grid"><rect class="cls-1" x="10" y="60" width="110" height="40" rx="9.98"/><rect class="cls-1" x="130" y="60" width="110" height="40" rx="9.98"/><rect class="cls-1" x="250" y="60" width="110" height="40" rx="9.98"/><rect class="cls-1" x="370" y="60" width="110" height="40" rx="9.98"/><rect class="cls-1" x="490" y="60" width="110" height="40" rx="9.98"/><rect class="cls-1" x="610" y="60" width="110" height="40" rx="9.98"/><rect class="cls-1" x="730" y="60" width="110" height="40" rx="9.98"/><rect class="cls-1" x="850" y="60" width="110" height="40" rx="9.98"/><rect class="cls-1" x="970" y="60" width="110" height="40" rx="9.98"/><rect class="cls-1" x="1090" y="60" width="110" height="40" rx="9.98"/><rect class="cls-1" x="1210" y="60" width="110" height="40" rx="9.98"/><rect class="cls-1" x="1330" y="60" width="110" height="40" rx="9.98"/><rect class="cls-1" x="10" y="10" width="50" height="40" rx="9.98"/><rect class="cls-1" x="70" y="10" width="50" height="40" rx="9.98"/><rect class="cls-1" x="130" y="10" width="50" height="40" rx="9.98"/><rect class="cls-1" x="190" y="10" width="50" height="40" rx="9.98"/><rect class="cls-1" x="250" y="10" width="50" height="40" rx="9.98"/><rect class="cls-1" x="310" y="10" width="50" height="40" rx="9.98"/><rect class="cls-1" x="370" y="10" width="50" height="40" rx="9.98"/><rect class="cls-1" x="430" y="10" width="50" height="40" rx="9.98"/><rect class="cls-1" x="490" y="10" width="50" height="40" rx="9.98"/><rect class="cls-1" x="550" y="10" width="50" height="40" rx="9.98"/><rect class="cls-1" x="610" y="10" width="50" height="40" rx="9.98"/><rect class="cls-1" x="670" y="10" width="50" height="40" rx="9.98"/><rect class="cls-1" x="730" y="10" width="50" height="40" rx="9.98"/><rect class="cls-1" x="790" y="10" width="50" height="40" rx="9.98"/><rect class="cls-1" x="850" y="10" width="50" height="40" rx="9.98"/><rect class="cls-1" x="910" y="10" width="50" height="40" rx="9.98"/><rect class="cls-1" x="970" y="10" width="50" height="40" rx="9.98"/><rect class="cls-1" x="1030" y="10" width="50" height="40" rx="9.98"/><rect class="cls-1" x="1090" y="10" width="50" height="40" rx="9.98"/><rect class="cls-1" x="1150" y="10" width="50" height="40" rx="9.98"/><rect class="cls-1" x="1210" y="10" width="50" height="40" rx="9.98"/><rect class="cls-1" x="1270" y="10" width="50" height="40" rx="9.98"/><rect class="cls-1" x="1330" y="10" width="50" height="40" rx="9.98"/><rect class="cls-1" x="1390" y="10" width="50" height="40" rx="9.98"/><rect class="cls-1" x="10" y="110" width="170" height="40" rx="9.98"/><rect class="cls-1" x="190" y="110" width="170" height="40" rx="9.98"/><rect class="cls-1" x="370" y="110" width="170" height="40" rx="9.98"/><rect class="cls-1" x="550" y="110" width="170" height="40" rx="9.98"/><rect class="cls-1" x="730" y="110" width="170" height="40" rx="9.98"/><rect class="cls-1" x="910" y="110" width="170" height="40" rx="9.98"/><rect class="cls-1" x="1090" y="110" width="170" height="40" rx="9.98"/><rect class="cls-1" x="1270" y="110" width="170" height="40" rx="9.98"/><rect class="cls-1" x="10" y="160" width="290" height="40" rx="9.98"/><rect class="cls-1" x="310" y="160" width="290" height="40" rx="9.98"/><rect class="cls-1" x="610" y="160" width="290" height="40" rx="9.98"/><rect class="cls-1" x="910" y="160" width="290" height="40" rx="9.98"/><rect class="cls-1" x="10" y="210" width="410" height="40" rx="9.98"/><rect class="cls-1" x="430" y="210" width="410" height="40" rx="9.98"/><rect class="cls-1" x="850" y="210" width="410" height="40" rx="9.98"/><rect class="cls-1" x="10" y="260" width="530" height="40" rx="9.98"/><rect class="cls-1" x="550" y="260" width="530" height="40" rx="9.98"/><rect class="cls-1" x="10" y="310" width="650" height="40" rx="9.98"/><rect class="cls-1" x="670" y="310" width="650" height="40" rx="9.98"/><rect class="cls-1" x="10" y="360" width="770" height="40" rx="9.98"/><rect class="cls-1" x="10" y="410" width="890" height="40" rx="9.98"/><rect class="cls-1" x="10" y="460" width="1010" height="40" rx="9.98"/><rect class="cls-1" x="10" y="510" width="1130" height="40" rx="9.98"/><rect class="cls-1" x="10" y="560" width="1250" height="40" rx="9.98"/><rect class="cls-1" x="1210" y="160" width="230" height="40" rx="9.98"/><rect class="cls-1" x="1090" y="260" width="350" height="40" rx="9.98"/><rect class="cls-1" x="10" y="610" width="1370" height="40" rx="9.98"/><rect class="cls-1" x="1270" y="210" width="170" height="40" rx="9.98"/><rect class="cls-1" x="1330" y="310" width="110" height="40" rx="9.98"/><rect class="cls-1" x="790" y="360" width="650" height="40" rx="9.98"/><rect class="cls-1" x="910" y="410" width="530" height="40" rx="9.98"/><rect class="cls-1" x="1030" y="460" width="410" height="40" rx="9.98"/><rect class="cls-1" x="1150" y="510" width="290" height="40" rx="9.98"/><rect class="cls-1" x="1270" y="560" width="170" height="40" rx="9.98"/><rect class="cls-1" x="1390" y="610" width="50" height="40" rx="9.98"/></g><g id="Text"><path class="cls-2" d="M36.48,82.73h2.66V77.48H36.9v-1.7a7,7,0,0,0,3-1h2v7.94h2.18v2.21H36.48Z"/><path class="cls-2" d="M55.42,81.87V76.94h2.76v4.57c0,.9.19,1.29.91,1.29a1.32,1.32,0,0,0,1.2-.71V76.94H63v8H60.8l-.19-1.06h-.07A3.27,3.27,0,0,1,58,85.13C56.16,85.13,55.42,83.85,55.42,81.87Z"/><path class="cls-2" d="M65.15,76.94h2.24l.19,1h.07a3.8,3.8,0,0,1,2.67-1.16c1.78,0,2.55,1.28,2.55,3.27v4.93H70.11V80.36c0-.89-.22-1.28-.93-1.28a1.82,1.82,0,0,0-1.28.61v5.25H65.15Z"/><path class="cls-2" d="M78,79.08h-3V76.94H80.7v8H78Zm-.48-4.83a1.76,1.76,0,0,1,3.52,0,1.77,1.77,0,0,1-3.52,0Z"/><path class="cls-2" d="M85.92,81.55V79.08H84V77l2-.09.35-2.4h2.27v2.4h3.17v2.14H88.67V81.5c0,1.14.53,1.49,1.55,1.49a4.37,4.37,0,0,0,1.46-.26l.48,2a9.72,9.72,0,0,1-2.66.41C86.88,85.13,85.92,83.69,85.92,81.55Z"/><path class="cls-2" d="M156.48,82.73h2.66V77.48H156.9v-1.7a7,7,0,0,0,3-1h2v7.94h2.18v2.21h-7.59Z"/><path class="cls-2" d="M175.42,81.87V76.94h2.76v4.57c0,.9.19,1.29.91,1.29a1.32,1.32,0,0,0,1.2-.71V76.94H183v8H180.8l-.19-1.06h-.07A3.27,3.27,0,0,1,178,85.13C176.16,85.13,175.42,83.85,175.42,81.87Z"/><path class="cls-2" d="M185.15,76.94h2.24l.19,1h.07a3.8,3.8,0,0,1,2.67-1.16c1.78,0,2.55,1.28,2.55,3.27v4.93h-2.76V80.36c0-.89-.22-1.28-.93-1.28a1.82,1.82,0,0,0-1.28.61v5.25h-2.75Z"/><path class="cls-2" d="M198,79.08h-3V76.94h5.79v8H198Zm-.48-4.83a1.76,1.76,0,0,1,3.52,0,1.77,1.77,0,0,1-3.52,0Z"/><path class="cls-2" d="M205.92,81.55V79.08H204V77l2.05-.09.35-2.4h2.27v2.4h3.17v2.14h-3.17V81.5c0,1.14.53,1.49,1.55,1.49a4.37,4.37,0,0,0,1.46-.26l.48,2a9.72,9.72,0,0,1-2.66.41C206.88,85.13,205.92,83.69,205.92,81.55Z"/><path class="cls-2" d="M276.48,82.73h2.66V77.48H276.9v-1.7a7,7,0,0,0,3-1h2v7.94h2.18v2.21h-7.59Z"/><path class="cls-2" d="M295.42,81.87V76.94h2.76v4.57c0,.9.19,1.29.91,1.29a1.32,1.32,0,0,0,1.2-.71V76.94H303v8H300.8l-.19-1.06h-.07A3.27,3.27,0,0,1,298,85.13C296.16,85.13,295.42,83.85,295.42,81.87Z"/><path class="cls-2" d="M305.15,76.94h2.24l.19,1h.07a3.8,3.8,0,0,1,2.67-1.16c1.78,0,2.55,1.28,2.55,3.27v4.93h-2.76V80.36c0-.89-.22-1.28-.93-1.28a1.82,1.82,0,0,0-1.28.61v5.25h-2.75Z"/><path class="cls-2" d="M318,79.08h-3V76.94h5.79v8H318Zm-.48-4.83a1.76,1.76,0,0,1,3.52,0,1.77,1.77,0,0,1-3.52,0Z"/><path class="cls-2" d="M325.92,81.55V79.08H324V77l2.05-.09.35-2.4h2.27v2.4h3.17v2.14h-3.17V81.5c0,1.14.53,1.49,1.55,1.49a4.37,4.37,0,0,0,1.46-.26l.48,2a9.72,9.72,0,0,1-2.66.41C326.88,85.13,325.92,83.69,325.92,81.55Z"/><path class="cls-2" d="M396.48,82.73h2.66V77.48H396.9v-1.7a7,7,0,0,0,3-1h2v7.94h2.18v2.21h-7.59Z"/><path class="cls-2" d="M415.42,81.87V76.94h2.76v4.57c0,.9.19,1.29.91,1.29a1.32,1.32,0,0,0,1.2-.71V76.94H423v8H420.8l-.19-1.06h-.07A3.27,3.27,0,0,1,418,85.13C416.16,85.13,415.42,83.85,415.42,81.87Z"/><path class="cls-2" d="M425.15,76.94h2.24l.19,1h.07a3.8,3.8,0,0,1,2.67-1.16c1.78,0,2.55,1.28,2.55,3.27v4.93h-2.76V80.36c0-.89-.22-1.28-.93-1.28a1.82,1.82,0,0,0-1.28.61v5.25h-2.75Z"/><path class="cls-2" d="M438,79.08h-3V76.94h5.8v8H438Zm-.48-4.83a1.76,1.76,0,0,1,3.52,0,1.77,1.77,0,0,1-3.52,0Z"/><path class="cls-2" d="M445.92,81.55V79.08H444V77l2.05-.09.35-2.4h2.27v2.4h3.17v2.14h-3.17V81.5c0,1.14.53,1.49,1.55,1.49a4.37,4.37,0,0,0,1.46-.26l.48,2a9.72,9.72,0,0,1-2.66.41C446.88,85.13,445.92,83.69,445.92,81.55Z"/><path class="cls-2" d="M516.48,82.73h2.66V77.48h-2.25v-1.7a7,7,0,0,0,3-1h2v7.94h2.18v2.21h-7.59Z"/><path class="cls-2" d="M535.42,81.87V76.94h2.76v4.57c0,.9.19,1.29.91,1.29a1.32,1.32,0,0,0,1.2-.71V76.94H543v8H540.8l-.19-1.06h-.07A3.27,3.27,0,0,1,538,85.13C536.16,85.13,535.42,83.85,535.42,81.87Z"/><path class="cls-2" d="M545.15,76.94h2.24l.19,1h.07a3.8,3.8,0,0,1,2.67-1.16c1.78,0,2.55,1.28,2.55,3.27v4.93h-2.76V80.36c0-.89-.22-1.28-.93-1.28a1.82,1.82,0,0,0-1.28.61v5.25h-2.75Z"/><path class="cls-2" d="M558,79.08h-3V76.94h5.8v8H558Zm-.48-4.83a1.76,1.76,0,0,1,3.52,0,1.77,1.77,0,0,1-3.52,0Z"/><path class="cls-2" d="M565.92,81.55V79.08H564V77l2-.09.35-2.4h2.27v2.4h3.17v2.14h-3.17V81.5c0,1.14.53,1.49,1.55,1.49a4.37,4.37,0,0,0,1.46-.26l.48,2a9.72,9.72,0,0,1-2.66.41C566.88,85.13,565.92,83.69,565.92,81.55Z"/><path class="cls-2" d="M636.48,82.73h2.66V77.48h-2.25v-1.7a7,7,0,0,0,3-1h2v7.94h2.18v2.21h-7.59Z"/><path class="cls-2" d="M655.42,81.87V76.94h2.76v4.57c0,.9.19,1.29.91,1.29a1.32,1.32,0,0,0,1.2-.71V76.94H663v8H660.8l-.19-1.06h-.07A3.27,3.27,0,0,1,658,85.13C656.16,85.13,655.42,83.85,655.42,81.87Z"/><path class="cls-2" d="M665.15,76.94h2.24l.19,1h.07a3.8,3.8,0,0,1,2.67-1.16c1.78,0,2.55,1.28,2.55,3.27v4.93h-2.76V80.36c0-.89-.22-1.28-.93-1.28a1.82,1.82,0,0,0-1.28.61v5.25h-2.75Z"/><path class="cls-2" d="M678,79.08h-3V76.94h5.8v8H678Zm-.48-4.83a1.76,1.76,0,0,1,3.52,0,1.77,1.77,0,0,1-3.52,0Z"/><path class="cls-2" d="M685.92,81.55V79.08H684V77l2-.09.35-2.4h2.27v2.4h3.17v2.14h-3.17V81.5c0,1.14.53,1.49,1.55,1.49a4.37,4.37,0,0,0,1.46-.26l.48,2a9.72,9.72,0,0,1-2.66.41C686.88,85.13,685.92,83.69,685.92,81.55Z"/><path class="cls-2" d="M756.48,82.73h2.66V77.48h-2.25v-1.7a7,7,0,0,0,3-1h2v7.94h2.18v2.21h-7.59Z"/><path class="cls-2" d="M775.42,81.87V76.94h2.76v4.57c0,.9.19,1.29.91,1.29a1.32,1.32,0,0,0,1.2-.71V76.94H783v8H780.8l-.19-1.06h-.07A3.27,3.27,0,0,1,778,85.13C776.16,85.13,775.42,83.85,775.42,81.87Z"/><path class="cls-2" d="M785.15,76.94h2.24l.19,1h.07a3.8,3.8,0,0,1,2.67-1.16c1.78,0,2.55,1.28,2.55,3.27v4.93h-2.76V80.36c0-.89-.22-1.28-.93-1.28a1.82,1.82,0,0,0-1.28.61v5.25h-2.75Z"/><path class="cls-2" d="M798,79.08h-3V76.94h5.8v8H798Zm-.48-4.83a1.76,1.76,0,0,1,3.52,0,1.77,1.77,0,0,1-3.52,0Z"/><path class="cls-2" d="M805.92,81.55V79.08H804V77l2-.09.35-2.4h2.27v2.4h3.17v2.14h-3.17V81.5c0,1.14.53,1.49,1.55,1.49a4.37,4.37,0,0,0,1.46-.26l.48,2a9.72,9.72,0,0,1-2.66.41C806.88,85.13,805.92,83.69,805.92,81.55Z"/><path class="cls-2" d="M876.48,82.73h2.66V77.48h-2.25v-1.7a7,7,0,0,0,3-1h2v7.94h2.18v2.21h-7.59Z"/><path class="cls-2" d="M895.42,81.87V76.94h2.76v4.57c0,.9.19,1.29.91,1.29a1.32,1.32,0,0,0,1.2-.71V76.94H903v8H900.8l-.19-1.06h-.07A3.27,3.27,0,0,1,898,85.13C896.16,85.13,895.42,83.85,895.42,81.87Z"/><path class="cls-2" d="M905.15,76.94h2.24l.19,1h.07a3.8,3.8,0,0,1,2.67-1.16c1.78,0,2.55,1.28,2.55,3.27v4.93h-2.76V80.36c0-.89-.22-1.28-.93-1.28a1.82,1.82,0,0,0-1.28.61v5.25h-2.75Z"/><path class="cls-2" d="M918,79.08h-3V76.94h5.8v8H918Zm-.48-4.83a1.76,1.76,0,0,1,3.52,0,1.77,1.77,0,0,1-3.52,0Z"/><path class="cls-2" d="M925.92,81.55V79.08H924V77l2-.09.35-2.4h2.27v2.4h3.17v2.14h-3.17V81.5c0,1.14.53,1.49,1.55,1.49a4.37,4.37,0,0,0,1.46-.26l.48,2a9.72,9.72,0,0,1-2.66.41C926.88,85.13,925.92,83.69,925.92,81.55Z"/><path class="cls-2" d="M996.48,82.73h2.66V77.48h-2.25v-1.7a7,7,0,0,0,3-1h2v7.94h2.18v2.21h-7.59Z"/><path class="cls-2" d="M1015.42,81.87V76.94h2.76v4.57c0,.9.19,1.29.91,1.29a1.32,1.32,0,0,0,1.2-.71V76.94H1023v8h-2.24l-.19-1.06h-.07a3.27,3.27,0,0,1-2.59,1.25C1016.16,85.13,1015.42,83.85,1015.42,81.87Z"/><path class="cls-2" d="M1025.15,76.94h2.24l.19,1h.07a3.8,3.8,0,0,1,2.67-1.16c1.78,0,2.55,1.28,2.55,3.27v4.93h-2.76V80.36c0-.89-.22-1.28-.93-1.28a1.82,1.82,0,0,0-1.28.61v5.25h-2.75Z"/><path class="cls-2" d="M1038,79.08h-3V76.94h5.8v8H1038Zm-.48-4.83a1.76,1.76,0,0,1,3.52,0,1.77,1.77,0,0,1-3.52,0Z"/><path class="cls-2" d="M1045.92,81.55V79.08H1044V77l2-.09.35-2.4h2.27v2.4h3.17v2.14h-3.17V81.5c0,1.14.53,1.49,1.55,1.49a4.37,4.37,0,0,0,1.46-.26l.48,2a9.72,9.72,0,0,1-2.66.41C1046.88,85.13,1045.92,83.69,1045.92,81.55Z"/><path class="cls-2" d="M1116.48,82.73h2.66V77.48h-2.25v-1.7a7,7,0,0,0,3-1h2v7.94h2.18v2.21h-7.59Z"/><path class="cls-2" d="M1135.42,81.87V76.94h2.76v4.57c0,.9.19,1.29.91,1.29a1.32,1.32,0,0,0,1.2-.71V76.94H1143v8h-2.24l-.19-1.06h-.07a3.27,3.27,0,0,1-2.59,1.25C1136.16,85.13,1135.42,83.85,1135.42,81.87Z"/><path class="cls-2" d="M1145.15,76.94h2.24l.19,1h.07a3.8,3.8,0,0,1,2.67-1.16c1.78,0,2.55,1.28,2.55,3.27v4.93h-2.76V80.36c0-.89-.22-1.28-.93-1.28a1.82,1.82,0,0,0-1.28.61v5.25h-2.75Z"/><path class="cls-2" d="M1158,79.08h-3V76.94h5.8v8H1158Zm-.48-4.83a1.76,1.76,0,0,1,3.52,0,1.77,1.77,0,0,1-3.52,0Z"/><path class="cls-2" d="M1165.92,81.55V79.08H1164V77l2-.09.35-2.4h2.27v2.4h3.17v2.14h-3.17V81.5c0,1.14.53,1.49,1.55,1.49a4.37,4.37,0,0,0,1.46-.26l.48,2a9.72,9.72,0,0,1-2.66.41C1166.88,85.13,1165.92,83.69,1165.92,81.55Z"/><path class="cls-2" d="M1236.48,82.73h2.66V77.48h-2.25v-1.7a7,7,0,0,0,3-1h2v7.94h2.18v2.21h-7.59Z"/><path class="cls-2" d="M1255.42,81.87V76.94h2.76v4.57c0,.9.19,1.29.91,1.29a1.32,1.32,0,0,0,1.2-.71V76.94H1263v8h-2.24l-.19-1.06h-.07a3.27,3.27,0,0,1-2.59,1.25C1256.16,85.13,1255.42,83.85,1255.42,81.87Z"/><path class="cls-2" d="M1265.15,76.94h2.24l.19,1h.07a3.8,3.8,0,0,1,2.67-1.16c1.78,0,2.55,1.28,2.55,3.27v4.93h-2.76V80.36c0-.89-.22-1.28-.93-1.28a1.82,1.82,0,0,0-1.28.61v5.25h-2.75Z"/><path class="cls-2" d="M1278,79.08h-3V76.94h5.8v8H1278Zm-.48-4.83a1.76,1.76,0,0,1,3.52,0,1.77,1.77,0,0,1-3.52,0Z"/><path class="cls-2" d="M1285.92,81.55V79.08H1284V77l2-.09.35-2.4h2.27v2.4h3.17v2.14h-3.17V81.5c0,1.14.53,1.49,1.55,1.49a4.37,4.37,0,0,0,1.46-.26l.48,2a9.72,9.72,0,0,1-2.66.41C1286.88,85.13,1285.92,83.69,1285.92,81.55Z"/><path class="cls-2" d="M1356.48,82.73h2.66V77.48h-2.25v-1.7a7,7,0,0,0,3-1h2v7.94h2.18v2.21h-7.59Z"/><path class="cls-2" d="M1375.42,81.87V76.94h2.76v4.57c0,.9.19,1.29.91,1.29a1.32,1.32,0,0,0,1.2-.71V76.94H1383v8h-2.24l-.19-1.06h-.07a3.27,3.27,0,0,1-2.59,1.25C1376.16,85.13,1375.42,83.85,1375.42,81.87Z"/><path class="cls-2" d="M1385.15,76.94h2.24l.19,1h.07a3.8,3.8,0,0,1,2.67-1.16c1.78,0,2.55,1.28,2.55,3.27v4.93h-2.76V80.36c0-.89-.22-1.28-.93-1.28a1.82,1.82,0,0,0-1.28.61v5.25h-2.75Z"/><path class="cls-2" d="M1398,79.08h-3V76.94h5.8v8H1398Zm-.48-4.83a1.76,1.76,0,0,1,3.52,0,1.77,1.77,0,0,1-3.52,0Z"/><path class="cls-2" d="M1405.92,81.55V79.08H1404V77l2-.09.35-2.4h2.27v2.4h3.17v2.14h-3.17V81.5c0,1.14.53,1.49,1.55,1.49a4.37,4.37,0,0,0,1.46-.26l.48,2a9.72,9.72,0,0,1-2.66.41C1406.88,85.13,1405.92,83.69,1405.92,81.55Z"/><path class="cls-2" d="M55.64,132.73H58.3v-5.25H56.06v-1.7a7.08,7.08,0,0,0,3-1h2v7.94h2.18v2.21H55.64Z"/><path class="cls-2" d="M66.81,133.05a2.08,2.08,0,1,1,2.08,2.08A2,2,0,0,1,66.81,133.05Z"/><path class="cls-2" d="M74.36,133.69,75.58,132a3.53,3.53,0,0,0,2.21,1c1,0,1.73-.41,1.73-1.31s-.71-1.31-1.61-1.31a2.57,2.57,0,0,0-1.56.48L75.16,130l.26-5.22h6.4v2.31h-4l-.13,1.47a3.37,3.37,0,0,1,1.12-.16c1.84,0,3.49,1,3.49,3.14s-1.92,3.58-4.07,3.58A5.34,5.34,0,0,1,74.36,133.69Z"/><path class="cls-2" d="M93.79,131.87v-4.93h2.75v4.57c0,.9.19,1.29.91,1.29a1.32,1.32,0,0,0,1.2-.71v-5.15h2.75v8H99.16L99,133.88h-.06a3.3,3.3,0,0,1-2.6,1.25C94.52,135.13,93.79,133.85,93.79,131.87Z"/><path class="cls-2" d="M103.51,126.94h2.24l.2,1H106a3.8,3.8,0,0,1,2.67-1.16c1.78,0,2.55,1.28,2.55,3.27v4.93h-2.76v-4.58c0-.89-.22-1.28-.92-1.28a1.79,1.79,0,0,0-1.28.61v5.25h-2.76Z"/><path class="cls-2" d="M116.31,129.08h-3v-2.14h5.8v8h-2.76Zm-.48-4.83a1.77,1.77,0,0,1,3.53,0,1.77,1.77,0,0,1-3.53,0Z"/><path class="cls-2" d="M124.28,131.55v-2.47h-1.92V127l2-.09.35-2.4H127v2.4h3.17v2.14H127v2.42c0,1.14.53,1.49,1.56,1.49a4.35,4.35,0,0,0,1.45-.26l.48,2a9.64,9.64,0,0,1-2.65.41C125.24,135.13,124.28,133.69,124.28,131.55Z"/><path class="cls-2" d="M132,133.92l1.16-1.7a6.29,6.29,0,0,0,3.13.89c.71,0,1-.19,1-.47s-.42-.45-1.76-.74c-2.21-.48-3-1.31-3-2.56,0-1.57,1.49-2.6,3.81-2.6a6.75,6.75,0,0,1,3.55,1.12l-1.22,1.64a5.32,5.32,0,0,0-2.59-.74c-.51,0-.83.16-.83.45s.41.38,1.66.67c2.4.55,3.11,1.27,3.11,2.6,0,1.5-1.43,2.65-4.1,2.65A7.65,7.65,0,0,1,132,133.92Z"/><path class="cls-2" d="M235.64,132.73h2.66v-5.25h-2.24v-1.7a7.08,7.08,0,0,0,3-1h2v7.94h2.18v2.21h-7.59Z"/><path class="cls-2" d="M246.81,133.05a2.08,2.08,0,1,1,2.08,2.08A2,2,0,0,1,246.81,133.05Z"/><path class="cls-2" d="M254.36,133.69l1.22-1.73a3.53,3.53,0,0,0,2.21,1c1,0,1.73-.41,1.73-1.31s-.71-1.31-1.61-1.31a2.57,2.57,0,0,0-1.56.48l-1.19-.77.26-5.22h6.4v2.31h-4l-.13,1.47a3.37,3.37,0,0,1,1.12-.16c1.84,0,3.49,1,3.49,3.14s-1.92,3.58-4.07,3.58A5.34,5.34,0,0,1,254.36,133.69Z"/><path class="cls-2" d="M273.79,131.87v-4.93h2.75v4.57c0,.9.19,1.29.91,1.29a1.32,1.32,0,0,0,1.2-.71v-5.15h2.75v8h-2.24l-.19-1.06h-.06a3.3,3.3,0,0,1-2.6,1.25C274.52,135.13,273.79,133.85,273.79,131.87Z"/><path class="cls-2" d="M283.51,126.94h2.24l.2,1H286a3.8,3.8,0,0,1,2.67-1.16c1.78,0,2.55,1.28,2.55,3.27v4.93h-2.76v-4.58c0-.89-.22-1.28-.92-1.28a1.79,1.79,0,0,0-1.28.61v5.25h-2.76Z"/><path class="cls-2" d="M296.31,129.08h-3v-2.14h5.8v8h-2.76Zm-.48-4.83a1.77,1.77,0,0,1,3.53,0,1.77,1.77,0,0,1-3.53,0Z"/><path class="cls-2" d="M304.28,131.55v-2.47h-1.92V127l2.05-.09.35-2.4H307v2.4h3.17v2.14H307v2.42c0,1.14.53,1.49,1.56,1.49a4.35,4.35,0,0,0,1.45-.26l.48,2a9.64,9.64,0,0,1-2.65.41C305.24,135.13,304.28,133.69,304.28,131.55Z"/><path class="cls-2" d="M312,133.92l1.16-1.7a6.29,6.29,0,0,0,3.13.89c.71,0,1-.19,1-.47s-.42-.45-1.76-.74c-2.21-.48-3-1.31-3-2.56,0-1.57,1.49-2.6,3.81-2.6a6.75,6.75,0,0,1,3.55,1.12l-1.22,1.64a5.32,5.32,0,0,0-2.59-.74c-.51,0-.83.16-.83.45s.41.38,1.66.67c2.4.55,3.11,1.27,3.11,2.6,0,1.5-1.43,2.65-4.1,2.65A7.65,7.65,0,0,1,312,133.92Z"/><path class="cls-2" d="M415.64,132.73h2.66v-5.25h-2.24v-1.7a7.08,7.08,0,0,0,3-1h2v7.94h2.18v2.21h-7.59Z"/><path class="cls-2" d="M426.81,133.05a2.08,2.08,0,1,1,2.08,2.08A2,2,0,0,1,426.81,133.05Z"/><path class="cls-2" d="M434.36,133.69l1.22-1.73a3.53,3.53,0,0,0,2.21,1c1,0,1.72-.41,1.72-1.31s-.7-1.31-1.6-1.31a2.57,2.57,0,0,0-1.56.48l-1.19-.77.26-5.22h6.4v2.31h-4l-.13,1.47a3.37,3.37,0,0,1,1.12-.16c1.84,0,3.49,1,3.49,3.14s-1.92,3.58-4.07,3.58A5.34,5.34,0,0,1,434.36,133.69Z"/><path class="cls-2" d="M453.79,131.87v-4.93h2.75v4.57c0,.9.19,1.29.91,1.29a1.32,1.32,0,0,0,1.2-.71v-5.15h2.75v8h-2.24l-.19-1.06h-.06a3.3,3.3,0,0,1-2.6,1.25C454.52,135.13,453.79,133.85,453.79,131.87Z"/><path class="cls-2" d="M463.51,126.94h2.24l.2,1H466a3.8,3.8,0,0,1,2.67-1.16c1.78,0,2.55,1.28,2.55,3.27v4.93h-2.76v-4.58c0-.89-.22-1.28-.92-1.28a1.79,1.79,0,0,0-1.28.61v5.25h-2.76Z"/><path class="cls-2" d="M476.31,129.08h-3v-2.14h5.8v8h-2.76Zm-.48-4.83a1.77,1.77,0,0,1,3.53,0,1.77,1.77,0,0,1-3.53,0Z"/><path class="cls-2" d="M484.28,131.55v-2.47h-1.92V127l2.05-.09.35-2.4H487v2.4h3.17v2.14H487v2.42c0,1.14.53,1.49,1.56,1.49a4.35,4.35,0,0,0,1.45-.26l.48,2a9.64,9.64,0,0,1-2.65.41C485.24,135.13,484.28,133.69,484.28,131.55Z"/><path class="cls-2" d="M492,133.92l1.16-1.7a6.26,6.26,0,0,0,3.13.89c.71,0,1-.19,1-.47s-.42-.45-1.76-.74c-2.21-.48-3-1.31-3-2.56,0-1.57,1.49-2.6,3.81-2.6a6.75,6.75,0,0,1,3.55,1.12l-1.22,1.64a5.32,5.32,0,0,0-2.59-.74c-.51,0-.83.16-.83.45s.41.38,1.66.67c2.4.55,3.11,1.27,3.11,2.6,0,1.5-1.43,2.65-4.1,2.65A7.65,7.65,0,0,1,492,133.92Z"/><path class="cls-2" d="M595.64,132.73h2.66v-5.25h-2.24v-1.7a7.08,7.08,0,0,0,3-1h2v7.94h2.18v2.21h-7.59Z"/><path class="cls-2" d="M606.81,133.05a2.08,2.08,0,1,1,2.08,2.08A2,2,0,0,1,606.81,133.05Z"/><path class="cls-2" d="M614.36,133.69l1.22-1.73a3.53,3.53,0,0,0,2.21,1c1.05,0,1.72-.41,1.72-1.31s-.7-1.31-1.6-1.31a2.57,2.57,0,0,0-1.56.48l-1.19-.77.26-5.22h6.4v2.31h-4l-.13,1.47a3.37,3.37,0,0,1,1.12-.16c1.84,0,3.49,1,3.49,3.14s-1.92,3.58-4.07,3.58A5.34,5.34,0,0,1,614.36,133.69Z"/><path class="cls-2" d="M633.79,131.87v-4.93h2.75v4.57c0,.9.19,1.29.91,1.29a1.32,1.32,0,0,0,1.2-.71v-5.15h2.75v8h-2.24l-.19-1.06h-.06a3.3,3.3,0,0,1-2.6,1.25C634.52,135.13,633.79,133.85,633.79,131.87Z"/><path class="cls-2" d="M643.51,126.94h2.24l.2,1H646a3.8,3.8,0,0,1,2.67-1.16c1.78,0,2.55,1.28,2.55,3.27v4.93h-2.76v-4.58c0-.89-.22-1.28-.92-1.28a1.79,1.79,0,0,0-1.28.61v5.25h-2.76Z"/><path class="cls-2" d="M656.31,129.08h-3v-2.14h5.8v8h-2.76Zm-.48-4.83a1.77,1.77,0,0,1,3.53,0,1.77,1.77,0,0,1-3.53,0Z"/><path class="cls-2" d="M664.28,131.55v-2.47h-1.92V127l2-.09.35-2.4H667v2.4h3.17v2.14H667v2.42c0,1.14.53,1.49,1.56,1.49a4.35,4.35,0,0,0,1.45-.26l.48,2a9.64,9.64,0,0,1-2.65.41C665.24,135.13,664.28,133.69,664.28,131.55Z"/><path class="cls-2" d="M672,133.92l1.16-1.7a6.26,6.26,0,0,0,3.13.89c.71,0,1-.19,1-.47s-.42-.45-1.76-.74c-2.21-.48-3-1.31-3-2.56,0-1.57,1.49-2.6,3.81-2.6a6.75,6.75,0,0,1,3.55,1.12l-1.22,1.64a5.32,5.32,0,0,0-2.59-.74c-.51,0-.83.16-.83.45s.41.38,1.66.67c2.4.55,3.11,1.27,3.11,2.6,0,1.5-1.43,2.65-4.1,2.65A7.65,7.65,0,0,1,672,133.92Z"/><path class="cls-2" d="M775.64,132.73h2.66v-5.25h-2.24v-1.7a7.08,7.08,0,0,0,3-1h2v7.94h2.18v2.21h-7.59Z"/><path class="cls-2" d="M786.81,133.05a2.08,2.08,0,1,1,2.08,2.08A2,2,0,0,1,786.81,133.05Z"/><path class="cls-2" d="M794.36,133.69l1.22-1.73a3.53,3.53,0,0,0,2.21,1c1.05,0,1.73-.41,1.73-1.31s-.71-1.31-1.61-1.31a2.57,2.57,0,0,0-1.56.48l-1.19-.77.26-5.22h6.4v2.31h-4l-.13,1.47a3.37,3.37,0,0,1,1.12-.16c1.84,0,3.49,1,3.49,3.14s-1.92,3.58-4.07,3.58A5.34,5.34,0,0,1,794.36,133.69Z"/><path class="cls-2" d="M813.79,131.87v-4.93h2.75v4.57c0,.9.19,1.29.91,1.29a1.32,1.32,0,0,0,1.2-.71v-5.15h2.75v8h-2.24l-.19-1.06h-.06a3.3,3.3,0,0,1-2.6,1.25C814.52,135.13,813.79,133.85,813.79,131.87Z"/><path class="cls-2" d="M823.51,126.94h2.24l.2,1H826a3.8,3.8,0,0,1,2.67-1.16c1.78,0,2.55,1.28,2.55,3.27v4.93h-2.76v-4.58c0-.89-.22-1.28-.92-1.28a1.79,1.79,0,0,0-1.28.61v5.25h-2.76Z"/><path class="cls-2" d="M836.31,129.08h-3v-2.14h5.8v8h-2.76Zm-.48-4.83a1.77,1.77,0,0,1,3.53,0,1.77,1.77,0,0,1-3.53,0Z"/><path class="cls-2" d="M844.28,131.55v-2.47h-1.92V127l2-.09.35-2.4H847v2.4h3.16v2.14H847v2.42c0,1.14.52,1.49,1.55,1.49a4.35,4.35,0,0,0,1.45-.26l.48,2a9.64,9.64,0,0,1-2.65.41C845.24,135.13,844.28,133.69,844.28,131.55Z"/><path class="cls-2" d="M852,133.92l1.16-1.7a6.29,6.29,0,0,0,3.13.89c.71,0,1-.19,1-.47s-.42-.45-1.76-.74c-2.21-.48-3-1.31-3-2.56,0-1.57,1.49-2.6,3.81-2.6a6.75,6.75,0,0,1,3.55,1.12l-1.22,1.64a5.32,5.32,0,0,0-2.59-.74c-.51,0-.83.16-.83.45s.41.38,1.66.67c2.4.55,3.11,1.27,3.11,2.6,0,1.5-1.43,2.65-4.1,2.65A7.65,7.65,0,0,1,852,133.92Z"/><path class="cls-2" d="M955.64,132.73h2.66v-5.25h-2.24v-1.7a7.08,7.08,0,0,0,3-1h2v7.94h2.18v2.21h-7.59Z"/><path class="cls-2" d="M966.81,133.05a2.08,2.08,0,1,1,2.08,2.08A2,2,0,0,1,966.81,133.05Z"/><path class="cls-2" d="M974.36,133.69l1.22-1.73a3.53,3.53,0,0,0,2.21,1c1.05,0,1.73-.41,1.73-1.31s-.71-1.31-1.61-1.31a2.57,2.57,0,0,0-1.56.48l-1.19-.77.26-5.22h6.4v2.31h-4l-.13,1.47a3.37,3.37,0,0,1,1.12-.16c1.84,0,3.49,1,3.49,3.14s-1.92,3.58-4.07,3.58A5.34,5.34,0,0,1,974.36,133.69Z"/><path class="cls-2" d="M993.79,131.87v-4.93h2.75v4.57c0,.9.19,1.29.91,1.29a1.32,1.32,0,0,0,1.2-.71v-5.15h2.75v8h-2.24l-.19-1.06h-.06a3.3,3.3,0,0,1-2.6,1.25C994.52,135.13,993.79,133.85,993.79,131.87Z"/><path class="cls-2" d="M1003.51,126.94h2.24l.2,1h.06a3.8,3.8,0,0,1,2.67-1.16c1.78,0,2.55,1.28,2.55,3.27v4.93h-2.76v-4.58c0-.89-.22-1.28-.92-1.28a1.79,1.79,0,0,0-1.28.61v5.25h-2.76Z"/><path class="cls-2" d="M1016.31,129.08h-3v-2.14h5.8v8h-2.76Zm-.48-4.83a1.77,1.77,0,0,1,3.53,0,1.77,1.77,0,0,1-3.53,0Z"/><path class="cls-2" d="M1024.28,131.55v-2.47h-1.92V127l2.05-.09.35-2.4H1027v2.4h3.16v2.14H1027v2.42c0,1.14.52,1.49,1.55,1.49a4.35,4.35,0,0,0,1.45-.26l.48,2a9.64,9.64,0,0,1-2.65.41C1025.24,135.13,1024.28,133.69,1024.28,131.55Z"/><path class="cls-2" d="M1032,133.92l1.16-1.7a6.29,6.29,0,0,0,3.13.89c.71,0,1-.19,1-.47s-.42-.45-1.76-.74c-2.21-.48-3-1.31-3-2.56,0-1.57,1.49-2.6,3.81-2.6a6.75,6.75,0,0,1,3.55,1.12l-1.22,1.64a5.32,5.32,0,0,0-2.59-.74c-.51,0-.83.16-.83.45s.41.38,1.66.67c2.4.55,3.11,1.27,3.11,2.6,0,1.5-1.43,2.65-4.1,2.65A7.65,7.65,0,0,1,1032,133.92Z"/><path class="cls-2" d="M1135.64,132.73h2.66v-5.25h-2.24v-1.7a7.08,7.08,0,0,0,3-1h2v7.94h2.18v2.21h-7.59Z"/><path class="cls-2" d="M1146.81,133.05a2.08,2.08,0,1,1,2.08,2.08A2,2,0,0,1,1146.81,133.05Z"/><path class="cls-2" d="M1154.36,133.69l1.22-1.73a3.53,3.53,0,0,0,2.21,1c1,0,1.73-.41,1.73-1.31s-.71-1.31-1.61-1.31a2.57,2.57,0,0,0-1.56.48l-1.19-.77.26-5.22h6.4v2.31h-4l-.13,1.47a3.37,3.37,0,0,1,1.12-.16c1.84,0,3.49,1,3.49,3.14s-1.92,3.58-4.07,3.58A5.34,5.34,0,0,1,1154.36,133.69Z"/><path class="cls-2" d="M1173.79,131.87v-4.93h2.75v4.57c0,.9.19,1.29.91,1.29a1.32,1.32,0,0,0,1.2-.71v-5.15h2.75v8h-2.24l-.19-1.06h-.06a3.3,3.3,0,0,1-2.6,1.25C1174.52,135.13,1173.79,133.85,1173.79,131.87Z"/><path class="cls-2" d="M1183.51,126.94h2.24l.2,1h.06a3.8,3.8,0,0,1,2.67-1.16c1.78,0,2.55,1.28,2.55,3.27v4.93h-2.76v-4.58c0-.89-.22-1.28-.92-1.28a1.79,1.79,0,0,0-1.28.61v5.25h-2.76Z"/><path class="cls-2" d="M1196.31,129.08h-3v-2.14h5.8v8h-2.76Zm-.48-4.83a1.77,1.77,0,0,1,3.53,0,1.77,1.77,0,0,1-3.53,0Z"/><path class="cls-2" d="M1204.28,131.55v-2.47h-1.92V127l2.05-.09.35-2.4H1207v2.4h3.16v2.14H1207v2.42c0,1.14.52,1.49,1.55,1.49a4.35,4.35,0,0,0,1.45-.26l.48,2a9.64,9.64,0,0,1-2.65.41C1205.24,135.13,1204.28,133.69,1204.28,131.55Z"/><path class="cls-2" d="M1212,133.92l1.16-1.7a6.29,6.29,0,0,0,3.13.89c.71,0,1-.19,1-.47s-.42-.45-1.76-.74c-2.21-.48-3-1.31-3-2.56,0-1.57,1.49-2.6,3.81-2.6a6.75,6.75,0,0,1,3.55,1.12l-1.22,1.64a5.32,5.32,0,0,0-2.59-.74c-.51,0-.83.16-.83.45s.41.38,1.66.67c2.4.55,3.11,1.27,3.11,2.6,0,1.5-1.43,2.65-4.1,2.65A7.65,7.65,0,0,1,1212,133.92Z"/><path class="cls-2" d="M1315.64,132.73h2.66v-5.25h-2.24v-1.7a7.08,7.08,0,0,0,3-1h2v7.94h2.18v2.21h-7.59Z"/><path class="cls-2" d="M1326.81,133.05a2.08,2.08,0,1,1,2.08,2.08A2,2,0,0,1,1326.81,133.05Z"/><path class="cls-2" d="M1334.36,133.69l1.22-1.73a3.53,3.53,0,0,0,2.21,1c1,0,1.73-.41,1.73-1.31s-.71-1.31-1.61-1.31a2.57,2.57,0,0,0-1.56.48l-1.19-.77.26-5.22h6.4v2.31h-4l-.13,1.47a3.37,3.37,0,0,1,1.12-.16c1.84,0,3.49,1,3.49,3.14s-1.92,3.58-4.07,3.58A5.34,5.34,0,0,1,1334.36,133.69Z"/><path class="cls-2" d="M1353.79,131.87v-4.93h2.75v4.57c0,.9.19,1.29.91,1.29a1.32,1.32,0,0,0,1.2-.71v-5.15h2.75v8h-2.24l-.19-1.06h-.06a3.3,3.3,0,0,1-2.6,1.25C1354.52,135.13,1353.79,133.85,1353.79,131.87Z"/><path class="cls-2" d="M1363.51,126.94h2.24l.2,1h.06a3.8,3.8,0,0,1,2.67-1.16c1.78,0,2.55,1.28,2.55,3.27v4.93h-2.76v-4.58c0-.89-.22-1.28-.92-1.28a1.79,1.79,0,0,0-1.28.61v5.25h-2.76Z"/><path class="cls-2" d="M1376.31,129.08h-3v-2.14h5.8v8h-2.76Zm-.48-4.83a1.77,1.77,0,0,1,3.53,0,1.77,1.77,0,0,1-3.53,0Z"/><path class="cls-2" d="M1384.28,131.55v-2.47h-1.92V127l2.05-.09.35-2.4H1387v2.4h3.16v2.14H1387v2.42c0,1.14.52,1.49,1.55,1.49a4.35,4.35,0,0,0,1.45-.26l.48,2a9.64,9.64,0,0,1-2.65.41C1385.24,135.13,1384.28,133.69,1384.28,131.55Z"/><path class="cls-2" d="M1392,133.92l1.16-1.7a6.29,6.29,0,0,0,3.13.89c.71,0,1-.19,1-.47s-.42-.45-1.76-.74c-2.21-.48-3-1.31-3-2.56,0-1.57,1.49-2.6,3.81-2.6a6.75,6.75,0,0,1,3.55,1.12l-1.22,1.64a5.32,5.32,0,0,0-2.59-.74c-.51,0-.83.16-.83.45s.41.38,1.66.67c2.4.55,3.11,1.27,3.11,2.6,0,1.5-1.43,2.65-4.1,2.65A7.65,7.65,0,0,1,1392,133.92Z"/><path class="cls-2" d="M115.32,183.37c2.71-2.21,4.69-3.9,4.69-5.28,0-.91-.57-1.35-1.47-1.35a3,3,0,0,0-1.89,1l-1.46-1.47a4.75,4.75,0,0,1,3.73-1.63c2.18,0,3.7,1.31,3.7,3.33,0,1.63-1.7,3.42-3.36,4.83.56-.06,1.33-.12,1.82-.12h2v2.3h-7.81Z"/><path class="cls-2" d="M126.81,183.05a2.08,2.08,0,1,1,2.08,2.08A2,2,0,0,1,126.81,183.05Z"/><path class="cls-2" d="M134.36,183.69l1.22-1.73a3.53,3.53,0,0,0,2.21,1c1.05,0,1.73-.41,1.73-1.31s-.71-1.31-1.61-1.31a2.57,2.57,0,0,0-1.56.48l-1.19-.77.26-5.22h6.4v2.31h-4l-.13,1.47a3.37,3.37,0,0,1,1.12-.16c1.84,0,3.49,1,3.49,3.14s-1.92,3.58-4.07,3.58A5.34,5.34,0,0,1,134.36,183.69Z"/><path class="cls-2" d="M153.79,181.87v-4.93h2.75v4.57c0,.9.19,1.29.91,1.29a1.32,1.32,0,0,0,1.2-.71v-5.15h2.75v8h-2.24l-.19-1.06h-.06a3.3,3.3,0,0,1-2.6,1.25C154.52,185.13,153.79,183.85,153.79,181.87Z"/><path class="cls-2" d="M163.51,176.94h2.24l.2,1H166a3.8,3.8,0,0,1,2.67-1.16c1.78,0,2.55,1.28,2.55,3.27v4.93h-2.76v-4.58c0-.89-.22-1.28-.92-1.28a1.79,1.79,0,0,0-1.28.61v5.25h-2.76Z"/><path class="cls-2" d="M176.31,179.08h-3v-2.14h5.8v8h-2.76Zm-.48-4.83a1.77,1.77,0,0,1,3.53,0,1.77,1.77,0,0,1-3.53,0Z"/><path class="cls-2" d="M184.28,181.55v-2.47h-1.92V177l2-.09.35-2.4H187v2.4h3.17v2.14H187v2.42c0,1.14.53,1.49,1.56,1.49a4.35,4.35,0,0,0,1.45-.26l.48,2a9.64,9.64,0,0,1-2.65.41C185.24,185.13,184.28,183.69,184.28,181.55Z"/><path class="cls-2" d="M192,183.92l1.16-1.7a6.29,6.29,0,0,0,3.13.89c.71,0,1-.19,1-.47s-.42-.45-1.76-.74c-2.21-.48-3-1.31-3-2.56,0-1.57,1.49-2.6,3.81-2.6a6.75,6.75,0,0,1,3.55,1.12l-1.22,1.64a5.32,5.32,0,0,0-2.59-.74c-.51,0-.83.16-.83.45s.41.38,1.66.67c2.4.55,3.11,1.27,3.11,2.6,0,1.5-1.43,2.65-4.1,2.65A7.65,7.65,0,0,1,192,183.92Z"/><path class="cls-2" d="M415.32,183.37c2.71-2.21,4.69-3.9,4.69-5.28,0-.91-.57-1.35-1.47-1.35a3,3,0,0,0-1.89,1l-1.46-1.47a4.75,4.75,0,0,1,3.73-1.63c2.18,0,3.7,1.31,3.7,3.33,0,1.63-1.7,3.42-3.36,4.83.56-.06,1.33-.12,1.82-.12h2.05v2.3h-7.81Z"/><path class="cls-2" d="M426.81,183.05a2.08,2.08,0,1,1,2.08,2.08A2,2,0,0,1,426.81,183.05Z"/><path class="cls-2" d="M434.36,183.69l1.22-1.73a3.53,3.53,0,0,0,2.21,1c1,0,1.73-.41,1.73-1.31s-.71-1.31-1.6-1.31a2.58,2.58,0,0,0-1.57.48l-1.19-.77.26-5.22h6.4v2.31h-4l-.13,1.47a3.41,3.41,0,0,1,1.12-.16c1.84,0,3.49,1,3.49,3.14s-1.92,3.58-4.07,3.58A5.34,5.34,0,0,1,434.36,183.69Z"/><path class="cls-2" d="M453.79,181.87v-4.93h2.75v4.57c0,.9.19,1.29.91,1.29a1.3,1.3,0,0,0,1.2-.71v-5.15h2.75v8h-2.24l-.19-1.06h-.06a3.29,3.29,0,0,1-2.6,1.25C454.52,185.13,453.79,183.85,453.79,181.87Z"/><path class="cls-2" d="M463.51,176.94h2.24l.2,1H466a3.8,3.8,0,0,1,2.67-1.16c1.78,0,2.55,1.28,2.55,3.27v4.93h-2.76v-4.58c0-.89-.22-1.28-.92-1.28a1.79,1.79,0,0,0-1.28.61v5.25h-2.76Z"/><path class="cls-2" d="M476.31,179.08h-3v-2.14h5.8v8h-2.76Zm-.48-4.83a1.77,1.77,0,0,1,3.53,0,1.77,1.77,0,0,1-3.53,0Z"/><path class="cls-2" d="M484.28,181.55v-2.47h-1.92V177l2.05-.09.35-2.4H487v2.4h3.16v2.14H487v2.42c0,1.14.52,1.49,1.55,1.49a4.35,4.35,0,0,0,1.45-.26l.48,2a9.64,9.64,0,0,1-2.65.41C485.24,185.13,484.28,183.69,484.28,181.55Z"/><path class="cls-2" d="M492,183.92l1.16-1.7a6.29,6.29,0,0,0,3.13.89c.71,0,1-.19,1-.47s-.42-.45-1.76-.74c-2.21-.48-3-1.31-3-2.56,0-1.57,1.49-2.6,3.81-2.6a6.75,6.75,0,0,1,3.55,1.12l-1.22,1.64a5.32,5.32,0,0,0-2.59-.74c-.51,0-.83.16-.83.45s.41.38,1.66.67c2.4.55,3.11,1.27,3.11,2.6,0,1.5-1.43,2.65-4.1,2.65A7.65,7.65,0,0,1,492,183.92Z"/><path class="cls-2" d="M715.32,183.37c2.71-2.21,4.69-3.9,4.69-5.28,0-.91-.57-1.35-1.47-1.35a3,3,0,0,0-1.89,1l-1.46-1.47a4.75,4.75,0,0,1,3.73-1.63c2.18,0,3.7,1.31,3.7,3.33,0,1.63-1.7,3.42-3.36,4.83.56-.06,1.33-.12,1.82-.12h2v2.3h-7.81Z"/><path class="cls-2" d="M726.81,183.05a2.08,2.08,0,1,1,2.08,2.08A2,2,0,0,1,726.81,183.05Z"/><path class="cls-2" d="M734.36,183.69l1.22-1.73a3.53,3.53,0,0,0,2.21,1c1.05,0,1.73-.41,1.73-1.31s-.71-1.31-1.6-1.31a2.58,2.58,0,0,0-1.57.48l-1.19-.77.26-5.22h6.4v2.31h-4l-.13,1.47a3.41,3.41,0,0,1,1.12-.16c1.84,0,3.49,1,3.49,3.14s-1.92,3.58-4.07,3.58A5.34,5.34,0,0,1,734.36,183.69Z"/><path class="cls-2" d="M753.79,181.87v-4.93h2.75v4.57c0,.9.19,1.29.91,1.29a1.3,1.3,0,0,0,1.2-.71v-5.15h2.75v8h-2.24l-.19-1.06h-.06a3.29,3.29,0,0,1-2.6,1.25C754.52,185.13,753.79,183.85,753.79,181.87Z"/><path class="cls-2" d="M763.51,176.94h2.24l.2,1H766a3.8,3.8,0,0,1,2.67-1.16c1.78,0,2.55,1.28,2.55,3.27v4.93h-2.76v-4.58c0-.89-.22-1.28-.92-1.28a1.79,1.79,0,0,0-1.28.61v5.25h-2.76Z"/><path class="cls-2" d="M776.31,179.08h-3v-2.14h5.8v8h-2.76Zm-.48-4.83a1.77,1.77,0,0,1,3.53,0,1.77,1.77,0,0,1-3.53,0Z"/><path class="cls-2" d="M784.28,181.55v-2.47h-1.92V177l2-.09.35-2.4H787v2.4h3.16v2.14H787v2.42c0,1.14.52,1.49,1.55,1.49a4.35,4.35,0,0,0,1.45-.26l.48,2a9.64,9.64,0,0,1-2.65.41C785.24,185.13,784.28,183.69,784.28,181.55Z"/><path class="cls-2" d="M792,183.92l1.16-1.7a6.29,6.29,0,0,0,3.13.89c.71,0,1-.19,1-.47s-.42-.45-1.76-.74c-2.21-.48-3-1.31-3-2.56,0-1.57,1.49-2.6,3.81-2.6a6.75,6.75,0,0,1,3.55,1.12l-1.22,1.64a5.32,5.32,0,0,0-2.59-.74c-.51,0-.83.16-.83.45s.41.38,1.66.67c2.4.55,3.11,1.27,3.11,2.6,0,1.5-1.43,2.65-4.1,2.65A7.65,7.65,0,0,1,792,183.92Z"/><path class="cls-2" d="M1015.32,183.37c2.71-2.21,4.69-3.9,4.69-5.28,0-.91-.57-1.35-1.47-1.35a3,3,0,0,0-1.89,1l-1.46-1.47a4.75,4.75,0,0,1,3.73-1.63c2.18,0,3.7,1.31,3.7,3.33,0,1.63-1.7,3.42-3.36,4.83.56-.06,1.33-.12,1.82-.12h2v2.3h-7.81Z"/><path class="cls-2" d="M1026.81,183.05a2.08,2.08,0,1,1,2.08,2.08A2,2,0,0,1,1026.81,183.05Z"/><path class="cls-2" d="M1034.36,183.69l1.22-1.73a3.53,3.53,0,0,0,2.21,1c1,0,1.73-.41,1.73-1.31s-.71-1.31-1.6-1.31a2.58,2.58,0,0,0-1.57.48l-1.19-.77.26-5.22h6.4v2.31h-4l-.13,1.47a3.41,3.41,0,0,1,1.12-.16c1.84,0,3.49,1,3.49,3.14s-1.92,3.58-4.07,3.58A5.34,5.34,0,0,1,1034.36,183.69Z"/><path class="cls-2" d="M1053.79,181.87v-4.93h2.75v4.57c0,.9.19,1.29.91,1.29a1.3,1.3,0,0,0,1.2-.71v-5.15h2.75v8h-2.24l-.19-1.06h-.06a3.29,3.29,0,0,1-2.6,1.25C1054.52,185.13,1053.79,183.85,1053.79,181.87Z"/><path class="cls-2" d="M1063.51,176.94h2.24l.2,1h.06a3.8,3.8,0,0,1,2.67-1.16c1.78,0,2.55,1.28,2.55,3.27v4.93h-2.76v-4.58c0-.89-.22-1.28-.92-1.28a1.79,1.79,0,0,0-1.28.61v5.25h-2.76Z"/><path class="cls-2" d="M1076.31,179.08h-3v-2.14h5.8v8h-2.76Zm-.48-4.83a1.77,1.77,0,0,1,3.53,0,1.77,1.77,0,0,1-3.53,0Z"/><path class="cls-2" d="M1084.28,181.55v-2.47h-1.92V177l2.05-.09.35-2.4H1087v2.4h3.16v2.14H1087v2.42c0,1.14.52,1.49,1.55,1.49a4.35,4.35,0,0,0,1.45-.26l.48,2a9.64,9.64,0,0,1-2.65.41C1085.24,185.13,1084.28,183.69,1084.28,181.55Z"/><path class="cls-2" d="M1092,183.92l1.16-1.7a6.29,6.29,0,0,0,3.13.89c.71,0,1-.19,1-.47s-.42-.45-1.76-.74c-2.21-.48-3-1.31-3-2.56,0-1.57,1.49-2.6,3.81-2.6a6.75,6.75,0,0,1,3.55,1.12l-1.22,1.64a5.32,5.32,0,0,0-2.59-.74c-.51,0-.83.16-.83.45s.41.38,1.66.67c2.4.55,3.11,1.27,3.11,2.6,0,1.5-1.43,2.65-4.1,2.65A7.65,7.65,0,0,1,1092,183.92Z"/><path class="cls-2" d="M175.07,233.69l1.24-1.73a3.76,3.76,0,0,0,2.31,1c1,0,1.7-.32,1.7-1s-.56-1.21-2.82-1.21v-1.92c1.82,0,2.5-.45,2.5-1.16s-.48-.93-1.29-.93a3.13,3.13,0,0,0-2,.84l-1.38-1.67a5.56,5.56,0,0,1,3.52-1.31c2.34,0,3.91,1,3.91,2.87,0,1-.66,1.71-1.86,2.19v.06a2.58,2.58,0,0,1,2.18,2.43c0,1.93-2,3-4.16,3A5,5,0,0,1,175.07,233.69Z"/><path class="cls-2" d="M186.81,233.05a2.08,2.08,0,1,1,2.08,2.08A2,2,0,0,1,186.81,233.05Z"/><path class="cls-2" d="M194.36,233.69l1.22-1.73a3.53,3.53,0,0,0,2.21,1c1.05,0,1.73-.41,1.73-1.31s-.71-1.31-1.61-1.31a2.57,2.57,0,0,0-1.56.48l-1.19-.77.26-5.22h6.4v2.31h-4l-.13,1.47a3.37,3.37,0,0,1,1.12-.16c1.84,0,3.49,1,3.49,3.14s-1.92,3.58-4.07,3.58A5.34,5.34,0,0,1,194.36,233.69Z"/><path class="cls-2" d="M213.79,231.87v-4.93h2.75v4.57c0,.9.19,1.29.91,1.29a1.32,1.32,0,0,0,1.2-.71v-5.15h2.75v8h-2.24l-.19-1.06h-.06a3.3,3.3,0,0,1-2.6,1.25C214.52,235.13,213.79,233.85,213.79,231.87Z"/><path class="cls-2" d="M223.51,226.94h2.24l.2,1H226a3.8,3.8,0,0,1,2.67-1.16c1.78,0,2.55,1.28,2.55,3.27v4.93h-2.76v-4.58c0-.89-.22-1.28-.92-1.28a1.79,1.79,0,0,0-1.28.61v5.25h-2.76Z"/><path class="cls-2" d="M236.31,229.08h-3v-2.14h5.8v8h-2.76Zm-.48-4.83a1.77,1.77,0,0,1,3.53,0,1.77,1.77,0,0,1-3.53,0Z"/><path class="cls-2" d="M244.28,231.55v-2.47h-1.92V227l2-.09.35-2.4H247v2.4h3.17v2.14H247v2.42c0,1.14.53,1.49,1.56,1.49a4.35,4.35,0,0,0,1.45-.26l.48,2a9.64,9.64,0,0,1-2.65.41C245.24,235.13,244.28,233.69,244.28,231.55Z"/><path class="cls-2" d="M252,233.92l1.16-1.7a6.29,6.29,0,0,0,3.13.89c.71,0,1-.19,1-.47s-.42-.45-1.76-.74c-2.21-.48-3-1.31-3-2.56,0-1.57,1.49-2.6,3.81-2.6a6.75,6.75,0,0,1,3.55,1.12l-1.22,1.64a5.32,5.32,0,0,0-2.59-.74c-.51,0-.83.16-.83.45s.41.38,1.66.67c2.4.55,3.11,1.27,3.11,2.6,0,1.5-1.43,2.65-4.1,2.65A7.65,7.65,0,0,1,252,233.92Z"/><path class="cls-2" d="M595.07,233.69l1.24-1.73a3.76,3.76,0,0,0,2.31,1c1,0,1.7-.32,1.7-1s-.57-1.21-2.82-1.21v-1.92c1.82,0,2.5-.45,2.5-1.16s-.49-.93-1.29-.93a3.13,3.13,0,0,0-2,.84l-1.38-1.67a5.56,5.56,0,0,1,3.52-1.31c2.34,0,3.91,1,3.91,2.87,0,1-.66,1.71-1.86,2.19v.06a2.58,2.58,0,0,1,2.18,2.43c0,1.93-2,3-4.16,3A5,5,0,0,1,595.07,233.69Z"/><path class="cls-2" d="M606.81,233.05a2.08,2.08,0,1,1,2.08,2.08A2,2,0,0,1,606.81,233.05Z"/><path class="cls-2" d="M614.36,233.69l1.22-1.73a3.53,3.53,0,0,0,2.21,1c1.05,0,1.72-.41,1.72-1.31s-.7-1.31-1.6-1.31a2.57,2.57,0,0,0-1.56.48l-1.19-.77.26-5.22h6.4v2.31h-4l-.13,1.47a3.37,3.37,0,0,1,1.12-.16c1.84,0,3.49,1,3.49,3.14s-1.92,3.58-4.07,3.58A5.34,5.34,0,0,1,614.36,233.69Z"/><path class="cls-2" d="M633.79,231.87v-4.93h2.75v4.57c0,.9.19,1.29.91,1.29a1.32,1.32,0,0,0,1.2-.71v-5.15h2.75v8h-2.24l-.19-1.06h-.06a3.3,3.3,0,0,1-2.6,1.25C634.52,235.13,633.79,233.85,633.79,231.87Z"/><path class="cls-2" d="M643.51,226.94h2.24l.2,1H646a3.8,3.8,0,0,1,2.67-1.16c1.78,0,2.55,1.28,2.55,3.27v4.93h-2.76v-4.58c0-.89-.22-1.28-.92-1.28a1.79,1.79,0,0,0-1.28.61v5.25h-2.76Z"/><path class="cls-2" d="M656.31,229.08h-3v-2.14h5.8v8h-2.76Zm-.48-4.83a1.77,1.77,0,0,1,3.53,0,1.77,1.77,0,0,1-3.53,0Z"/><path class="cls-2" d="M664.28,231.55v-2.47h-1.92V227l2-.09.35-2.4H667v2.4h3.17v2.14H667v2.42c0,1.14.53,1.49,1.56,1.49a4.35,4.35,0,0,0,1.45-.26l.48,2a9.64,9.64,0,0,1-2.65.41C665.24,235.13,664.28,233.69,664.28,231.55Z"/><path class="cls-2" d="M672,233.92l1.16-1.7a6.26,6.26,0,0,0,3.13.89c.71,0,1-.19,1-.47s-.42-.45-1.76-.74c-2.21-.48-3-1.31-3-2.56,0-1.57,1.49-2.6,3.81-2.6a6.75,6.75,0,0,1,3.55,1.12l-1.22,1.64a5.32,5.32,0,0,0-2.59-.74c-.51,0-.83.16-.83.45s.41.38,1.66.67c2.4.55,3.11,1.27,3.11,2.6,0,1.5-1.43,2.65-4.1,2.65A7.65,7.65,0,0,1,672,233.92Z"/><path class="cls-2" d="M1015.07,233.69l1.24-1.73a3.76,3.76,0,0,0,2.31,1c1,0,1.7-.32,1.7-1s-.57-1.21-2.82-1.21v-1.92c1.82,0,2.5-.45,2.5-1.16s-.49-.93-1.29-.93a3.13,3.13,0,0,0-2,.84l-1.38-1.67a5.56,5.56,0,0,1,3.52-1.31c2.34,0,3.91,1,3.91,2.87,0,1-.66,1.71-1.86,2.19v.06a2.58,2.58,0,0,1,2.18,2.43c0,1.93-2,3-4.16,3A5,5,0,0,1,1015.07,233.69Z"/><path class="cls-2" d="M1026.81,233.05a2.08,2.08,0,1,1,2.08,2.08A2,2,0,0,1,1026.81,233.05Z"/><path class="cls-2" d="M1034.36,233.69l1.22-1.73a3.53,3.53,0,0,0,2.21,1c1,0,1.72-.41,1.72-1.31s-.7-1.31-1.6-1.31a2.57,2.57,0,0,0-1.56.48l-1.19-.77.26-5.22h6.4v2.31h-4l-.13,1.47a3.37,3.37,0,0,1,1.12-.16c1.84,0,3.49,1,3.49,3.14s-1.92,3.58-4.07,3.58A5.34,5.34,0,0,1,1034.36,233.69Z"/><path class="cls-2" d="M1053.79,231.87v-4.93h2.75v4.57c0,.9.19,1.29.91,1.29a1.32,1.32,0,0,0,1.2-.71v-5.15h2.75v8h-2.24l-.19-1.06h-.06a3.3,3.3,0,0,1-2.6,1.25C1054.52,235.13,1053.79,233.85,1053.79,231.87Z"/><path class="cls-2" d="M1063.51,226.94h2.24l.2,1h.06a3.8,3.8,0,0,1,2.67-1.16c1.78,0,2.55,1.28,2.55,3.27v4.93h-2.76v-4.58c0-.89-.22-1.28-.92-1.28a1.79,1.79,0,0,0-1.28.61v5.25h-2.76Z"/><path class="cls-2" d="M1076.31,229.08h-3v-2.14h5.8v8h-2.76Zm-.48-4.83a1.77,1.77,0,0,1,3.53,0,1.77,1.77,0,0,1-3.53,0Z"/><path class="cls-2" d="M1084.28,231.55v-2.47h-1.92V227l2.05-.09.35-2.4H1087v2.4h3.17v2.14H1087v2.42c0,1.14.53,1.49,1.56,1.49a4.35,4.35,0,0,0,1.45-.26l.48,2a9.64,9.64,0,0,1-2.65.41C1085.24,235.13,1084.28,233.69,1084.28,231.55Z"/><path class="cls-2" d="M1092,233.92l1.16-1.7a6.26,6.26,0,0,0,3.13.89c.71,0,1-.19,1-.47s-.42-.45-1.76-.74c-2.21-.48-3-1.31-3-2.56,0-1.57,1.49-2.6,3.81-2.6a6.75,6.75,0,0,1,3.55,1.12l-1.22,1.64a5.32,5.32,0,0,0-2.59-.74c-.51,0-.83.16-.83.45s.41.38,1.66.67c2.4.55,3.11,1.27,3.11,2.6,0,1.5-1.43,2.65-4.1,2.65A7.65,7.65,0,0,1,1092,233.92Z"/><path class="cls-2" d="M22,29.82c0-3.48,1.62-5.22,4-5.22s4,1.74,4,5.22-1.62,5.31-4,5.31S22,33.29,22,29.82Zm5.57,0c0-2.53-.72-3.11-1.57-3.11s-1.56.58-1.56,3.11S25.12,33,26,33,27.53,32.35,27.53,29.82Zm-2.85,0A1.29,1.29,0,1,1,26,31.1,1.23,1.23,0,0,1,24.68,29.82Z"/><path class="cls-2" d="M33.48,33.05a2.09,2.09,0,1,1,2.08,2.08A2,2,0,0,1,33.48,33.05Z"/><path class="cls-2" d="M41,33.69,42.25,32a3.56,3.56,0,0,0,2.21,1c1.06,0,1.73-.41,1.73-1.31s-.71-1.31-1.6-1.31a2.58,2.58,0,0,0-1.57.48L41.84,30l.25-5.22h6.4V27.1h-4l-.13,1.47a3.41,3.41,0,0,1,1.12-.16c1.84,0,3.49,1,3.49,3.14S47,35.13,44.88,35.13A5.3,5.3,0,0,1,41,33.69Z"/><path class="cls-2" d="M83,29.82c0-3.48,1.62-5.22,4-5.22s4,1.74,4,5.22-1.61,5.31-4,5.31S83,33.29,83,29.82Zm5.57,0c0-2.53-.72-3.11-1.57-3.11s-1.57.58-1.57,3.11S86.1,33,87,33,88.52,32.35,88.52,29.82Zm-2.85,0A1.28,1.28,0,1,1,87,31.1,1.23,1.23,0,0,1,85.67,29.82Z"/><path class="cls-2" d="M94.47,33.05a2.08,2.08,0,1,1,2.08,2.08A2,2,0,0,1,94.47,33.05Z"/><path class="cls-2" d="M102,33.69,103.24,32a3.56,3.56,0,0,0,2.21,1c1,0,1.73-.41,1.73-1.31s-.71-1.31-1.6-1.31a2.58,2.58,0,0,0-1.57.48L102.82,30l.26-5.22h6.4V27.1h-4l-.13,1.47a3.41,3.41,0,0,1,1.12-.16c1.84,0,3.49,1,3.49,3.14s-1.92,3.58-4.07,3.58A5.34,5.34,0,0,1,102,33.69Z"/><path class="cls-2" d="M143,29.82c0-3.48,1.62-5.22,4-5.22s4,1.74,4,5.22-1.61,5.31-4,5.31S143,33.29,143,29.82Zm5.57,0c0-2.53-.72-3.11-1.57-3.11s-1.57.58-1.57,3.11S146.1,33,147,33,148.52,32.35,148.52,29.82Zm-2.85,0A1.28,1.28,0,1,1,147,31.1,1.23,1.23,0,0,1,145.67,29.82Z"/><path class="cls-2" d="M154.47,33.05a2.08,2.08,0,1,1,2.08,2.08A2,2,0,0,1,154.47,33.05Z"/><path class="cls-2" d="M162,33.69,163.24,32a3.56,3.56,0,0,0,2.21,1c1.05,0,1.73-.41,1.73-1.31s-.71-1.31-1.6-1.31a2.58,2.58,0,0,0-1.57.48L162.82,30l.26-5.22h6.4V27.1h-4l-.13,1.47a3.41,3.41,0,0,1,1.12-.16c1.84,0,3.49,1,3.49,3.14s-1.92,3.58-4.07,3.58A5.34,5.34,0,0,1,162,33.69Z"/><path class="cls-2" d="M203,29.82c0-3.48,1.62-5.22,4-5.22s4,1.74,4,5.22-1.61,5.31-4,5.31S203,33.29,203,29.82Zm5.57,0c0-2.53-.72-3.11-1.57-3.11s-1.57.58-1.57,3.11S206.1,33,207,33,208.52,32.35,208.52,29.82Zm-2.85,0A1.28,1.28,0,1,1,207,31.1,1.23,1.23,0,0,1,205.67,29.82Z"/><path class="cls-2" d="M214.47,33.05a2.08,2.08,0,1,1,2.08,2.08A2,2,0,0,1,214.47,33.05Z"/><path class="cls-2" d="M222,33.69,223.24,32a3.56,3.56,0,0,0,2.21,1c1.05,0,1.73-.41,1.73-1.31s-.71-1.31-1.6-1.31a2.58,2.58,0,0,0-1.57.48L222.82,30l.26-5.22h6.4V27.1h-4l-.13,1.47a3.41,3.41,0,0,1,1.12-.16c1.84,0,3.49,1,3.49,3.14s-1.92,3.58-4.07,3.58A5.34,5.34,0,0,1,222,33.69Z"/><path class="cls-2" d="M263,29.82c0-3.48,1.62-5.22,4-5.22s4,1.74,4,5.22-1.61,5.31-4,5.31S263,33.29,263,29.82Zm5.57,0c0-2.53-.72-3.11-1.57-3.11s-1.57.58-1.57,3.11S266.1,33,267,33,268.52,32.35,268.52,29.82Zm-2.85,0A1.28,1.28,0,1,1,267,31.1,1.23,1.23,0,0,1,265.67,29.82Z"/><path class="cls-2" d="M274.47,33.05a2.08,2.08,0,1,1,2.08,2.08A2,2,0,0,1,274.47,33.05Z"/><path class="cls-2" d="M282,33.69,283.24,32a3.56,3.56,0,0,0,2.21,1c1.05,0,1.73-.41,1.73-1.31s-.71-1.31-1.6-1.31a2.58,2.58,0,0,0-1.57.48L282.82,30l.26-5.22h6.4V27.1h-4l-.13,1.47a3.41,3.41,0,0,1,1.12-.16c1.84,0,3.49,1,3.49,3.14s-1.92,3.58-4.07,3.58A5.34,5.34,0,0,1,282,33.69Z"/><path class="cls-2" d="M323,29.82c0-3.48,1.62-5.22,4-5.22s4,1.74,4,5.22-1.61,5.31-4,5.31S323,33.29,323,29.82Zm5.57,0c0-2.53-.72-3.11-1.57-3.11s-1.57.58-1.57,3.11S326.1,33,327,33,328.52,32.35,328.52,29.82Zm-2.85,0A1.28,1.28,0,1,1,327,31.1,1.23,1.23,0,0,1,325.67,29.82Z"/><path class="cls-2" d="M334.47,33.05a2.08,2.08,0,1,1,2.08,2.08A2,2,0,0,1,334.47,33.05Z"/><path class="cls-2" d="M342,33.69,343.24,32a3.56,3.56,0,0,0,2.21,1c1.05,0,1.73-.41,1.73-1.31s-.71-1.31-1.6-1.31a2.58,2.58,0,0,0-1.57.48L342.82,30l.26-5.22h6.4V27.1h-4l-.13,1.47a3.41,3.41,0,0,1,1.12-.16c1.84,0,3.49,1,3.49,3.14s-1.92,3.58-4.07,3.58A5.34,5.34,0,0,1,342,33.69Z"/><path class="cls-2" d="M383,29.82c0-3.48,1.62-5.22,4-5.22s4,1.74,4,5.22-1.61,5.31-4,5.31S383,33.29,383,29.82Zm5.57,0c0-2.53-.72-3.11-1.57-3.11s-1.57.58-1.57,3.11S386.1,33,387,33,388.52,32.35,388.52,29.82Zm-2.85,0A1.28,1.28,0,1,1,387,31.1,1.23,1.23,0,0,1,385.67,29.82Z"/><path class="cls-2" d="M394.47,33.05a2.08,2.08,0,1,1,2.08,2.08A2,2,0,0,1,394.47,33.05Z"/><path class="cls-2" d="M402,33.69,403.24,32a3.56,3.56,0,0,0,2.21,1c1.05,0,1.73-.41,1.73-1.31s-.71-1.31-1.6-1.31a2.58,2.58,0,0,0-1.57.48L402.82,30l.26-5.22h6.4V27.1h-4l-.13,1.47a3.41,3.41,0,0,1,1.12-.16c1.84,0,3.49,1,3.49,3.14s-1.92,3.58-4.07,3.58A5.34,5.34,0,0,1,402,33.69Z"/><path class="cls-2" d="M443,29.82c0-3.48,1.62-5.22,4-5.22s4,1.74,4,5.22-1.61,5.31-4,5.31S443,33.29,443,29.82Zm5.57,0c0-2.53-.72-3.11-1.57-3.11s-1.57.58-1.57,3.11S446.1,33,447,33,448.52,32.35,448.52,29.82Zm-2.85,0A1.28,1.28,0,1,1,447,31.1,1.23,1.23,0,0,1,445.67,29.82Z"/><path class="cls-2" d="M454.47,33.05a2.08,2.08,0,1,1,2.08,2.08A2,2,0,0,1,454.47,33.05Z"/><path class="cls-2" d="M462,33.69,463.24,32a3.56,3.56,0,0,0,2.21,1c1.05,0,1.73-.41,1.73-1.31s-.71-1.31-1.6-1.31a2.58,2.58,0,0,0-1.57.48L462.82,30l.26-5.22h6.4V27.1h-4l-.13,1.47a3.41,3.41,0,0,1,1.12-.16c1.84,0,3.49,1,3.49,3.14s-1.92,3.58-4.07,3.58A5.34,5.34,0,0,1,462,33.69Z"/><path class="cls-2" d="M503,29.82c0-3.48,1.62-5.22,4-5.22s4,1.74,4,5.22-1.61,5.31-4,5.31S503,33.29,503,29.82Zm5.57,0c0-2.53-.72-3.11-1.57-3.11s-1.57.58-1.57,3.11S506.1,33,507,33,508.52,32.35,508.52,29.82Zm-2.85,0A1.28,1.28,0,1,1,507,31.1,1.23,1.23,0,0,1,505.67,29.82Z"/><path class="cls-2" d="M514.47,33.05a2.08,2.08,0,1,1,2.08,2.08A2,2,0,0,1,514.47,33.05Z"/><path class="cls-2" d="M522,33.69,523.24,32a3.56,3.56,0,0,0,2.21,1c1,0,1.73-.41,1.73-1.31s-.71-1.31-1.6-1.31a2.58,2.58,0,0,0-1.57.48L522.82,30l.26-5.22h6.4V27.1h-4l-.13,1.47a3.41,3.41,0,0,1,1.12-.16c1.84,0,3.49,1,3.49,3.14s-1.92,3.58-4.07,3.58A5.34,5.34,0,0,1,522,33.69Z"/><path class="cls-2" d="M563,29.82c0-3.48,1.62-5.22,4-5.22s4,1.74,4,5.22-1.61,5.31-4,5.31S563,33.29,563,29.82Zm5.57,0c0-2.53-.72-3.11-1.57-3.11s-1.57.58-1.57,3.11S566.1,33,567,33,568.52,32.35,568.52,29.82Zm-2.85,0A1.28,1.28,0,1,1,567,31.1,1.23,1.23,0,0,1,565.67,29.82Z"/><path class="cls-2" d="M574.47,33.05a2.08,2.08,0,1,1,2.08,2.08A2,2,0,0,1,574.47,33.05Z"/><path class="cls-2" d="M582,33.69,583.24,32a3.56,3.56,0,0,0,2.21,1c1,0,1.73-.41,1.73-1.31s-.71-1.31-1.6-1.31a2.58,2.58,0,0,0-1.57.48L582.82,30l.26-5.22h6.4V27.1h-4l-.13,1.47a3.41,3.41,0,0,1,1.12-.16c1.84,0,3.49,1,3.49,3.14s-1.92,3.58-4.07,3.58A5.34,5.34,0,0,1,582,33.69Z"/><path class="cls-2" d="M623,29.82c0-3.48,1.62-5.22,4-5.22s4,1.74,4,5.22-1.61,5.31-4,5.31S623,33.29,623,29.82Zm5.57,0c0-2.53-.72-3.11-1.57-3.11s-1.57.58-1.57,3.11S626.1,33,627,33,628.52,32.35,628.52,29.82Zm-2.85,0A1.28,1.28,0,1,1,627,31.1,1.23,1.23,0,0,1,625.67,29.82Z"/><path class="cls-2" d="M634.47,33.05a2.08,2.08,0,1,1,2.08,2.08A2,2,0,0,1,634.47,33.05Z"/><path class="cls-2" d="M642,33.69,643.24,32a3.56,3.56,0,0,0,2.21,1c1,0,1.73-.41,1.73-1.31s-.71-1.31-1.6-1.31a2.58,2.58,0,0,0-1.57.48L642.82,30l.26-5.22h6.4V27.1h-4l-.13,1.47a3.41,3.41,0,0,1,1.12-.16c1.84,0,3.49,1,3.49,3.14s-1.92,3.58-4.07,3.58A5.34,5.34,0,0,1,642,33.69Z"/><path class="cls-2" d="M683,29.82c0-3.48,1.62-5.22,4-5.22s4,1.74,4,5.22-1.61,5.31-4,5.31S683,33.29,683,29.82Zm5.57,0c0-2.53-.72-3.11-1.57-3.11s-1.57.58-1.57,3.11S686.1,33,687,33,688.52,32.35,688.52,29.82Zm-2.85,0A1.28,1.28,0,1,1,687,31.1,1.23,1.23,0,0,1,685.67,29.82Z"/><path class="cls-2" d="M694.47,33.05a2.08,2.08,0,1,1,2.08,2.08A2,2,0,0,1,694.47,33.05Z"/><path class="cls-2" d="M702,33.69,703.24,32a3.56,3.56,0,0,0,2.21,1c1,0,1.73-.41,1.73-1.31s-.71-1.31-1.6-1.31a2.58,2.58,0,0,0-1.57.48L702.82,30l.26-5.22h6.4V27.1h-4l-.13,1.47a3.41,3.41,0,0,1,1.12-.16c1.84,0,3.49,1,3.49,3.14s-1.92,3.58-4.07,3.58A5.34,5.34,0,0,1,702,33.69Z"/><path class="cls-2" d="M743,29.82c0-3.48,1.62-5.22,4-5.22s4,1.74,4,5.22-1.61,5.31-4,5.31S743,33.29,743,29.82Zm5.57,0c0-2.53-.72-3.11-1.57-3.11s-1.57.58-1.57,3.11S746.1,33,747,33,748.52,32.35,748.52,29.82Zm-2.85,0A1.28,1.28,0,1,1,747,31.1,1.23,1.23,0,0,1,745.67,29.82Z"/><path class="cls-2" d="M754.47,33.05a2.08,2.08,0,1,1,2.08,2.08A2,2,0,0,1,754.47,33.05Z"/><path class="cls-2" d="M762,33.69,763.24,32a3.56,3.56,0,0,0,2.21,1c1,0,1.73-.41,1.73-1.31s-.71-1.31-1.6-1.31a2.58,2.58,0,0,0-1.57.48L762.82,30l.26-5.22h6.4V27.1h-4l-.13,1.47a3.41,3.41,0,0,1,1.12-.16c1.84,0,3.49,1,3.49,3.14s-1.92,3.58-4.07,3.58A5.34,5.34,0,0,1,762,33.69Z"/><path class="cls-2" d="M803,29.82c0-3.48,1.62-5.22,4-5.22s4,1.74,4,5.22-1.61,5.31-4,5.31S803,33.29,803,29.82Zm5.57,0c0-2.53-.72-3.11-1.57-3.11s-1.57.58-1.57,3.11S806.1,33,807,33,808.52,32.35,808.52,29.82Zm-2.85,0A1.28,1.28,0,1,1,807,31.1,1.23,1.23,0,0,1,805.67,29.82Z"/><path class="cls-2" d="M814.47,33.05a2.08,2.08,0,1,1,2.08,2.08A2,2,0,0,1,814.47,33.05Z"/><path class="cls-2" d="M822,33.69,823.24,32a3.56,3.56,0,0,0,2.21,1c1,0,1.73-.41,1.73-1.31s-.71-1.31-1.6-1.31a2.58,2.58,0,0,0-1.57.48L822.82,30l.26-5.22h6.4V27.1h-4l-.13,1.47a3.41,3.41,0,0,1,1.12-.16c1.84,0,3.49,1,3.49,3.14s-1.92,3.58-4.07,3.58A5.34,5.34,0,0,1,822,33.69Z"/><path class="cls-2" d="M863,29.82c0-3.48,1.62-5.22,4-5.22s4,1.74,4,5.22-1.61,5.31-4,5.31S863,33.29,863,29.82Zm5.57,0c0-2.53-.72-3.11-1.57-3.11s-1.57.58-1.57,3.11S866.1,33,867,33,868.52,32.35,868.52,29.82Zm-2.85,0A1.28,1.28,0,1,1,867,31.1,1.23,1.23,0,0,1,865.67,29.82Z"/><path class="cls-2" d="M874.47,33.05a2.08,2.08,0,1,1,2.08,2.08A2,2,0,0,1,874.47,33.05Z"/><path class="cls-2" d="M882,33.69,883.24,32a3.56,3.56,0,0,0,2.21,1c1,0,1.73-.41,1.73-1.31s-.71-1.31-1.6-1.31a2.58,2.58,0,0,0-1.57.48L882.82,30l.26-5.22h6.4V27.1h-4l-.13,1.47a3.41,3.41,0,0,1,1.12-.16c1.84,0,3.49,1,3.49,3.14s-1.92,3.58-4.07,3.58A5.34,5.34,0,0,1,882,33.69Z"/><path class="cls-2" d="M923,29.82c0-3.48,1.62-5.22,4-5.22s4,1.74,4,5.22-1.61,5.31-4,5.31S923,33.29,923,29.82Zm5.57,0c0-2.53-.72-3.11-1.57-3.11s-1.57.58-1.57,3.11S926.1,33,927,33,928.52,32.35,928.52,29.82Zm-2.85,0A1.28,1.28,0,1,1,927,31.1,1.23,1.23,0,0,1,925.67,29.82Z"/><path class="cls-2" d="M934.47,33.05a2.08,2.08,0,1,1,2.08,2.08A2,2,0,0,1,934.47,33.05Z"/><path class="cls-2" d="M942,33.69,943.24,32a3.56,3.56,0,0,0,2.21,1c1,0,1.73-.41,1.73-1.31s-.71-1.31-1.6-1.31a2.58,2.58,0,0,0-1.57.48L942.82,30l.26-5.22h6.4V27.1h-4l-.13,1.47a3.41,3.41,0,0,1,1.12-.16c1.84,0,3.49,1,3.49,3.14s-1.92,3.58-4.07,3.58A5.34,5.34,0,0,1,942,33.69Z"/><path class="cls-2" d="M983,29.82c0-3.48,1.62-5.22,4-5.22s4,1.74,4,5.22-1.61,5.31-4,5.31S983,33.29,983,29.82Zm5.57,0c0-2.53-.72-3.11-1.57-3.11s-1.57.58-1.57,3.11S986.1,33,987,33,988.52,32.35,988.52,29.82Zm-2.85,0A1.28,1.28,0,1,1,987,31.1,1.23,1.23,0,0,1,985.67,29.82Z"/><path class="cls-2" d="M994.47,33.05a2.08,2.08,0,1,1,2.08,2.08A2,2,0,0,1,994.47,33.05Z"/><path class="cls-2" d="M1002,33.69l1.22-1.73a3.56,3.56,0,0,0,2.21,1c1,0,1.73-.41,1.73-1.31s-.71-1.31-1.6-1.31a2.58,2.58,0,0,0-1.57.48l-1.19-.77.26-5.22h6.4V27.1h-4l-.13,1.47a3.41,3.41,0,0,1,1.12-.16c1.84,0,3.49,1,3.49,3.14s-1.92,3.58-4.07,3.58A5.34,5.34,0,0,1,1002,33.69Z"/><path class="cls-2" d="M1043,29.82c0-3.48,1.62-5.22,4-5.22s4,1.74,4,5.22-1.61,5.31-4,5.31S1043,33.29,1043,29.82Zm5.57,0c0-2.53-.72-3.11-1.57-3.11s-1.57.58-1.57,3.11.72,3.2,1.57,3.2S1048.52,32.35,1048.52,29.82Zm-2.85,0A1.28,1.28,0,1,1,1047,31.1,1.23,1.23,0,0,1,1045.67,29.82Z"/><path class="cls-2" d="M1054.47,33.05a2.08,2.08,0,1,1,2.08,2.08A2,2,0,0,1,1054.47,33.05Z"/><path class="cls-2" d="M1062,33.69l1.22-1.73a3.56,3.56,0,0,0,2.21,1c1,0,1.73-.41,1.73-1.31s-.71-1.31-1.6-1.31a2.58,2.58,0,0,0-1.57.48l-1.19-.77.26-5.22h6.4V27.1h-4l-.13,1.47a3.41,3.41,0,0,1,1.12-.16c1.84,0,3.49,1,3.49,3.14s-1.92,3.58-4.07,3.58A5.34,5.34,0,0,1,1062,33.69Z"/><path class="cls-2" d="M1103,29.82c0-3.48,1.62-5.22,4-5.22s4,1.74,4,5.22-1.61,5.31-4,5.31S1103,33.29,1103,29.82Zm5.57,0c0-2.53-.72-3.11-1.57-3.11s-1.57.58-1.57,3.11.72,3.2,1.57,3.2S1108.52,32.35,1108.52,29.82Zm-2.85,0A1.28,1.28,0,1,1,1107,31.1,1.23,1.23,0,0,1,1105.67,29.82Z"/><path class="cls-2" d="M1114.47,33.05a2.08,2.08,0,1,1,2.08,2.08A2,2,0,0,1,1114.47,33.05Z"/><path class="cls-2" d="M1122,33.69l1.22-1.73a3.56,3.56,0,0,0,2.21,1c1,0,1.73-.41,1.73-1.31s-.71-1.31-1.6-1.31a2.58,2.58,0,0,0-1.57.48l-1.19-.77.26-5.22h6.4V27.1h-4l-.13,1.47a3.41,3.41,0,0,1,1.12-.16c1.84,0,3.49,1,3.49,3.14s-1.92,3.58-4.07,3.58A5.34,5.34,0,0,1,1122,33.69Z"/><path class="cls-2" d="M1163,29.82c0-3.48,1.62-5.22,4-5.22s4,1.74,4,5.22-1.61,5.31-4,5.31S1163,33.29,1163,29.82Zm5.57,0c0-2.53-.72-3.11-1.57-3.11s-1.57.58-1.57,3.11.72,3.2,1.57,3.2S1168.52,32.35,1168.52,29.82Zm-2.85,0A1.28,1.28,0,1,1,1167,31.1,1.23,1.23,0,0,1,1165.67,29.82Z"/><path class="cls-2" d="M1174.47,33.05a2.08,2.08,0,1,1,2.08,2.08A2,2,0,0,1,1174.47,33.05Z"/><path class="cls-2" d="M1182,33.69l1.22-1.73a3.56,3.56,0,0,0,2.21,1c1,0,1.73-.41,1.73-1.31s-.71-1.31-1.6-1.31a2.58,2.58,0,0,0-1.57.48l-1.19-.77.26-5.22h6.4V27.1h-4l-.13,1.47a3.41,3.41,0,0,1,1.12-.16c1.84,0,3.49,1,3.49,3.14s-1.92,3.58-4.07,3.58A5.34,5.34,0,0,1,1182,33.69Z"/><path class="cls-2" d="M1223,29.82c0-3.48,1.62-5.22,4-5.22s4,1.74,4,5.22-1.61,5.31-4,5.31S1223,33.29,1223,29.82Zm5.57,0c0-2.53-.72-3.11-1.57-3.11s-1.57.58-1.57,3.11.72,3.2,1.57,3.2S1228.52,32.35,1228.52,29.82Zm-2.85,0A1.28,1.28,0,1,1,1227,31.1,1.23,1.23,0,0,1,1225.67,29.82Z"/><path class="cls-2" d="M1234.47,33.05a2.08,2.08,0,1,1,2.08,2.08A2,2,0,0,1,1234.47,33.05Z"/><path class="cls-2" d="M1242,33.69l1.22-1.73a3.56,3.56,0,0,0,2.21,1c1,0,1.73-.41,1.73-1.31s-.71-1.31-1.6-1.31a2.58,2.58,0,0,0-1.57.48l-1.19-.77.26-5.22h6.4V27.1h-4l-.13,1.47a3.41,3.41,0,0,1,1.12-.16c1.84,0,3.49,1,3.49,3.14s-1.92,3.58-4.07,3.58A5.34,5.34,0,0,1,1242,33.69Z"/><path class="cls-2" d="M1283,29.82c0-3.48,1.62-5.22,4-5.22s4,1.74,4,5.22-1.61,5.31-4,5.31S1283,33.29,1283,29.82Zm5.57,0c0-2.53-.72-3.11-1.57-3.11s-1.57.58-1.57,3.11.72,3.2,1.57,3.2S1288.52,32.35,1288.52,29.82Zm-2.85,0A1.28,1.28,0,1,1,1287,31.1,1.23,1.23,0,0,1,1285.67,29.82Z"/><path class="cls-2" d="M1294.47,33.05a2.08,2.08,0,1,1,2.08,2.08A2,2,0,0,1,1294.47,33.05Z"/><path class="cls-2" d="M1302,33.69l1.22-1.73a3.56,3.56,0,0,0,2.21,1c1,0,1.73-.41,1.73-1.31s-.71-1.31-1.6-1.31a2.58,2.58,0,0,0-1.57.48l-1.19-.77.26-5.22h6.4V27.1h-4l-.13,1.47a3.41,3.41,0,0,1,1.12-.16c1.84,0,3.49,1,3.49,3.14s-1.92,3.58-4.07,3.58A5.34,5.34,0,0,1,1302,33.69Z"/><path class="cls-2" d="M1343,29.82c0-3.48,1.62-5.22,4-5.22s4,1.74,4,5.22-1.61,5.31-4,5.31S1343,33.29,1343,29.82Zm5.57,0c0-2.53-.72-3.11-1.57-3.11s-1.57.58-1.57,3.11.72,3.2,1.57,3.2S1348.52,32.35,1348.52,29.82Zm-2.85,0A1.28,1.28,0,1,1,1347,31.1,1.23,1.23,0,0,1,1345.67,29.82Z"/><path class="cls-2" d="M1354.47,33.05a2.08,2.08,0,1,1,2.08,2.08A2,2,0,0,1,1354.47,33.05Z"/><path class="cls-2" d="M1362,33.69l1.22-1.73a3.56,3.56,0,0,0,2.21,1c1,0,1.73-.41,1.73-1.31s-.71-1.31-1.6-1.31a2.58,2.58,0,0,0-1.57.48l-1.19-.77.26-5.22h6.4V27.1h-4l-.13,1.47a3.41,3.41,0,0,1,1.12-.16c1.84,0,3.49,1,3.49,3.14s-1.92,3.58-4.07,3.58A5.34,5.34,0,0,1,1362,33.69Z"/><path class="cls-2" d="M1403,29.82c0-3.48,1.62-5.22,4-5.22s4,1.74,4,5.22-1.61,5.31-4,5.31S1403,33.29,1403,29.82Zm5.57,0c0-2.53-.72-3.11-1.57-3.11s-1.57.58-1.57,3.11.72,3.2,1.57,3.2S1408.52,32.35,1408.52,29.82Zm-2.85,0A1.28,1.28,0,1,1,1407,31.1,1.23,1.23,0,0,1,1405.67,29.82Z"/><path class="cls-2" d="M1414.47,33.05a2.08,2.08,0,1,1,2.08,2.08A2,2,0,0,1,1414.47,33.05Z"/><path class="cls-2" d="M1422,33.69l1.22-1.73a3.56,3.56,0,0,0,2.21,1c1,0,1.73-.41,1.73-1.31s-.71-1.31-1.6-1.31a2.58,2.58,0,0,0-1.57.48l-1.19-.77.26-5.22h6.4V27.1h-4l-.13,1.47a3.41,3.41,0,0,1,1.12-.16c1.84,0,3.49,1,3.49,3.14s-1.92,3.58-4.07,3.58A5.34,5.34,0,0,1,1422,33.69Z"/><path class="cls-3" d="M1449.17,26.78h7.55V28.7h-7.55Zm0,3.84h7.55v1.92h-7.55Z"/><path class="cls-3" d="M1468.5,32.73h2.65V27.48h-2.24v-1.7a7,7,0,0,0,3-1h2v7.94h2.17v2.21h-7.58Z"/><path class="cls-3" d="M1477.78,33.37c2.7-2.21,4.69-3.9,4.69-5.28,0-.91-.58-1.35-1.48-1.35a2.9,2.9,0,0,0-1.88,1l-1.46-1.48a4.73,4.73,0,0,1,3.73-1.63c2.17,0,3.7,1.31,3.7,3.33,0,1.63-1.7,3.42-3.37,4.83.56-.06,1.33-.12,1.83-.12h2v2.3h-7.81Z"/><path class="cls-3" d="M1449.17,76.78h7.55V78.7h-7.55Zm0,3.84h7.55v1.92h-7.55Z"/><path class="cls-3" d="M1468.5,82.73h2.65V77.48h-2.24v-1.7a7,7,0,0,0,3-1h2v7.94h2.17v2.21h-7.58Z"/><path class="cls-3" d="M1477.78,83.37c2.7-2.21,4.69-3.9,4.69-5.28,0-.91-.58-1.35-1.48-1.35a2.9,2.9,0,0,0-1.88,1l-1.46-1.48a4.73,4.73,0,0,1,3.73-1.63c2.17,0,3.7,1.31,3.7,3.33,0,1.63-1.7,3.42-3.37,4.83.56-.06,1.33-.12,1.83-.12h2v2.3h-7.81Z"/><path class="cls-3" d="M1449.17,126.78h7.55v1.92h-7.55Zm0,3.84h7.55v1.92h-7.55Z"/><path class="cls-3" d="M1468.5,132.73h2.65v-5.25h-2.24v-1.7a7,7,0,0,0,3-1h2v7.94h2.17v2.21h-7.58Z"/><path class="cls-3" d="M1477.78,133.37c2.7-2.21,4.69-3.9,4.69-5.28,0-.91-.58-1.35-1.48-1.35a2.9,2.9,0,0,0-1.88,1l-1.46-1.48a4.73,4.73,0,0,1,3.73-1.63c2.17,0,3.7,1.31,3.7,3.33,0,1.63-1.7,3.42-3.37,4.83.56-.06,1.33-.12,1.83-.12h2v2.3h-7.81Z"/><path class="cls-3" d="M1449.17,176.78h7.55v1.92h-7.55Zm0,3.84h7.55v1.92h-7.55Z"/><path class="cls-3" d="M1468.5,182.73h2.65v-5.25h-2.24v-1.7a7,7,0,0,0,3-1h2v7.94h2.17v2.21h-7.58Z"/><path class="cls-3" d="M1477.78,183.37c2.7-2.21,4.69-3.9,4.69-5.28,0-.91-.58-1.35-1.48-1.35a2.9,2.9,0,0,0-1.88,1l-1.46-1.48a4.73,4.73,0,0,1,3.73-1.63c2.17,0,3.7,1.31,3.7,3.33,0,1.63-1.7,3.42-3.37,4.83.56-.06,1.33-.12,1.83-.12h2v2.3h-7.81Z"/><path class="cls-3" d="M1449.17,226.78h7.55v1.92h-7.55Zm0,3.84h7.55v1.92h-7.55Z"/><path class="cls-3" d="M1468.5,232.73h2.65v-5.25h-2.24v-1.7a7,7,0,0,0,3-1h2v7.94h2.17v2.21h-7.58Z"/><path class="cls-3" d="M1477.78,233.37c2.7-2.21,4.69-3.9,4.69-5.28,0-.91-.58-1.35-1.48-1.35a2.9,2.9,0,0,0-1.88,1l-1.46-1.48a4.73,4.73,0,0,1,3.73-1.63c2.17,0,3.7,1.31,3.7,3.33,0,1.63-1.7,3.42-3.37,4.83.56-.06,1.33-.12,1.83-.12h2v2.3h-7.81Z"/><path class="cls-3" d="M1449.17,276.78h7.55v1.92h-7.55Zm0,3.84h7.55v1.92h-7.55Z"/><path class="cls-3" d="M1468.5,282.73h2.65v-5.25h-2.24v-1.7a7,7,0,0,0,3-1h2v7.94h2.17v2.21h-7.58Z"/><path class="cls-3" d="M1477.78,283.37c2.7-2.21,4.69-3.9,4.69-5.28,0-.91-.58-1.34-1.48-1.34a2.89,2.89,0,0,0-1.88,1l-1.46-1.48a4.73,4.73,0,0,1,3.73-1.63c2.17,0,3.7,1.31,3.7,3.33,0,1.63-1.7,3.42-3.37,4.83.56-.06,1.33-.12,1.83-.12h2v2.3h-7.81Z"/><path class="cls-3" d="M1449.17,326.78h7.55v1.92h-7.55Zm0,3.84h7.55v1.92h-7.55Z"/><path class="cls-3" d="M1468.5,332.73h2.65v-5.25h-2.24v-1.7a7,7,0,0,0,3-1h2v7.94h2.17v2.21h-7.58Z"/><path class="cls-3" d="M1477.78,333.37c2.7-2.21,4.69-3.9,4.69-5.28,0-.91-.58-1.34-1.48-1.34a2.89,2.89,0,0,0-1.88,1l-1.46-1.48a4.73,4.73,0,0,1,3.73-1.63c2.17,0,3.7,1.31,3.7,3.33,0,1.63-1.7,3.42-3.37,4.83.56-.06,1.33-.12,1.83-.12h2v2.3h-7.81Z"/><path class="cls-3" d="M1449.17,376.78h7.55v1.92h-7.55Zm0,3.84h7.55v1.92h-7.55Z"/><path class="cls-3" d="M1468.5,382.73h2.65v-5.25h-2.24v-1.7a7,7,0,0,0,3-1h2v7.94h2.17v2.21h-7.58Z"/><path class="cls-3" d="M1477.78,383.37c2.7-2.21,4.69-3.9,4.69-5.28,0-.91-.58-1.34-1.48-1.34a2.89,2.89,0,0,0-1.88,1l-1.46-1.48a4.73,4.73,0,0,1,3.73-1.63c2.17,0,3.7,1.31,3.7,3.33,0,1.63-1.7,3.42-3.37,4.83.56-.06,1.33-.12,1.83-.12h2v2.3h-7.81Z"/><path class="cls-3" d="M1449.17,426.78h7.55v1.92h-7.55Zm0,3.84h7.55v1.92h-7.55Z"/><path class="cls-3" d="M1468.5,432.73h2.65v-5.25h-2.24v-1.7a7,7,0,0,0,3-1h2v7.94h2.17v2.21h-7.58Z"/><path class="cls-3" d="M1477.78,433.37c2.7-2.21,4.69-3.9,4.69-5.28,0-.91-.58-1.34-1.48-1.34a2.89,2.89,0,0,0-1.88,1l-1.46-1.48a4.73,4.73,0,0,1,3.73-1.63c2.17,0,3.7,1.31,3.7,3.33,0,1.63-1.7,3.42-3.37,4.83.56-.06,1.33-.12,1.83-.12h2v2.3h-7.81Z"/><path class="cls-3" d="M1449.17,476.78h7.55v1.92h-7.55Zm0,3.84h7.55v1.92h-7.55Z"/><path class="cls-3" d="M1468.5,482.73h2.65v-5.25h-2.24v-1.7a7,7,0,0,0,3-1h2v7.94h2.17v2.21h-7.58Z"/><path class="cls-3" d="M1477.78,483.37c2.7-2.21,4.69-3.9,4.69-5.28,0-.91-.58-1.34-1.48-1.34a2.89,2.89,0,0,0-1.88,1l-1.46-1.48a4.73,4.73,0,0,1,3.73-1.63c2.17,0,3.7,1.31,3.7,3.33,0,1.63-1.7,3.42-3.37,4.83.56-.06,1.33-.12,1.83-.12h2v2.3h-7.81Z"/><path class="cls-3" d="M1449.17,526.78h7.55v1.92h-7.55Zm0,3.84h7.55v1.92h-7.55Z"/><path class="cls-3" d="M1468.5,532.73h2.65v-5.25h-2.24v-1.7a7,7,0,0,0,3-1h2v7.94h2.17v2.21h-7.58Z"/><path class="cls-3" d="M1477.78,533.37c2.7-2.21,4.69-3.9,4.69-5.28,0-.91-.58-1.34-1.48-1.34a2.89,2.89,0,0,0-1.88,1l-1.46-1.48a4.73,4.73,0,0,1,3.73-1.63c2.17,0,3.7,1.31,3.7,3.33,0,1.63-1.7,3.42-3.37,4.83.56-.06,1.33-.12,1.83-.12h2v2.3h-7.81Z"/><path class="cls-3" d="M1449.17,576.78h7.55v1.92h-7.55Zm0,3.84h7.55v1.92h-7.55Z"/><path class="cls-3" d="M1468.5,582.73h2.65v-5.25h-2.24v-1.7a7,7,0,0,0,3-1h2v7.94h2.17v2.21h-7.58Z"/><path class="cls-3" d="M1477.78,583.37c2.7-2.21,4.69-3.9,4.69-5.28,0-.91-.58-1.34-1.48-1.34a2.89,2.89,0,0,0-1.88,1l-1.46-1.48a4.73,4.73,0,0,1,3.73-1.63c2.17,0,3.7,1.31,3.7,3.33,0,1.63-1.7,3.42-3.37,4.83.56-.06,1.33-.12,1.83-.12h2v2.3h-7.81Z"/><path class="cls-3" d="M1449.17,626.78h7.55v1.92h-7.55Zm0,3.84h7.55v1.92h-7.55Z"/><path class="cls-3" d="M1468.5,632.73h2.65v-5.25h-2.24v-1.7a7,7,0,0,0,3-1h2v7.94h2.17v2.21h-7.58Z"/><path class="cls-3" d="M1477.78,633.37c2.7-2.21,4.69-3.9,4.69-5.28,0-.91-.58-1.34-1.48-1.34a2.89,2.89,0,0,0-1.88,1l-1.46-1.48a4.73,4.73,0,0,1,3.73-1.63c2.17,0,3.7,1.31,3.7,3.33,0,1.63-1.7,3.42-3.37,4.83.56-.06,1.33-.12,1.83-.12h2v2.3h-7.81Z"/><path class="cls-2" d="M592,582.73h2.66v-5.25h-2.24v-1.7a7,7,0,0,0,3-1h2v7.94h2.18v2.21H592Z"/><path class="cls-2" d="M601.28,579.82c0-3.48,1.61-5.22,4-5.22s4,1.74,4,5.22-1.62,5.31-4,5.31S601.28,583.29,601.28,579.82Zm5.57,0c0-2.53-.72-3.11-1.57-3.11s-1.57.58-1.57,3.11.72,3.2,1.57,3.2S606.85,582.35,606.85,579.82Zm-2.85,0a1.28,1.28,0,1,1,1.28,1.28A1.22,1.22,0,0,1,604,579.82Z"/><path class="cls-2" d="M612.8,583.05a2.08,2.08,0,1,1,2.08,2.08A2,2,0,0,1,612.8,583.05Z"/><path class="cls-2" d="M620.35,583.69l1.22-1.73a3.51,3.51,0,0,0,2.2,1c1.06,0,1.73-.41,1.73-1.31s-.7-1.31-1.6-1.31a2.6,2.6,0,0,0-1.57.48l-1.18-.77.26-5.22h6.4v2.31h-4l-.12,1.47a3.37,3.37,0,0,1,1.12-.16c1.84,0,3.49,1,3.49,3.14s-1.93,3.58-4.07,3.58A5.32,5.32,0,0,1,620.35,583.69Z"/><path class="cls-2" d="M639.77,581.87v-4.93h2.76v4.57c0,.9.19,1.28.91,1.28a1.31,1.31,0,0,0,1.2-.7v-5.15h2.75v8h-2.24l-.19-1.06h-.07a3.27,3.27,0,0,1-2.59,1.25C640.51,585.13,639.77,583.85,639.77,581.87Z"/><path class="cls-2" d="M649.5,576.94h2.24l.19,1H652a3.8,3.8,0,0,1,2.67-1.16c1.78,0,2.55,1.28,2.55,3.27v4.93h-2.76v-4.58c0-.9-.22-1.28-.93-1.28a1.82,1.82,0,0,0-1.28.61v5.25H649.5Z"/><path class="cls-2" d="M662.3,579.08h-3v-2.14h5.79v8H662.3Zm-.48-4.83a1.76,1.76,0,0,1,3.52,0,1.77,1.77,0,0,1-3.52,0Z"/><path class="cls-2" d="M670.27,581.55v-2.47h-1.92V577l2-.09.35-2.4H673v2.4h3.17v2.14H673v2.42c0,1.13.53,1.49,1.55,1.49a4.37,4.37,0,0,0,1.46-.26l.48,2a9.72,9.72,0,0,1-2.66.41C671.23,585.13,670.27,583.69,670.27,581.55Z"/><path class="cls-2" d="M678,583.92l1.15-1.7a6.32,6.32,0,0,0,3.14.89c.71,0,1-.19,1-.48s-.41-.44-1.76-.73c-2.21-.48-3-1.31-3-2.56,0-1.57,1.49-2.6,3.81-2.6a6.76,6.76,0,0,1,3.56,1.12l-1.22,1.64a5.32,5.32,0,0,0-2.59-.74c-.52,0-.83.16-.83.45s.41.38,1.66.67c2.4.55,3.1,1.27,3.1,2.59,0,1.51-1.42,2.66-4.09,2.66A7.65,7.65,0,0,1,678,583.92Z"/><path class="cls-2" d="M535.39,533.85l1.44-1.63a2.71,2.71,0,0,0,1.69.7c1.17,0,2.18-.8,2.18-3.23s-.94-3-1.63-3a1.24,1.24,0,0,0-1.32,1.41,1.11,1.11,0,0,0,1.25,1.21,2.09,2.09,0,0,0,1.67-1l.13,1.73a3.72,3.72,0,0,1-2.4,1.16,2.9,2.9,0,0,1-3.14-3.14A3.48,3.48,0,0,1,539,524.6c2,0,4.2,1.41,4.2,5.09s-2.16,5.44-4.42,5.44A4.89,4.89,0,0,1,535.39,533.85Z"/><path class="cls-2" d="M546.81,533.05a2.08,2.08,0,1,1,2.08,2.08A2,2,0,0,1,546.81,533.05Z"/><path class="cls-2" d="M554.36,533.69l1.22-1.73a3.53,3.53,0,0,0,2.21,1c1.05,0,1.73-.41,1.73-1.31s-.71-1.31-1.6-1.31a2.58,2.58,0,0,0-1.57.48l-1.19-.77.26-5.22h6.4v2.31h-4l-.13,1.47a3.41,3.41,0,0,1,1.12-.16c1.84,0,3.49,1,3.49,3.14s-1.92,3.58-4.07,3.58A5.34,5.34,0,0,1,554.36,533.69Z"/><path class="cls-2" d="M573.79,531.87v-4.93h2.75v4.57c0,.9.19,1.28.91,1.28a1.29,1.29,0,0,0,1.2-.7v-5.15h2.75v8h-2.24l-.19-1.06h-.06a3.29,3.29,0,0,1-2.6,1.25C574.52,535.13,573.79,533.85,573.79,531.87Z"/><path class="cls-2" d="M583.51,526.94h2.24l.2,1H586a3.8,3.8,0,0,1,2.67-1.16c1.78,0,2.55,1.29,2.55,3.27v4.93h-2.76v-4.58c0-.9-.22-1.28-.92-1.28a1.79,1.79,0,0,0-1.28.61v5.25h-2.76Z"/><path class="cls-2" d="M596.31,529.08h-3v-2.14h5.8v8h-2.76Zm-.48-4.83a1.77,1.77,0,0,1,3.53,0,1.77,1.77,0,0,1-3.53,0Z"/><path class="cls-2" d="M604.28,531.55v-2.47h-1.92V527l2-.09.35-2.4H607v2.4h3.16v2.14H607v2.42c0,1.13.52,1.49,1.55,1.49a4.35,4.35,0,0,0,1.45-.26l.48,2a9.64,9.64,0,0,1-2.65.41C605.24,535.13,604.28,533.69,604.28,531.55Z"/><path class="cls-2" d="M612,533.92l1.16-1.7a6.3,6.3,0,0,0,3.13.9c.71,0,1-.2,1-.49s-.42-.44-1.76-.73c-2.21-.48-3-1.31-3-2.56,0-1.57,1.49-2.6,3.81-2.6a6.67,6.67,0,0,1,3.55,1.13l-1.22,1.63a5.32,5.32,0,0,0-2.59-.74c-.51,0-.83.16-.83.45s.41.38,1.66.67c2.4.55,3.11,1.27,3.11,2.59,0,1.51-1.43,2.66-4.1,2.66A7.65,7.65,0,0,1,612,533.92Z"/><path class="cls-2" d="M475.42,482.35a2.68,2.68,0,0,1,1.81-2.4v-.07a2.92,2.92,0,0,1-1.46-2.4c0-1.79,1.49-2.88,3.59-2.88s3.39,1.09,3.39,2.82a2.62,2.62,0,0,1-1.43,2.13v.06a2.92,2.92,0,0,1,1.88,2.67c0,1.64-1.41,2.85-3.94,2.85C476.89,485.13,475.42,484,475.42,482.35Zm5.22-.16c0-.74-.84-1-2.16-1.54a1.84,1.84,0,0,0-.69,1.38c0,.8.7,1.21,1.53,1.21S480.64,483,480.64,482.19Zm-.13-4.58a1.08,1.08,0,0,0-1.22-1.12c-.61,0-1.12.29-1.12,1s.69,1,1.76,1.41A1.85,1.85,0,0,0,480.51,477.61Z"/><path class="cls-2" d="M486.81,483.05a2.08,2.08,0,1,1,2.08,2.08A2,2,0,0,1,486.81,483.05Z"/><path class="cls-2" d="M494.36,483.69l1.22-1.73a3.53,3.53,0,0,0,2.21,1c1,0,1.73-.41,1.73-1.31s-.71-1.31-1.6-1.31a2.58,2.58,0,0,0-1.57.48l-1.19-.77.26-5.22h6.4v2.31h-4l-.13,1.47a3.41,3.41,0,0,1,1.12-.16c1.84,0,3.49,1,3.49,3.14s-1.92,3.58-4.07,3.58A5.34,5.34,0,0,1,494.36,483.69Z"/><path class="cls-2" d="M513.79,481.87v-4.93h2.75v4.57c0,.9.19,1.29.91,1.29a1.3,1.3,0,0,0,1.2-.71v-5.15h2.75v8h-2.24l-.19-1.06h-.06a3.29,3.29,0,0,1-2.6,1.25C514.52,485.13,513.79,483.85,513.79,481.87Z"/><path class="cls-2" d="M523.51,476.94h2.24l.2,1H526a3.79,3.79,0,0,1,2.67-1.15c1.78,0,2.55,1.28,2.55,3.26v4.93h-2.76v-4.58c0-.89-.22-1.28-.92-1.28a1.79,1.79,0,0,0-1.28.61v5.25h-2.76Z"/><path class="cls-2" d="M536.31,479.08h-3v-2.14h5.8v8h-2.76Zm-.48-4.83a1.77,1.77,0,0,1,3.53,0,1.77,1.77,0,0,1-3.53,0Z"/><path class="cls-2" d="M544.28,481.55v-2.47h-1.92V477l2-.09.35-2.4H547v2.4h3.16v2.14H547v2.42c0,1.14.52,1.49,1.55,1.49a4.35,4.35,0,0,0,1.45-.26l.48,2a9.64,9.64,0,0,1-2.65.41C545.24,485.13,544.28,483.69,544.28,481.55Z"/><path class="cls-2" d="M552,483.92l1.16-1.7a6.3,6.3,0,0,0,3.13.9c.71,0,1-.2,1-.48s-.42-.45-1.76-.74c-2.21-.48-3-1.31-3-2.56,0-1.57,1.49-2.59,3.81-2.59a6.67,6.67,0,0,1,3.55,1.12l-1.22,1.63a5.32,5.32,0,0,0-2.59-.74c-.51,0-.83.16-.83.45s.41.38,1.66.67c2.4.55,3.11,1.27,3.11,2.6,0,1.5-1.43,2.65-4.1,2.65A7.65,7.65,0,0,1,552,483.92Z"/><path class="cls-2" d="M420.24,427.1h-4.81v-2.31h7.73v1.7c-2.52,2.74-2.83,4.5-3,8.45h-2.75A12.4,12.4,0,0,1,420.24,427.1Z"/><path class="cls-2" d="M426.81,433.05a2.08,2.08,0,1,1,2.08,2.08A2,2,0,0,1,426.81,433.05Z"/><path class="cls-2" d="M434.36,433.69l1.22-1.73a3.53,3.53,0,0,0,2.21,1c1,0,1.72-.41,1.72-1.31s-.7-1.31-1.6-1.31a2.57,2.57,0,0,0-1.56.48l-1.19-.77.26-5.22h6.4v2.31h-4l-.13,1.47a3.37,3.37,0,0,1,1.12-.16c1.84,0,3.49,1,3.49,3.14s-1.92,3.58-4.07,3.58A5.34,5.34,0,0,1,434.36,433.69Z"/><path class="cls-2" d="M453.79,431.87v-4.93h2.75v4.57c0,.9.19,1.28.91,1.28a1.31,1.31,0,0,0,1.2-.7v-5.15h2.75v8h-2.24l-.19-1.06h-.06a3.3,3.3,0,0,1-2.6,1.25C454.52,435.13,453.79,433.85,453.79,431.87Z"/><path class="cls-2" d="M463.51,426.94h2.24l.2,1H466a3.8,3.8,0,0,1,2.67-1.16c1.78,0,2.55,1.28,2.55,3.27v4.93h-2.76v-4.58c0-.9-.22-1.28-.92-1.28a1.79,1.79,0,0,0-1.28.61v5.25h-2.76Z"/><path class="cls-2" d="M476.31,429.08h-3v-2.14h5.8v8h-2.76Zm-.48-4.83a1.77,1.77,0,0,1,3.53,0,1.77,1.77,0,0,1-3.53,0Z"/><path class="cls-2" d="M484.28,431.55v-2.47h-1.92V427l2.05-.09.35-2.4H487v2.4h3.17v2.14H487v2.42c0,1.13.53,1.49,1.56,1.49a4.35,4.35,0,0,0,1.45-.26l.48,2a9.64,9.64,0,0,1-2.65.41C485.24,435.13,484.28,433.69,484.28,431.55Z"/><path class="cls-2" d="M492,433.92l1.16-1.7a6.26,6.26,0,0,0,3.13.89c.71,0,1-.19,1-.48s-.42-.44-1.76-.73c-2.21-.48-3-1.31-3-2.56,0-1.57,1.49-2.6,3.81-2.6a6.75,6.75,0,0,1,3.55,1.12l-1.22,1.64a5.32,5.32,0,0,0-2.59-.74c-.51,0-.83.16-.83.45s.41.38,1.66.67c2.4.55,3.11,1.27,3.11,2.59,0,1.51-1.43,2.66-4.1,2.66A7.65,7.65,0,0,1,492,433.92Z"/><path class="cls-2" d="M355.35,380c0-3.68,2.16-5.44,4.42-5.44a4.89,4.89,0,0,1,3.39,1.28l-1.44,1.63a2.71,2.71,0,0,0-1.69-.7c-1.17,0-2.18.8-2.18,3.23s.94,3,1.63,3a1.24,1.24,0,0,0,1.32-1.41,1.11,1.11,0,0,0-1.25-1.21,2.09,2.09,0,0,0-1.67,1l-.13-1.73a3.7,3.7,0,0,1,2.41-1.15,2.89,2.89,0,0,1,3.13,3.13,3.48,3.48,0,0,1-3.74,3.46C357.51,385.13,355.35,383.72,355.35,380Z"/><path class="cls-2" d="M366.81,383.05a2.08,2.08,0,1,1,2.08,2.08A2,2,0,0,1,366.81,383.05Z"/><path class="cls-2" d="M374.36,383.69l1.22-1.73a3.53,3.53,0,0,0,2.21,1c1,0,1.73-.41,1.73-1.31s-.71-1.31-1.61-1.31a2.57,2.57,0,0,0-1.56.48l-1.19-.77.26-5.22h6.4v2.31h-4l-.13,1.47a3.37,3.37,0,0,1,1.12-.16c1.84,0,3.49,1,3.49,3.14s-1.92,3.58-4.07,3.58A5.34,5.34,0,0,1,374.36,383.69Z"/><path class="cls-2" d="M393.79,381.87v-4.93h2.75v4.57c0,.9.19,1.29.91,1.29a1.3,1.3,0,0,0,1.2-.71v-5.15h2.75v8h-2.24l-.19-1.06h-.06a3.29,3.29,0,0,1-2.6,1.25C394.52,385.13,393.79,383.85,393.79,381.87Z"/><path class="cls-2" d="M403.51,376.94h2.24l.2,1H406a3.79,3.79,0,0,1,2.67-1.15c1.78,0,2.55,1.28,2.55,3.26v4.93h-2.76v-4.58c0-.89-.22-1.28-.92-1.28a1.79,1.79,0,0,0-1.28.61v5.25h-2.76Z"/><path class="cls-2" d="M416.31,379.08h-3v-2.14h5.8v8h-2.76Zm-.48-4.83a1.77,1.77,0,0,1,3.53,0,1.77,1.77,0,0,1-3.53,0Z"/><path class="cls-2" d="M424.28,381.55v-2.47h-1.92V377l2.05-.09.35-2.4H427v2.4h3.16v2.14H427v2.42c0,1.14.52,1.49,1.55,1.49a4.35,4.35,0,0,0,1.45-.26l.48,2a9.64,9.64,0,0,1-2.65.41C425.24,385.13,424.28,383.69,424.28,381.55Z"/><path class="cls-2" d="M432,383.92l1.16-1.7a6.3,6.3,0,0,0,3.13.9c.71,0,1-.2,1-.48s-.42-.45-1.76-.74c-2.21-.48-3-1.31-3-2.56,0-1.57,1.49-2.59,3.81-2.59a6.67,6.67,0,0,1,3.55,1.12l-1.22,1.63a5.32,5.32,0,0,0-2.59-.74c-.51,0-.83.16-.83.45s.41.38,1.66.67c2.4.55,3.11,1.27,3.11,2.6,0,1.5-1.43,2.65-4.1,2.65A7.65,7.65,0,0,1,432,383.92Z"/><path class="cls-2" d="M295.16,333.69l1.22-1.73a3.53,3.53,0,0,0,2.21,1c1.05,0,1.73-.41,1.73-1.31s-.71-1.31-1.61-1.31a2.57,2.57,0,0,0-1.56.48L296,330l.26-5.22h6.4v2.31h-4l-.13,1.47a3.41,3.41,0,0,1,1.12-.16c1.84,0,3.49,1,3.49,3.14s-1.92,3.58-4.07,3.58A5.34,5.34,0,0,1,295.16,333.69Z"/><path class="cls-2" d="M306.81,333.05a2.08,2.08,0,1,1,2.08,2.08A2,2,0,0,1,306.81,333.05Z"/><path class="cls-2" d="M314.36,333.69l1.22-1.73a3.53,3.53,0,0,0,2.21,1c1,0,1.73-.41,1.73-1.31s-.71-1.31-1.61-1.31a2.57,2.57,0,0,0-1.56.48l-1.19-.77.26-5.22h6.4v2.31h-4l-.13,1.47a3.37,3.37,0,0,1,1.12-.16c1.84,0,3.49,1,3.49,3.14s-1.92,3.58-4.07,3.58A5.34,5.34,0,0,1,314.36,333.69Z"/><path class="cls-2" d="M333.79,331.87v-4.93h2.75v4.57c0,.9.19,1.28.91,1.28a1.31,1.31,0,0,0,1.2-.7v-5.15h2.75v8h-2.24l-.19-1.06h-.06a3.3,3.3,0,0,1-2.6,1.25C334.52,335.13,333.79,333.85,333.79,331.87Z"/><path class="cls-2" d="M343.51,326.94h2.24l.2,1H346a3.8,3.8,0,0,1,2.67-1.16c1.78,0,2.55,1.28,2.55,3.27v4.93h-2.76v-4.58c0-.9-.22-1.28-.92-1.28a1.79,1.79,0,0,0-1.28.61v5.25h-2.76Z"/><path class="cls-2" d="M356.31,329.08h-3v-2.14h5.8v8h-2.76Zm-.48-4.83a1.77,1.77,0,0,1,3.53,0,1.77,1.77,0,0,1-3.53,0Z"/><path class="cls-2" d="M364.28,331.55v-2.47h-1.92V327l2.05-.09.35-2.4H367v2.4h3.17v2.14H367v2.42c0,1.13.53,1.49,1.56,1.49a4.35,4.35,0,0,0,1.45-.26l.48,2a9.64,9.64,0,0,1-2.65.41C365.24,335.13,364.28,333.69,364.28,331.55Z"/><path class="cls-2" d="M372,333.92l1.16-1.7a6.29,6.29,0,0,0,3.13.89c.71,0,1-.19,1-.48s-.42-.44-1.76-.73c-2.21-.48-3-1.31-3-2.56,0-1.57,1.49-2.6,3.81-2.6a6.75,6.75,0,0,1,3.55,1.12l-1.22,1.64a5.32,5.32,0,0,0-2.59-.74c-.51,0-.83.16-.83.45s.41.38,1.66.67c2.4.55,3.11,1.27,3.11,2.59,0,1.51-1.43,2.66-4.1,2.66A7.65,7.65,0,0,1,372,333.92Z"/><path class="cls-2" d="M955.16,333.69l1.22-1.73a3.53,3.53,0,0,0,2.21,1c1,0,1.73-.41,1.73-1.31s-.71-1.31-1.61-1.31a2.57,2.57,0,0,0-1.56.48L956,330l.26-5.22h6.4v2.31h-4l-.13,1.47a3.41,3.41,0,0,1,1.12-.16c1.84,0,3.49,1,3.49,3.14s-1.92,3.58-4.07,3.58A5.34,5.34,0,0,1,955.16,333.69Z"/><path class="cls-2" d="M966.81,333.05a2.08,2.08,0,1,1,2.08,2.08A2,2,0,0,1,966.81,333.05Z"/><path class="cls-2" d="M974.36,333.69l1.22-1.73a3.53,3.53,0,0,0,2.21,1c1.05,0,1.73-.41,1.73-1.31s-.71-1.31-1.6-1.31a2.58,2.58,0,0,0-1.57.48l-1.19-.77.26-5.22h6.4v2.31h-4l-.13,1.47a3.41,3.41,0,0,1,1.12-.16c1.84,0,3.49,1,3.49,3.14s-1.92,3.58-4.07,3.58A5.34,5.34,0,0,1,974.36,333.69Z"/><path class="cls-2" d="M993.79,331.87v-4.93h2.75v4.57c0,.9.19,1.28.91,1.28a1.29,1.29,0,0,0,1.2-.7v-5.15h2.75v8h-2.24l-.19-1.06h-.06a3.29,3.29,0,0,1-2.6,1.25C994.52,335.13,993.79,333.85,993.79,331.87Z"/><path class="cls-2" d="M1003.51,326.94h2.24l.2,1h.06a3.8,3.8,0,0,1,2.67-1.16c1.78,0,2.55,1.28,2.55,3.27v4.93h-2.76v-4.58c0-.9-.22-1.28-.92-1.28a1.79,1.79,0,0,0-1.28.61v5.25h-2.76Z"/><path class="cls-2" d="M1016.31,329.08h-3v-2.14h5.8v8h-2.76Zm-.48-4.83a1.77,1.77,0,0,1,3.53,0,1.77,1.77,0,0,1-3.53,0Z"/><path class="cls-2" d="M1024.28,331.55v-2.47h-1.92V327l2.05-.09.35-2.4H1027v2.4h3.16v2.14H1027v2.42c0,1.13.52,1.49,1.55,1.49a4.35,4.35,0,0,0,1.45-.26l.48,2a9.64,9.64,0,0,1-2.65.41C1025.24,335.13,1024.28,333.69,1024.28,331.55Z"/><path class="cls-2" d="M1032,333.92l1.16-1.7a6.29,6.29,0,0,0,3.13.89c.71,0,1-.19,1-.48s-.42-.44-1.76-.73c-2.21-.48-3-1.31-3-2.56,0-1.57,1.49-2.6,3.81-2.6a6.75,6.75,0,0,1,3.55,1.12l-1.22,1.64a5.32,5.32,0,0,0-2.59-.74c-.51,0-.83.16-.83.45s.41.38,1.66.67c2.4.55,3.11,1.27,3.11,2.59,0,1.51-1.43,2.66-4.1,2.66A7.65,7.65,0,0,1,1032,333.92Z"/><path class="cls-2" d="M234.77,279.43c0-.68.07-1.71.1-2.4h-.07c-.33.61-.76,1.22-1.13,1.83l-1.06,1.73h5.89v2.08H230v-1.92l3.92-6h3.39v10.15h-2.56Z"/><path class="cls-2" d="M241.81,283.05a2.08,2.08,0,1,1,2.08,2.08A2,2,0,0,1,241.81,283.05Z"/><path class="cls-2" d="M249.36,283.69l1.22-1.73a3.53,3.53,0,0,0,2.21,1c1.05,0,1.73-.41,1.73-1.31s-.71-1.31-1.61-1.31a2.57,2.57,0,0,0-1.56.48l-1.19-.77.26-5.22h6.4v2.31h-4l-.13,1.47a3.37,3.37,0,0,1,1.12-.16c1.84,0,3.49,1,3.49,3.14s-1.92,3.58-4.07,3.58A5.34,5.34,0,0,1,249.36,283.69Z"/><path class="cls-2" d="M268.79,281.87v-4.93h2.75v4.57c0,.9.19,1.29.91,1.29a1.32,1.32,0,0,0,1.2-.71v-5.15h2.75v8h-2.24l-.19-1.06h-.06a3.3,3.3,0,0,1-2.6,1.25C269.52,285.13,268.79,283.85,268.79,281.87Z"/><path class="cls-2" d="M278.51,276.94h2.24l.2,1H281a3.79,3.79,0,0,1,2.67-1.15c1.78,0,2.55,1.28,2.55,3.26v4.93h-2.76v-4.58c0-.89-.22-1.28-.92-1.28a1.79,1.79,0,0,0-1.28.61v5.25h-2.76Z"/><path class="cls-2" d="M291.31,279.08h-3v-2.14h5.8v8h-2.76Zm-.48-4.83a1.77,1.77,0,0,1,3.53,0,1.77,1.77,0,0,1-3.53,0Z"/><path class="cls-2" d="M299.28,281.55v-2.47h-1.92V277l2.05-.09.35-2.4H302v2.4h3.17v2.14H302v2.42c0,1.14.53,1.49,1.56,1.49a4.35,4.35,0,0,0,1.45-.26l.48,2a9.64,9.64,0,0,1-2.65.41C300.24,285.13,299.28,283.69,299.28,281.55Z"/><path class="cls-2" d="M307,283.92l1.16-1.7a6.3,6.3,0,0,0,3.13.9c.71,0,1-.2,1-.48s-.42-.45-1.76-.74c-2.21-.48-3-1.31-3-2.56,0-1.57,1.49-2.59,3.81-2.59a6.67,6.67,0,0,1,3.55,1.12l-1.22,1.63a5.32,5.32,0,0,0-2.59-.74c-.51,0-.83.16-.83.45s.41.38,1.66.67c2.4.55,3.11,1.27,3.11,2.6,0,1.5-1.43,2.65-4.1,2.65A7.65,7.65,0,0,1,307,283.92Z"/><path class="cls-2" d="M784.77,279.43c0-.68.07-1.71.1-2.4h-.07c-.33.61-.76,1.22-1.13,1.83l-1.06,1.73h5.89v2.08H780v-1.92l3.92-6h3.39v10.15h-2.56Z"/><path class="cls-2" d="M791.81,283.05a2.08,2.08,0,1,1,2.08,2.08A2,2,0,0,1,791.81,283.05Z"/><path class="cls-2" d="M799.36,283.69l1.22-1.73a3.53,3.53,0,0,0,2.21,1c1.05,0,1.73-.41,1.73-1.31s-.71-1.31-1.6-1.31a2.58,2.58,0,0,0-1.57.48l-1.19-.77.26-5.22h6.4v2.31h-4l-.13,1.47a3.41,3.41,0,0,1,1.12-.16c1.84,0,3.49,1,3.49,3.14s-1.92,3.58-4.07,3.58A5.34,5.34,0,0,1,799.36,283.69Z"/><path class="cls-2" d="M818.79,281.87v-4.93h2.75v4.57c0,.9.19,1.29.91,1.29a1.3,1.3,0,0,0,1.2-.71v-5.15h2.75v8h-2.24l-.19-1.06h-.06a3.29,3.29,0,0,1-2.6,1.25C819.52,285.13,818.79,283.85,818.79,281.87Z"/><path class="cls-2" d="M828.51,276.94h2.24l.2,1H831a3.79,3.79,0,0,1,2.67-1.15c1.78,0,2.55,1.28,2.55,3.26v4.93h-2.76v-4.58c0-.89-.22-1.28-.92-1.28a1.79,1.79,0,0,0-1.28.61v5.25h-2.76Z"/><path class="cls-2" d="M841.31,279.08h-3v-2.14h5.8v8h-2.76Zm-.48-4.83a1.77,1.77,0,0,1,3.53,0,1.77,1.77,0,0,1-3.53,0Z"/><path class="cls-2" d="M849.28,281.55v-2.47h-1.92V277l2-.09.35-2.4H852v2.4h3.16v2.14H852v2.42c0,1.14.52,1.49,1.55,1.49a4.35,4.35,0,0,0,1.45-.26l.48,2a9.64,9.64,0,0,1-2.65.41C850.24,285.13,849.28,283.69,849.28,281.55Z"/><path class="cls-2" d="M857,283.92l1.16-1.7a6.3,6.3,0,0,0,3.13.9c.71,0,1-.2,1-.48s-.42-.45-1.76-.74c-2.21-.48-3-1.31-3-2.56,0-1.57,1.49-2.59,3.81-2.59a6.67,6.67,0,0,1,3.55,1.12l-1.22,1.63a5.32,5.32,0,0,0-2.59-.74c-.51,0-.83.16-.83.45s.41.38,1.66.67c2.4.55,3.11,1.27,3.11,2.6,0,1.5-1.43,2.65-4.1,2.65A7.65,7.65,0,0,1,857,283.92Z"/><path class="cls-2" d="M652,632.73h2.66v-5.25h-2.24v-1.69a7.11,7.11,0,0,0,3-1h2v7.94h2.18v2.21H652Z"/><path class="cls-2" d="M661.63,632.73h2.66v-5.25H662v-1.69a7.11,7.11,0,0,0,3-1h2v7.94h2.18v2.21h-7.59Z"/><path class="cls-2" d="M672.8,633.05a2.08,2.08,0,1,1,2.08,2.08A2,2,0,0,1,672.8,633.05Z"/><path class="cls-2" d="M680.35,633.69l1.22-1.73a3.51,3.51,0,0,0,2.2,1c1.06,0,1.73-.41,1.73-1.31s-.7-1.31-1.6-1.31a2.6,2.6,0,0,0-1.57.48l-1.18-.77.26-5.22h6.4v2.31h-4l-.12,1.47a3.37,3.37,0,0,1,1.12-.16c1.84,0,3.49,1,3.49,3.14s-1.93,3.58-4.07,3.58A5.32,5.32,0,0,1,680.35,633.69Z"/><path class="cls-2" d="M699.77,631.87v-4.93h2.76v4.57c0,.9.19,1.28.91,1.28a1.31,1.31,0,0,0,1.2-.7v-5.15h2.75v8h-2.24l-.19-1.06h-.07a3.27,3.27,0,0,1-2.59,1.25C700.51,635.13,699.77,633.85,699.77,631.87Z"/><path class="cls-2" d="M709.5,626.94h2.24l.19,1H712a3.8,3.8,0,0,1,2.67-1.16c1.78,0,2.55,1.29,2.55,3.27v4.93h-2.76v-4.58c0-.9-.22-1.28-.93-1.28a1.82,1.82,0,0,0-1.28.61v5.25H709.5Z"/><path class="cls-2" d="M722.3,629.08h-3v-2.14h5.79v8H722.3Zm-.48-4.83a1.77,1.77,0,0,1,3.52,0,1.77,1.77,0,0,1-3.52,0Z"/><path class="cls-2" d="M730.27,631.55v-2.47h-1.92V627l2-.09.35-2.4H733v2.4h3.17v2.14H733v2.42c0,1.13.53,1.49,1.55,1.49a4.37,4.37,0,0,0,1.46-.26l.48,2a9.72,9.72,0,0,1-2.66.41C731.23,635.13,730.27,633.69,730.27,631.55Z"/><path class="cls-2" d="M738,633.92l1.15-1.7a6.34,6.34,0,0,0,3.14.9c.71,0,1-.2,1-.49s-.41-.44-1.76-.73c-2.21-.48-3-1.31-3-2.56,0-1.57,1.49-2.6,3.81-2.6a6.67,6.67,0,0,1,3.56,1.13l-1.22,1.63a5.32,5.32,0,0,0-2.59-.74c-.52,0-.83.16-.83.45s.41.38,1.66.67c2.4.55,3.1,1.27,3.1,2.59,0,1.51-1.42,2.66-4.09,2.66A7.65,7.65,0,0,1,738,633.92Z"/><path class="cls-2" d="M1315.64,232.73h2.66v-5.25h-2.24v-1.7a7.08,7.08,0,0,0,3-1h2v7.94h2.18v2.21h-7.59Z"/><path class="cls-2" d="M1326.81,233.05a2.08,2.08,0,1,1,2.08,2.08A2,2,0,0,1,1326.81,233.05Z"/><path class="cls-2" d="M1334.36,233.69l1.22-1.73a3.53,3.53,0,0,0,2.21,1c1,0,1.73-.41,1.73-1.31s-.71-1.31-1.61-1.31a2.57,2.57,0,0,0-1.56.48l-1.19-.77.26-5.22h6.4v2.31h-4l-.13,1.47a3.37,3.37,0,0,1,1.12-.16c1.84,0,3.49,1,3.49,3.14s-1.92,3.58-4.07,3.58A5.34,5.34,0,0,1,1334.36,233.69Z"/><path class="cls-2" d="M1353.79,231.87v-4.93h2.75v4.57c0,.9.19,1.29.91,1.29a1.32,1.32,0,0,0,1.2-.71v-5.15h2.75v8h-2.24l-.19-1.06h-.06a3.3,3.3,0,0,1-2.6,1.25C1354.52,235.13,1353.79,233.85,1353.79,231.87Z"/><path class="cls-2" d="M1363.51,226.94h2.24l.2,1h.06a3.8,3.8,0,0,1,2.67-1.16c1.78,0,2.55,1.28,2.55,3.27v4.93h-2.76v-4.58c0-.89-.22-1.28-.92-1.28a1.79,1.79,0,0,0-1.28.61v5.25h-2.76Z"/><path class="cls-2" d="M1376.31,229.08h-3v-2.14h5.8v8h-2.76Zm-.48-4.83a1.77,1.77,0,0,1,3.53,0,1.77,1.77,0,0,1-3.53,0Z"/><path class="cls-2" d="M1384.28,231.55v-2.47h-1.92V227l2.05-.09.35-2.4H1387v2.4h3.16v2.14H1387v2.42c0,1.14.52,1.49,1.55,1.49a4.35,4.35,0,0,0,1.45-.26l.48,2a9.64,9.64,0,0,1-2.65.41C1385.24,235.13,1384.28,233.69,1384.28,231.55Z"/><path class="cls-2" d="M1392,233.92l1.16-1.7a6.29,6.29,0,0,0,3.13.89c.71,0,1-.19,1-.47s-.42-.45-1.76-.74c-2.21-.48-3-1.31-3-2.56,0-1.57,1.49-2.6,3.81-2.6a6.75,6.75,0,0,1,3.55,1.12l-1.22,1.64a5.32,5.32,0,0,0-2.59-.74c-.51,0-.83.16-.83.45s.41.38,1.66.67c2.4.55,3.11,1.27,3.11,2.6,0,1.5-1.43,2.65-4.1,2.65A7.65,7.65,0,0,1,1392,233.92Z"/><path class="cls-2" d="M1356.48,332.73h2.66v-5.25h-2.25v-1.69a7.11,7.11,0,0,0,3-1h2v7.94h2.18v2.21h-7.59Z"/><path class="cls-2" d="M1375.42,331.87v-4.93h2.76v4.57c0,.9.19,1.29.91,1.29a1.32,1.32,0,0,0,1.2-.71v-5.15H1383v8h-2.24l-.19-1.06h-.07a3.27,3.27,0,0,1-2.59,1.25C1376.16,335.13,1375.42,333.85,1375.42,331.87Z"/><path class="cls-2" d="M1385.15,326.94h2.24l.19,1h.07a3.79,3.79,0,0,1,2.67-1.15c1.78,0,2.55,1.28,2.55,3.26v4.93h-2.76v-4.58c0-.89-.22-1.28-.93-1.28a1.82,1.82,0,0,0-1.28.61v5.25h-2.75Z"/><path class="cls-2" d="M1398,329.08h-3v-2.14h5.8v8H1398Zm-.48-4.83a1.77,1.77,0,0,1,3.52,0,1.77,1.77,0,0,1-3.52,0Z"/><path class="cls-2" d="M1405.92,331.55v-2.47H1404V327l2-.09.35-2.4h2.27v2.4h3.17v2.14h-3.17v2.42c0,1.14.53,1.49,1.55,1.49a4.37,4.37,0,0,0,1.46-.26l.48,2a9.72,9.72,0,0,1-2.66.41C1406.88,335.13,1405.92,333.69,1405.92,331.55Z"/><path class="cls-2" d="M1296.16,183.37c2.7-2.21,4.69-3.9,4.69-5.28,0-.91-.58-1.35-1.47-1.35a3,3,0,0,0-1.89,1l-1.46-1.47a4.73,4.73,0,0,1,3.73-1.63c2.18,0,3.7,1.31,3.7,3.33,0,1.63-1.7,3.42-3.36,4.83.56-.06,1.32-.12,1.82-.12h2v2.3h-7.81Z"/><path class="cls-2" d="M1315.42,181.87v-4.93h2.76v4.57c0,.9.19,1.29.91,1.29a1.32,1.32,0,0,0,1.2-.71v-5.15H1323v8h-2.24l-.19-1.06h-.07a3.27,3.27,0,0,1-2.59,1.25C1316.16,185.13,1315.42,183.85,1315.42,181.87Z"/><path class="cls-2" d="M1325.15,176.94h2.24l.19,1h.07a3.8,3.8,0,0,1,2.67-1.16c1.78,0,2.55,1.28,2.55,3.27v4.93h-2.76v-4.58c0-.89-.22-1.28-.93-1.28a1.82,1.82,0,0,0-1.28.61v5.25h-2.75Z"/><path class="cls-2" d="M1338,179.08h-3v-2.14h5.8v8H1338Zm-.48-4.83a1.76,1.76,0,0,1,3.52,0,1.77,1.77,0,0,1-3.52,0Z"/><path class="cls-2" d="M1345.92,181.55v-2.47H1344V177l2-.09.35-2.4h2.27v2.4h3.17v2.14h-3.17v2.42c0,1.14.53,1.49,1.55,1.49a4.37,4.37,0,0,0,1.46-.26l.48,2a9.72,9.72,0,0,1-2.66.41C1346.88,185.13,1345.92,183.69,1345.92,181.55Z"/><path class="cls-2" d="M1353.66,183.92l1.15-1.7a6.32,6.32,0,0,0,3.14.89c.71,0,1-.19,1-.47s-.41-.45-1.76-.74c-2.21-.48-3-1.31-3-2.56,0-1.57,1.49-2.6,3.81-2.6a6.76,6.76,0,0,1,3.56,1.12l-1.22,1.64a5.32,5.32,0,0,0-2.59-.74c-.52,0-.83.16-.83.45s.41.38,1.66.67c2.4.55,3.11,1.27,3.11,2.6,0,1.5-1.43,2.65-4.1,2.65A7.65,7.65,0,0,1,1353.66,183.92Z"/><path class="cls-2" d="M1232.29,283.69l1.25-1.73a3.73,3.73,0,0,0,2.3,1c1,0,1.7-.32,1.7-1s-.56-1.21-2.82-1.21v-1.92c1.83,0,2.5-.45,2.5-1.16s-.48-.92-1.28-.92a3.14,3.14,0,0,0-2,.83l-1.37-1.67a5.53,5.53,0,0,1,3.52-1.31c2.34,0,3.9,1,3.9,2.87,0,1-.65,1.71-1.85,2.19v.06a2.58,2.58,0,0,1,2.17,2.44c0,1.92-2,3-4.16,3A5,5,0,0,1,1232.29,283.69Z"/><path class="cls-2" d="M1251.81,281.87v-4.93h2.75v4.57c0,.9.19,1.29.92,1.29a1.32,1.32,0,0,0,1.2-.71v-5.15h2.75v8h-2.24l-.19-1.06h-.07a3.27,3.27,0,0,1-2.59,1.25C1252.55,285.13,1251.81,283.85,1251.81,281.87Z"/><path class="cls-2" d="M1261.54,276.94h2.24l.19,1h.07a3.79,3.79,0,0,1,2.67-1.15c1.78,0,2.54,1.28,2.54,3.26v4.93h-2.75v-4.58c0-.89-.22-1.28-.93-1.28a1.82,1.82,0,0,0-1.28.61v5.25h-2.75Z"/><path class="cls-2" d="M1274.34,279.08h-3v-2.14h5.79v8h-2.75Zm-.48-4.83a1.76,1.76,0,0,1,3.52,0,1.77,1.77,0,0,1-3.52,0Z"/><path class="cls-2" d="M1282.31,281.55v-2.47h-1.92V277l2-.09.36-2.4h2.27v2.4h3.17v2.14h-3.17v2.42c0,1.14.53,1.49,1.55,1.49a4.37,4.37,0,0,0,1.46-.26l.48,2a9.78,9.78,0,0,1-2.66.41C1283.27,285.13,1282.31,283.69,1282.31,281.55Z"/><path class="cls-2" d="M1290.05,283.92l1.15-1.7a6.31,6.31,0,0,0,3.14.9c.7,0,1-.2,1-.48s-.41-.45-1.76-.74c-2.21-.48-3-1.31-3-2.56,0-1.57,1.49-2.59,3.81-2.59a6.61,6.61,0,0,1,3.55,1.12l-1.21,1.63a5.32,5.32,0,0,0-2.59-.74c-.52,0-.84.16-.84.45s.42.38,1.67.67c2.4.55,3.1,1.27,3.1,2.6,0,1.5-1.42,2.65-4.09,2.65A7.62,7.62,0,0,1,1290.05,283.92Z"/><path class="cls-2" d="M1075.16,383.69l1.22-1.73a3.53,3.53,0,0,0,2.21,1c1.05,0,1.73-.41,1.73-1.31s-.71-1.31-1.61-1.31a2.57,2.57,0,0,0-1.56.48L1076,380l.26-5.22h6.4v2.31h-4l-.13,1.47a3.41,3.41,0,0,1,1.12-.16c1.84,0,3.49,1,3.49,3.14s-1.92,3.58-4.07,3.58A5.34,5.34,0,0,1,1075.16,383.69Z"/><path class="cls-2" d="M1086.81,383.05a2.08,2.08,0,1,1,2.08,2.08A2,2,0,0,1,1086.81,383.05Z"/><path class="cls-2" d="M1094.36,383.69l1.22-1.73a3.53,3.53,0,0,0,2.21,1c1,0,1.73-.41,1.73-1.31s-.71-1.31-1.6-1.31a2.58,2.58,0,0,0-1.57.48l-1.19-.77.26-5.22h6.4v2.31h-4l-.13,1.47a3.41,3.41,0,0,1,1.12-.16c1.84,0,3.49,1,3.49,3.14s-1.92,3.58-4.07,3.58A5.34,5.34,0,0,1,1094.36,383.69Z"/><path class="cls-2" d="M1113.79,381.87v-4.93h2.75v4.57c0,.9.19,1.28.91,1.28a1.29,1.29,0,0,0,1.2-.7v-5.15h2.75v8h-2.24l-.19-1.06h-.06a3.29,3.29,0,0,1-2.6,1.25C1114.52,385.13,1113.79,383.85,1113.79,381.87Z"/><path class="cls-2" d="M1123.51,376.94h2.24l.2,1h.06a3.8,3.8,0,0,1,2.67-1.16c1.78,0,2.55,1.28,2.55,3.27v4.93h-2.76v-4.58c0-.9-.22-1.28-.92-1.28a1.79,1.79,0,0,0-1.28.61v5.25h-2.76Z"/><path class="cls-2" d="M1136.31,379.08h-3v-2.14h5.8v8h-2.76Zm-.48-4.83a1.77,1.77,0,0,1,3.53,0,1.77,1.77,0,0,1-3.53,0Z"/><path class="cls-2" d="M1144.28,381.55v-2.47h-1.92V377l2.05-.09.35-2.4H1147v2.4h3.16v2.14H1147v2.42c0,1.13.52,1.49,1.55,1.49a4.35,4.35,0,0,0,1.45-.26l.48,2a9.64,9.64,0,0,1-2.65.41C1145.24,385.13,1144.28,383.69,1144.28,381.55Z"/><path class="cls-2" d="M1152,383.92l1.16-1.7a6.29,6.29,0,0,0,3.13.89c.71,0,1-.19,1-.48s-.42-.44-1.76-.73c-2.21-.48-3-1.31-3-2.56,0-1.57,1.49-2.6,3.81-2.6a6.75,6.75,0,0,1,3.55,1.12l-1.22,1.64a5.32,5.32,0,0,0-2.59-.74c-.51,0-.83.16-.83.45s.41.38,1.66.67c2.4.55,3.11,1.27,3.11,2.59,0,1.51-1.43,2.66-4.1,2.66A7.65,7.65,0,0,1,1152,383.92Z"/><path class="cls-2" d="M1144.77,429.43c0-.68.07-1.71.1-2.4h-.07c-.33.61-.76,1.22-1.13,1.83l-1.06,1.73h5.89v2.08H1140v-1.92l3.92-6h3.39v10.15h-2.56Z"/><path class="cls-2" d="M1151.81,433.05a2.08,2.08,0,1,1,2.08,2.08A2,2,0,0,1,1151.81,433.05Z"/><path class="cls-2" d="M1159.36,433.69l1.22-1.73a3.53,3.53,0,0,0,2.21,1c1,0,1.73-.41,1.73-1.31s-.71-1.31-1.6-1.31a2.58,2.58,0,0,0-1.57.48l-1.19-.77.26-5.22h6.4v2.31h-4l-.13,1.47a3.41,3.41,0,0,1,1.12-.16c1.84,0,3.49,1,3.49,3.14s-1.92,3.58-4.07,3.58A5.34,5.34,0,0,1,1159.36,433.69Z"/><path class="cls-2" d="M1178.79,431.87v-4.93h2.75v4.57c0,.9.19,1.29.91,1.29a1.3,1.3,0,0,0,1.2-.71v-5.15h2.75v8h-2.24l-.19-1.06h-.06a3.29,3.29,0,0,1-2.6,1.25C1179.52,435.13,1178.79,433.85,1178.79,431.87Z"/><path class="cls-2" d="M1188.51,426.94h2.24l.2,1h.06a3.79,3.79,0,0,1,2.67-1.15c1.78,0,2.55,1.28,2.55,3.26v4.93h-2.76v-4.58c0-.89-.22-1.28-.92-1.28a1.79,1.79,0,0,0-1.28.61v5.25h-2.76Z"/><path class="cls-2" d="M1201.31,429.08h-3v-2.14h5.8v8h-2.76Zm-.48-4.83a1.77,1.77,0,0,1,3.53,0,1.77,1.77,0,0,1-3.53,0Z"/><path class="cls-2" d="M1209.28,431.55v-2.47h-1.92V427l2.05-.09.35-2.4H1212v2.4h3.16v2.14H1212v2.42c0,1.14.52,1.49,1.55,1.49a4.35,4.35,0,0,0,1.45-.26l.48,2a9.64,9.64,0,0,1-2.65.41C1210.24,435.13,1209.28,433.69,1209.28,431.55Z"/><path class="cls-2" d="M1217,433.92l1.16-1.7a6.3,6.3,0,0,0,3.13.9c.71,0,1-.2,1-.48s-.42-.45-1.76-.74c-2.21-.48-3-1.31-3-2.56,0-1.57,1.49-2.59,3.81-2.59a6.67,6.67,0,0,1,3.55,1.12l-1.22,1.63a5.32,5.32,0,0,0-2.59-.74c-.51,0-.83.16-.83.45s.41.38,1.66.67c2.4.55,3.11,1.27,3.11,2.6,0,1.5-1.43,2.65-4.1,2.65A7.65,7.65,0,0,1,1217,433.92Z"/><path class="cls-2" d="M1195.07,483.69l1.24-1.73a3.76,3.76,0,0,0,2.31,1c1,0,1.7-.32,1.7-1s-.57-1.21-2.82-1.21v-1.92c1.82,0,2.5-.45,2.5-1.16s-.49-.92-1.29-.92a3.12,3.12,0,0,0-2,.83l-1.38-1.67a5.56,5.56,0,0,1,3.52-1.31c2.34,0,3.91,1,3.91,2.87,0,1-.66,1.71-1.86,2.19v.06a2.59,2.59,0,0,1,2.18,2.44c0,1.92-2,3-4.16,3A5,5,0,0,1,1195.07,483.69Z"/><path class="cls-2" d="M1206.81,483.05a2.08,2.08,0,1,1,2.08,2.08A2,2,0,0,1,1206.81,483.05Z"/><path class="cls-2" d="M1214.36,483.69l1.22-1.73a3.53,3.53,0,0,0,2.21,1c1,0,1.72-.41,1.72-1.31s-.7-1.31-1.6-1.31a2.57,2.57,0,0,0-1.56.48l-1.19-.77.26-5.22h6.4v2.31h-4l-.13,1.47a3.37,3.37,0,0,1,1.12-.16c1.84,0,3.49,1,3.49,3.14s-1.92,3.58-4.07,3.58A5.34,5.34,0,0,1,1214.36,483.69Z"/><path class="cls-2" d="M1233.79,481.87v-4.93h2.75v4.57c0,.9.19,1.29.91,1.29a1.32,1.32,0,0,0,1.2-.71v-5.15h2.75v8h-2.24l-.19-1.06h-.06a3.3,3.3,0,0,1-2.6,1.25C1234.52,485.13,1233.79,483.85,1233.79,481.87Z"/><path class="cls-2" d="M1243.51,476.94h2.24l.2,1h.06a3.79,3.79,0,0,1,2.67-1.15c1.78,0,2.55,1.28,2.55,3.26v4.93h-2.76v-4.58c0-.89-.22-1.28-.92-1.28a1.79,1.79,0,0,0-1.28.61v5.25h-2.76Z"/><path class="cls-2" d="M1256.31,479.08h-3v-2.14h5.8v8h-2.76Zm-.48-4.83a1.77,1.77,0,0,1,3.53,0,1.77,1.77,0,0,1-3.53,0Z"/><path class="cls-2" d="M1264.28,481.55v-2.47h-1.92V477l2.05-.09.35-2.4H1267v2.4h3.17v2.14H1267v2.42c0,1.14.53,1.49,1.56,1.49a4.35,4.35,0,0,0,1.45-.26l.48,2a9.64,9.64,0,0,1-2.65.41C1265.24,485.13,1264.28,483.69,1264.28,481.55Z"/><path class="cls-2" d="M1272,483.92l1.16-1.7a6.28,6.28,0,0,0,3.13.9c.71,0,1-.2,1-.48s-.42-.45-1.76-.74c-2.21-.48-3-1.31-3-2.56,0-1.57,1.49-2.59,3.81-2.59a6.67,6.67,0,0,1,3.55,1.12l-1.22,1.63a5.32,5.32,0,0,0-2.59-.74c-.51,0-.83.16-.83.45s.41.38,1.66.67c2.4.55,3.11,1.27,3.11,2.6,0,1.5-1.43,2.65-4.1,2.65A7.65,7.65,0,0,1,1272,483.92Z"/><path class="cls-2" d="M1255.32,533.37c2.71-2.21,4.69-3.9,4.69-5.28,0-.91-.57-1.34-1.47-1.34a3,3,0,0,0-1.89,1l-1.46-1.48a4.75,4.75,0,0,1,3.73-1.63c2.18,0,3.7,1.31,3.7,3.33,0,1.63-1.7,3.43-3.36,4.83.56-.06,1.33-.12,1.82-.12h2.05v2.3h-7.81Z"/><path class="cls-2" d="M1266.81,533.05a2.08,2.08,0,1,1,2.08,2.08A2,2,0,0,1,1266.81,533.05Z"/><path class="cls-2" d="M1274.36,533.69l1.22-1.73a3.53,3.53,0,0,0,2.21,1c1,0,1.73-.41,1.73-1.31s-.71-1.31-1.6-1.31a2.58,2.58,0,0,0-1.57.48l-1.19-.77.26-5.22h6.4v2.31h-4l-.13,1.47a3.41,3.41,0,0,1,1.12-.16c1.84,0,3.49,1,3.49,3.14s-1.92,3.58-4.07,3.58A5.34,5.34,0,0,1,1274.36,533.69Z"/><path class="cls-2" d="M1293.79,531.87v-4.93h2.75v4.57c0,.9.19,1.29.91,1.29a1.3,1.3,0,0,0,1.2-.71v-5.15h2.75v8h-2.24l-.19-1.06h-.06a3.29,3.29,0,0,1-2.6,1.25C1294.52,535.13,1293.79,533.85,1293.79,531.87Z"/><path class="cls-2" d="M1303.51,526.94h2.24l.2,1h.06a3.79,3.79,0,0,1,2.67-1.15c1.78,0,2.55,1.28,2.55,3.26v4.93h-2.76v-4.58c0-.89-.22-1.28-.92-1.28a1.79,1.79,0,0,0-1.28.61v5.25h-2.76Z"/><path class="cls-2" d="M1316.31,529.08h-3v-2.14h5.8v8h-2.76Zm-.48-4.83a1.77,1.77,0,0,1,3.53,0,1.77,1.77,0,0,1-3.53,0Z"/><path class="cls-2" d="M1324.28,531.55v-2.47h-1.92V527l2.05-.09.35-2.4H1327v2.4h3.16v2.14H1327v2.42c0,1.14.52,1.49,1.55,1.49a4.35,4.35,0,0,0,1.45-.26l.48,2a9.64,9.64,0,0,1-2.65.41C1325.24,535.13,1324.28,533.69,1324.28,531.55Z"/><path class="cls-2" d="M1332,533.92l1.16-1.7a6.3,6.3,0,0,0,3.13.9c.71,0,1-.2,1-.48s-.42-.45-1.76-.74c-2.21-.48-3-1.31-3-2.56,0-1.57,1.49-2.59,3.81-2.59a6.67,6.67,0,0,1,3.55,1.12l-1.22,1.63a5.32,5.32,0,0,0-2.59-.74c-.51,0-.83.16-.83.45s.41.38,1.66.67c2.4.55,3.11,1.27,3.11,2.6,0,1.5-1.43,2.65-4.1,2.65A7.65,7.65,0,0,1,1332,533.92Z"/><path class="cls-2" d="M1315.64,582.73h2.66v-5.25h-2.24v-1.7a7.08,7.08,0,0,0,3-1h2v7.94h2.18v2.21h-7.59Z"/><path class="cls-2" d="M1326.81,583.05a2.08,2.08,0,1,1,2.08,2.08A2,2,0,0,1,1326.81,583.05Z"/><path class="cls-2" d="M1334.36,583.69l1.22-1.73a3.53,3.53,0,0,0,2.21,1c1,0,1.73-.41,1.73-1.31s-.71-1.31-1.61-1.31a2.57,2.57,0,0,0-1.56.48l-1.19-.77.26-5.22h6.4v2.31h-4l-.13,1.47a3.37,3.37,0,0,1,1.12-.16c1.84,0,3.49,1,3.49,3.14s-1.92,3.58-4.07,3.58A5.34,5.34,0,0,1,1334.36,583.69Z"/><path class="cls-2" d="M1353.79,581.87v-4.93h2.75v4.57c0,.9.19,1.28.91,1.28a1.31,1.31,0,0,0,1.2-.7v-5.15h2.75v8h-2.24l-.19-1.06h-.06a3.3,3.3,0,0,1-2.6,1.25C1354.52,585.13,1353.79,583.85,1353.79,581.87Z"/><path class="cls-2" d="M1363.51,576.94h2.24l.2,1h.06a3.8,3.8,0,0,1,2.67-1.16c1.78,0,2.55,1.28,2.55,3.27v4.93h-2.76v-4.58c0-.9-.22-1.28-.92-1.28a1.79,1.79,0,0,0-1.28.61v5.25h-2.76Z"/><path class="cls-2" d="M1376.31,579.08h-3v-2.14h5.8v8h-2.76Zm-.48-4.83a1.77,1.77,0,0,1,3.53,0,1.77,1.77,0,0,1-3.53,0Z"/><path class="cls-2" d="M1384.28,581.55v-2.47h-1.92V577l2.05-.09.35-2.4H1387v2.4h3.16v2.14H1387v2.42c0,1.13.52,1.49,1.55,1.49a4.35,4.35,0,0,0,1.45-.26l.48,2a9.64,9.64,0,0,1-2.65.41C1385.24,585.13,1384.28,583.69,1384.28,581.55Z"/><path class="cls-2" d="M1392,583.92l1.16-1.7a6.29,6.29,0,0,0,3.13.89c.71,0,1-.19,1-.48s-.42-.44-1.76-.73c-2.21-.48-3-1.31-3-2.56,0-1.57,1.49-2.6,3.81-2.6a6.75,6.75,0,0,1,3.55,1.12l-1.22,1.64a5.32,5.32,0,0,0-2.59-.74c-.51,0-.83.16-.83.45s.41.38,1.66.67c2.4.55,3.11,1.27,3.11,2.59,0,1.51-1.43,2.66-4.1,2.66A7.65,7.65,0,0,1,1392,583.92Z"/><path class="cls-2" d="M1403,629.82c0-3.48,1.62-5.22,4-5.22s4,1.74,4,5.22-1.61,5.31-4,5.31S1403,633.29,1403,629.82Zm5.57,0c0-2.53-.72-3.11-1.57-3.11s-1.57.58-1.57,3.11.72,3.2,1.57,3.2S1408.52,632.35,1408.52,629.82Zm-2.85,0a1.28,1.28,0,1,1,1.28,1.28A1.23,1.23,0,0,1,1405.67,629.82Z"/><path class="cls-2" d="M1414.47,633.05a2.08,2.08,0,1,1,2.08,2.08A2,2,0,0,1,1414.47,633.05Z"/><path class="cls-2" d="M1422,633.69l1.22-1.73a3.56,3.56,0,0,0,2.21,1c1,0,1.73-.41,1.73-1.31s-.71-1.31-1.6-1.31a2.58,2.58,0,0,0-1.57.48l-1.19-.77.26-5.22h6.4v2.31h-4l-.13,1.47a3.41,3.41,0,0,1,1.12-.16c1.84,0,3.49,1,3.49,3.14s-1.92,3.58-4.07,3.58A5.34,5.34,0,0,1,1422,633.69Z"/></g></svg>